<svg width="40" height="40" viewBox="0 0 40 40" fill="none" xmlns="http://www.w3.org/2000/svg">
<mask id="mask0_348_1492" style="mask-type:alpha" maskUnits="userSpaceOnUse" x="0" y="0" width="40" height="40">
<rect width="40" height="40" fill="#D9D9D9"/>
</mask>
<g mask="url(#mask0_348_1492)">
<path d="M20 24.5L26 18.5H14L20 24.5ZM20 35C17.925 35 15.975 34.6062 14.15 33.8187C12.325 33.0312 10.7375 31.9625 9.3875 30.6125C8.0375 29.2625 6.96875 27.675 6.18125 25.85C5.39375 24.025 5 22.075 5 20C5 17.925 5.39375 15.975 6.18125 14.15C6.96875 12.325 8.0375 10.7375 9.3875 9.3875C10.7375 8.0375 12.325 6.96875 14.15 6.18125C15.975 5.39375 17.925 5 20 5C22.075 5 24.025 5.39375 25.85 6.18125C27.675 6.96875 29.2625 8.0375 30.6125 9.3875C31.9625 10.7375 33.0312 12.325 33.8187 14.15C34.6062 15.975 35 17.925 35 20C35 22.075 34.6062 24.025 33.8187 25.85C33.0312 27.675 31.9625 29.2625 30.6125 30.6125C29.2625 31.9625 27.675 33.0312 25.85 33.8187C24.025 34.6062 22.075 35 20 35ZM20 32C23.35 32 26.1875 30.8375 28.5125 28.5125C30.8375 26.1875 32 23.35 32 20C32 16.65 30.8375 13.8125 28.5125 11.4875C26.1875 9.1625 23.35 8 20 8C16.65 8 13.8125 9.1625 11.4875 11.4875C9.1625 13.8125 8 16.65 8 20C8 23.35 9.1625 26.1875 11.4875 28.5125C13.8125 30.8375 16.65 32 20 32Z" fill="#1C1B1F"/>
</g>
</svg>
