<svg xmlns="http://www.w3.org/2000/svg" xmlns:xlink="http://www.w3.org/1999/xlink" width="500" zoomAndPan="magnify" viewBox="0 0 375 374.999991" height="500" preserveAspectRatio="xMidYMid meet" version="1.0"><defs><g/><clipPath id="4568781db6"><path d="M 102 13.328125 L 169 13.328125 L 169 103 L 102 103 Z M 102 13.328125 " clip-rule="nonzero"/></clipPath><clipPath id="73f559c118"><path d="M 83.234375 93 L 151 93 L 151 133 L 83.234375 133 Z M 83.234375 93 " clip-rule="nonzero"/></clipPath><clipPath id="58dece6854"><path d="M 170 100 L 266.984375 100 L 266.984375 160 L 170 160 Z M 170 100 " clip-rule="nonzero"/></clipPath><clipPath id="e0f284677d"><path d="M 156 98 L 188 98 L 188 225.484375 L 156 225.484375 Z M 156 98 " clip-rule="nonzero"/></clipPath></defs><path fill="#94b202" d="M 189.453125 74.9375 C 184.320312 80.042969 179.820312 86.777344 176.519531 95.621094 C 176.519531 95.621094 178.613281 96.550781 182.136719 97.476562 C 195.140625 100.902344 227.621094 104.351562 246.410156 61.429688 C 246.410156 61.429688 211.875 52.625 189.453125 74.9375 " fill-opacity="1" fill-rule="nonzero"/><g clip-path="url(#4568781db6)"><path fill="#94b202" d="M 134.585938 89.445312 C 142.90625 95.402344 153.347656 100.101562 166.460938 102.644531 C 166.460938 102.644531 167.265625 99.507812 167.742188 94.386719 C 169.5 75.488281 166.765625 29.460938 102.488281 13.28125 C 102.488281 13.28125 98.226562 63.410156 134.585938 89.445312 " fill-opacity="1" fill-rule="nonzero"/></g><g clip-path="url(#73f559c118)"><path fill="#94b202" d="M 106.710938 94.273438 C 99.777344 93.339844 91.964844 93.839844 83.234375 96.5 C 83.234375 96.5 83.753906 98.648438 85.109375 101.894531 C 90.105469 113.863281 106.511719 140.777344 150.503906 129.988281 C 150.503906 129.988281 137.003906 98.363281 106.710938 94.273438 " fill-opacity="1" fill-rule="nonzero"/></g><g clip-path="url(#58dece6854)"><path fill="#94b202" d="M 187.605469 125.523438 C 180.746094 133.113281 174.898438 142.949219 170.894531 155.679688 C 170.894531 155.679688 173.921875 156.828125 178.964844 157.878906 C 197.570312 161.742188 243.671875 164.195312 266.984375 102.222656 C 266.984375 102.222656 217.585938 92.363281 187.605469 125.523438 " fill-opacity="1" fill-rule="nonzero"/></g><g clip-path="url(#e0f284677d)"><path fill="#94b202" d="M 175.800781 225.4375 C 175.570312 225.171875 175.464844 225.03125 175.324219 224.851562 C 175.183594 224.675781 175.070312 224.519531 174.949219 224.359375 L 174.59375 223.878906 L 174.257812 223.40625 C 173.804688 222.78125 173.398438 222.164062 172.980469 221.539062 C 172.578125 220.917969 172.183594 220.296875 171.796875 219.671875 C 171.421875 219.046875 171.039062 218.421875 170.675781 217.792969 C 169.210938 215.28125 167.921875 212.714844 166.714844 210.128906 C 164.332031 204.945312 162.378906 199.617188 160.859375 194.207031 C 159.335938 188.792969 158.246094 183.296875 157.558594 177.78125 C 156.871094 172.261719 156.585938 166.730469 156.628906 161.226562 C 156.734375 158.476562 156.773438 155.734375 157.042969 153.007812 L 157.207031 150.964844 C 157.238281 150.621094 157.253906 150.28125 157.296875 149.941406 L 157.425781 148.925781 L 157.933594 144.867188 C 158.769531 139.480469 159.769531 134.144531 161.210938 128.9375 C 163.976562 118.492188 167.828125 108.4375 172.484375 98.839844 C 169.007812 108.921875 166.421875 119.265625 164.96875 129.695312 C 164.179688 134.894531 163.839844 140.140625 163.660156 145.34375 L 163.644531 149.253906 L 163.636719 150.226562 C 163.632812 150.550781 163.660156 150.875 163.667969 151.199219 L 163.746094 153.148438 C 163.800781 155.742188 164.078125 158.320312 164.285156 160.886719 C 164.867188 166.019531 165.75 171.085938 166.980469 176.039062 C 168.214844 180.992188 169.796875 185.828125 171.734375 190.488281 C 173.671875 195.140625 175.960938 199.617188 178.554688 203.839844 C 179.867188 205.945312 181.234375 208 182.699219 209.933594 C 183.066406 210.417969 183.441406 210.890625 183.808594 211.371094 C 184.183594 211.835938 184.5625 212.296875 184.941406 212.75 C 185.328125 213.191406 185.707031 213.644531 186.089844 214.054688 L 186.375 214.367188 L 186.652344 214.65625 C 186.746094 214.753906 186.839844 214.855469 186.917969 214.929688 C 186.996094 215.003906 187.105469 215.117188 187.101562 215.09375 L 175.800781 225.4375 " fill-opacity="1" fill-rule="nonzero"/></g><g fill="#2a3202" fill-opacity="1"><g transform="translate(14.002157, 306.849524)"><g><path d="M 6.40625 0 C 5.988281 0 5.628906 -0.144531 5.328125 -0.4375 C 5.035156 -0.726562 4.890625 -1.082031 4.890625 -1.5 L 4.890625 -42.375 C 4.890625 -42.832031 5.023438 -43.207031 5.296875 -43.5 C 5.578125 -43.800781 5.945312 -43.953125 6.40625 -43.953125 L 22.65625 -43.953125 C 27.8125 -43.953125 31.84375 -42.757812 34.75 -40.375 C 37.65625 -37.988281 39.109375 -34.597656 39.109375 -30.203125 C 39.109375 -27.140625 38.375 -24.570312 36.90625 -22.5 C 35.445312 -20.4375 33.398438 -18.941406 30.765625 -18.015625 L 39.859375 -2.015625 C 39.984375 -1.753906 40.046875 -1.519531 40.046875 -1.3125 C 40.046875 -0.9375 39.910156 -0.625 39.640625 -0.375 C 39.367188 -0.125 39.066406 0 38.734375 0 L 32.953125 0 C 32.285156 0 31.765625 -0.15625 31.390625 -0.46875 C 31.015625 -0.78125 30.679688 -1.1875 30.390625 -1.6875 L 22.34375 -16.578125 L 13.75 -16.578125 L 13.75 -1.5 C 13.75 -1.082031 13.601562 -0.726562 13.3125 -0.4375 C 13.019531 -0.144531 12.640625 0 12.171875 0 Z M 22.46875 -23.734375 C 24.988281 -23.734375 26.875 -24.285156 28.125 -25.390625 C 29.382812 -26.503906 30.015625 -28.128906 30.015625 -30.265625 C 30.015625 -32.398438 29.382812 -34.039062 28.125 -35.1875 C 26.875 -36.34375 24.988281 -36.921875 22.46875 -36.921875 L 13.75 -36.921875 L 13.75 -23.734375 Z M 22.46875 -23.734375 "/></g></g></g><g fill="#2a3202" fill-opacity="1"><g transform="translate(56.306439, 306.849524)"><g><path d="M 2.203125 0 C 1.816406 0 1.5 -0.125 1.25 -0.375 C 1 -0.625 0.875 -0.9375 0.875 -1.3125 L 1 -1.890625 L 16.078125 -42.375 C 16.492188 -43.425781 17.242188 -43.953125 18.328125 -43.953125 L 25.234375 -43.953125 C 26.328125 -43.953125 27.082031 -43.425781 27.5 -42.375 L 42.5625 -1.890625 L 42.6875 -1.3125 C 42.6875 -0.9375 42.550781 -0.625 42.28125 -0.375 C 42.007812 -0.125 41.707031 0 41.375 0 L 35.78125 0 C 34.90625 0 34.300781 -0.394531 33.96875 -1.1875 L 31.078125 -8.796875 L 12.5 -8.796875 L 9.609375 -1.1875 C 9.273438 -0.394531 8.664062 0 7.78125 0 Z M 14.6875 -16.078125 L 28.875 -16.078125 L 21.78125 -35.40625 Z M 14.6875 -16.078125 "/></g></g></g><g fill="#2a3202" fill-opacity="1"><g transform="translate(99.866038, 306.849524)"><g><path d="M 21.84375 0.625 C 16.113281 0.625 11.65625 -0.816406 8.46875 -3.703125 C 5.289062 -6.585938 3.617188 -10.878906 3.453125 -16.578125 C 3.410156 -17.785156 3.390625 -19.5625 3.390625 -21.90625 C 3.390625 -24.289062 3.410156 -26.09375 3.453125 -27.3125 C 3.617188 -32.875 5.332031 -37.140625 8.59375 -40.109375 C 11.863281 -43.085938 16.28125 -44.578125 21.84375 -44.578125 C 27.375 -44.578125 31.78125 -43.085938 35.0625 -40.109375 C 38.34375 -37.140625 40.070312 -32.875 40.25 -27.3125 C 40.332031 -24.882812 40.375 -23.082031 40.375 -21.90625 C 40.375 -20.78125 40.332031 -19.003906 40.25 -16.578125 C 40.070312 -10.878906 38.382812 -6.585938 35.1875 -3.703125 C 31.988281 -0.816406 27.539062 0.625 21.84375 0.625 Z M 21.84375 -6.65625 C 24.644531 -6.65625 26.863281 -7.488281 28.5 -9.15625 C 30.132812 -10.832031 31.015625 -13.410156 31.140625 -16.890625 C 31.222656 -19.398438 31.265625 -21.09375 31.265625 -21.96875 C 31.265625 -22.9375 31.222656 -24.632812 31.140625 -27.0625 C 31.015625 -30.488281 30.113281 -33.050781 28.4375 -34.75 C 26.757812 -36.445312 24.5625 -37.296875 21.84375 -37.296875 C 19.082031 -37.296875 16.863281 -36.445312 15.1875 -34.75 C 13.519531 -33.050781 12.644531 -30.488281 12.5625 -27.0625 C 12.519531 -25.84375 12.5 -24.144531 12.5 -21.96875 C 12.5 -19.832031 12.519531 -18.140625 12.5625 -16.890625 C 12.644531 -13.453125 13.507812 -10.882812 15.15625 -9.1875 C 16.8125 -7.5 19.039062 -6.65625 21.84375 -6.65625 Z M 21.84375 -6.65625 "/></g></g></g><g fill="#2a3202" fill-opacity="1"><g transform="translate(143.488405, 306.849524)"><g><path d="M 6.40625 0 C 5.988281 0 5.628906 -0.144531 5.328125 -0.4375 C 5.035156 -0.726562 4.890625 -1.082031 4.890625 -1.5 L 4.890625 -42.375 C 4.890625 -42.832031 5.023438 -43.207031 5.296875 -43.5 C 5.578125 -43.800781 5.945312 -43.953125 6.40625 -43.953125 L 11.296875 -43.953125 C 12.097656 -43.953125 12.707031 -43.59375 13.125 -42.875 L 31.078125 -15 L 31.078125 -42.375 C 31.078125 -42.832031 31.210938 -43.207031 31.484375 -43.5 C 31.753906 -43.800781 32.117188 -43.953125 32.578125 -43.953125 L 37.984375 -43.953125 C 38.441406 -43.953125 38.816406 -43.800781 39.109375 -43.5 C 39.398438 -43.207031 39.546875 -42.832031 39.546875 -42.375 L 39.546875 -1.5625 C 39.546875 -1.101562 39.398438 -0.726562 39.109375 -0.4375 C 38.816406 -0.144531 38.460938 0 38.046875 0 L 33.078125 0 C 32.242188 0 31.617188 -0.351562 31.203125 -1.0625 L 13.3125 -28.3125 L 13.3125 -1.5 C 13.3125 -1.082031 13.175781 -0.726562 12.90625 -0.4375 C 12.632812 -0.144531 12.265625 0 11.796875 0 Z M 6.40625 0 "/></g></g></g><g fill="#2a3202" fill-opacity="1"><g transform="translate(187.863952, 306.849524)"><g><path d="M 2.203125 0 C 1.816406 0 1.5 -0.125 1.25 -0.375 C 1 -0.625 0.875 -0.9375 0.875 -1.3125 L 1 -1.890625 L 16.078125 -42.375 C 16.492188 -43.425781 17.242188 -43.953125 18.328125 -43.953125 L 25.234375 -43.953125 C 26.328125 -43.953125 27.082031 -43.425781 27.5 -42.375 L 42.5625 -1.890625 L 42.6875 -1.3125 C 42.6875 -0.9375 42.550781 -0.625 42.28125 -0.375 C 42.007812 -0.125 41.707031 0 41.375 0 L 35.78125 0 C 34.90625 0 34.300781 -0.394531 33.96875 -1.1875 L 31.078125 -8.796875 L 12.5 -8.796875 L 9.609375 -1.1875 C 9.273438 -0.394531 8.664062 0 7.78125 0 Z M 14.6875 -16.078125 L 28.875 -16.078125 L 21.78125 -35.40625 Z M 14.6875 -16.078125 "/></g></g></g><g fill="#2a3202" fill-opacity="1"><g transform="translate(231.423551, 306.849524)"><g><path d="M 6.40625 0 C 5.988281 0 5.628906 -0.144531 5.328125 -0.4375 C 5.035156 -0.726562 4.890625 -1.082031 4.890625 -1.5 L 4.890625 -42.375 C 4.890625 -42.832031 5.023438 -43.207031 5.296875 -43.5 C 5.578125 -43.800781 5.945312 -43.953125 6.40625 -43.953125 L 22.65625 -43.953125 C 27.8125 -43.953125 31.84375 -42.757812 34.75 -40.375 C 37.65625 -37.988281 39.109375 -34.597656 39.109375 -30.203125 C 39.109375 -27.140625 38.375 -24.570312 36.90625 -22.5 C 35.445312 -20.4375 33.398438 -18.941406 30.765625 -18.015625 L 39.859375 -2.015625 C 39.984375 -1.753906 40.046875 -1.519531 40.046875 -1.3125 C 40.046875 -0.9375 39.910156 -0.625 39.640625 -0.375 C 39.367188 -0.125 39.066406 0 38.734375 0 L 32.953125 0 C 32.285156 0 31.765625 -0.15625 31.390625 -0.46875 C 31.015625 -0.78125 30.679688 -1.1875 30.390625 -1.6875 L 22.34375 -16.578125 L 13.75 -16.578125 L 13.75 -1.5 C 13.75 -1.082031 13.601562 -0.726562 13.3125 -0.4375 C 13.019531 -0.144531 12.640625 0 12.171875 0 Z M 22.46875 -23.734375 C 24.988281 -23.734375 26.875 -24.285156 28.125 -25.390625 C 29.382812 -26.503906 30.015625 -28.128906 30.015625 -30.265625 C 30.015625 -32.398438 29.382812 -34.039062 28.125 -35.1875 C 26.875 -36.34375 24.988281 -36.921875 22.46875 -36.921875 L 13.75 -36.921875 L 13.75 -23.734375 Z M 22.46875 -23.734375 "/></g></g></g><g fill="#2a3202" fill-opacity="1"><g transform="translate(273.727833, 306.849524)"><g><path d="M 6.40625 0 C 5.988281 0 5.628906 -0.144531 5.328125 -0.4375 C 5.035156 -0.726562 4.890625 -1.082031 4.890625 -1.5 L 4.890625 -42.4375 C 4.890625 -42.894531 5.035156 -43.257812 5.328125 -43.53125 C 5.628906 -43.8125 5.988281 -43.953125 6.40625 -43.953125 L 12.4375 -43.953125 C 12.894531 -43.953125 13.257812 -43.8125 13.53125 -43.53125 C 13.800781 -43.257812 13.9375 -42.894531 13.9375 -42.4375 L 13.9375 -1.5 C 13.9375 -1.082031 13.800781 -0.726562 13.53125 -0.4375 C 13.257812 -0.144531 12.894531 0 12.4375 0 Z M 6.40625 0 "/></g></g></g><g fill="#2a3202" fill-opacity="1"><g transform="translate(292.55765, 306.849524)"><g><path d="M 2.203125 0 C 1.816406 0 1.5 -0.125 1.25 -0.375 C 1 -0.625 0.875 -0.9375 0.875 -1.3125 L 1 -1.890625 L 16.078125 -42.375 C 16.492188 -43.425781 17.242188 -43.953125 18.328125 -43.953125 L 25.234375 -43.953125 C 26.328125 -43.953125 27.082031 -43.425781 27.5 -42.375 L 42.5625 -1.890625 L 42.6875 -1.3125 C 42.6875 -0.9375 42.550781 -0.625 42.28125 -0.375 C 42.007812 -0.125 41.707031 0 41.375 0 L 35.78125 0 C 34.90625 0 34.300781 -0.394531 33.96875 -1.1875 L 31.078125 -8.796875 L 12.5 -8.796875 L 9.609375 -1.1875 C 9.273438 -0.394531 8.664062 0 7.78125 0 Z M 14.6875 -16.078125 L 28.875 -16.078125 L 21.78125 -35.40625 Z M 14.6875 -16.078125 "/></g></g></g><g fill="#839d05" fill-opacity="1"><g transform="translate(68.354452, 353.607364)"><g><path d="M 6.574219 -1.734375 C 5.554688 -1.734375 5.121094 -1.273438 5.121094 -0.0507812 L 5.121094 1.453125 C 5.121094 2.699219 5.707031 3.183594 7.414062 3.109375 L 15.921875 3.109375 C 16.507812 3.109375 17.300781 2.496094 17.121094 1.785156 C 16.839844 0.867188 16.304688 0.867188 15.617188 0.890625 C 14.75 1.070312 14.140625 1.09375 13.578125 1.09375 L 7.542969 1.09375 L 7.542969 0.078125 L 13.9375 0.078125 C 15.566406 0.152344 16.230469 -0.355469 16.230469 -1.578125 L 16.230469 -2.957031 C 16.230469 -4.253906 15.542969 -4.714844 13.9375 -4.714844 L 7.921875 -4.714844 C 6.929688 -4.714844 6.445312 -4.6875 5.757812 -4.867188 C 5.25 -4.890625 4.992188 -4.484375 4.96875 -4 C 4.941406 -3.515625 5.09375 -2.980469 5.503906 -2.855469 C 5.679688 -2.75 5.785156 -2.675781 5.988281 -2.648438 C 6.164062 -2.625 6.445312 -2.574219 7.058594 -2.648438 L 13.785156 -2.648438 L 13.785156 -1.734375 Z M 15.363281 -14.242188 C 16.253906 -14.242188 16.714844 -14.523438 16.941406 -15.03125 C 17.375 -16.050781 16.714844 -16.433594 15.71875 -16.355469 L 7.515625 -16.355469 C 6.445312 -16.355469 6.039062 -16.355469 5.351562 -16.484375 C 4.839844 -16.585938 4.5625 -16.128906 4.5625 -15.617188 C 4.535156 -15.109375 4.789062 -14.523438 5.273438 -14.421875 L 5.375 -14.320312 C 5.402344 -14.292969 5.476562 -14.269531 5.578125 -14.242188 C 5.757812 -14.214844 6.0625 -14.164062 6.648438 -14.242188 L 9.375 -14.242188 C 9.070312 -13.65625 8.457031 -13.09375 7.515625 -12.5625 C 6.597656 -12.050781 5.554688 -11.566406 4.433594 -11.132812 C 4.078125 -11.007812 3.898438 -10.800781 3.898438 -10.472656 C 3.921875 -10.140625 3.972656 -9.9375 4.078125 -9.808594 C 4.382812 -9.425781 4.765625 -9.222656 5.527344 -9.527344 C 6.496094 -9.835938 7.492188 -10.214844 8.484375 -10.675781 C 9.476562 -11.132812 10.242188 -11.71875 10.800781 -12.433594 C 11.695312 -11.007812 13.707031 -10.039062 16.28125 -9.324219 C 16.765625 -9.148438 17.199219 -9.605469 17.375 -10.140625 C 17.476562 -10.648438 17.402344 -11.234375 16.867188 -11.414062 C 15.847656 -11.644531 14.800781 -12.078125 13.886719 -12.5625 C 13.019531 -13.070312 12.332031 -13.628906 12.050781 -14.242188 Z M 18.191406 -6.320312 C 19.183594 -6.320312 19.71875 -6.472656 19.921875 -7.082031 C 20.28125 -8 19.71875 -8.507812 18.726562 -8.433594 L 4.484375 -8.433594 C 3.464844 -8.433594 2.980469 -8.433594 2.292969 -8.5625 C 1.785156 -8.636719 1.503906 -8.179688 1.503906 -7.667969 C 1.503906 -7.132812 1.734375 -6.574219 2.214844 -6.394531 C 2.320312 -6.371094 2.371094 -6.320312 2.523438 -6.292969 C 2.726562 -6.269531 3.03125 -6.242188 3.644531 -6.320312 Z M 18.191406 -6.320312 "/></g></g></g><g fill="#839d05" fill-opacity="1"><g transform="translate(88.813202, 353.607364)"><g><path d="M 18.292969 -16.078125 C 18.292969 -16.5625 17.65625 -16.839844 17.042969 -16.917969 C 16.40625 -16.941406 15.71875 -16.738281 15.59375 -16.230469 C 15.492188 -15.796875 15.542969 -15.59375 15.644531 -15.414062 C 15.71875 -15.210938 15.847656 -15.082031 15.847656 -14.777344 L 15.847656 -9.578125 L 12.179688 -9.578125 C 11.695312 -9.578125 11.515625 -9.070312 11.515625 -8.355469 C 11.515625 -8.078125 11.644531 -7.796875 11.921875 -7.515625 C 12.203125 -7.261719 12.433594 -7.132812 12.5625 -7.132812 L 15.847656 -7.132812 L 15.847656 1.402344 C 15.847656 1.628906 15.898438 1.9375 16 2.292969 C 16.128906 2.648438 16.28125 2.828125 16.5625 2.828125 C 16.96875 2.828125 17.402344 2.855469 17.707031 2.675781 C 18.039062 2.472656 18.292969 2.089844 18.292969 1.199219 Z M 5.121094 -14.828125 L 4.101562 -14.828125 C 3.746094 -14.828125 3.414062 -14.855469 3.058594 -14.90625 C 2.546875 -14.980469 2.292969 -14.472656 2.265625 -13.9375 C 2.242188 -13.351562 2.472656 -12.765625 2.957031 -12.585938 C 3.285156 -12.457031 3.898438 -12.40625 4.28125 -12.40625 L 8.816406 -12.5625 C 8.738281 -11.03125 8 -9.324219 6.828125 -7.667969 C 5.628906 -6.011719 4 -4.382812 2.214844 -3.132812 C 1.808594 -2.828125 2.039062 -2.34375 2.472656 -2.039062 C 2.929688 -1.757812 3.644531 -1.65625 4.304688 -2.089844 C 5.910156 -3.132812 7.566406 -4.664062 8.890625 -6.523438 C 10.214844 -8.355469 11.210938 -10.523438 11.414062 -12.839844 C 11.542969 -14.164062 11.109375 -15.082031 9.988281 -14.957031 Z M 5.121094 -14.828125 "/></g></g></g><g fill="#839d05" fill-opacity="1"><g transform="translate(108.303787, 353.607364)"><g><path d="M 10.597656 -8.382812 C 14.496094 -8.382812 16.535156 -9.9375 16.535156 -12.484375 C 16.535156 -15.007812 14.496094 -16.585938 10.597656 -16.585938 C 6.699219 -16.585938 4.664062 -15.007812 4.664062 -12.484375 C 4.664062 -9.9375 6.699219 -8.382812 10.597656 -8.382812 Z M 7.183594 -12.484375 C 7.183594 -13.605469 8.507812 -14.34375 10.597656 -14.34375 C 12.664062 -14.34375 14.011719 -13.605469 14.011719 -12.484375 C 14.011719 -11.335938 12.6875 -10.625 10.597656 -10.625 C 8.484375 -10.625 7.183594 -11.335938 7.183594 -12.484375 Z M 18.214844 -4 C 19.183594 -4 19.71875 -4.179688 19.921875 -4.789062 C 20.28125 -5.808594 19.695312 -6.191406 18.699219 -6.089844 L 4.484375 -6.089844 C 3.464844 -6.089844 2.980469 -6.089844 2.292969 -6.214844 C 1.785156 -6.320312 1.503906 -5.859375 1.503906 -5.351562 C 1.503906 -4.839844 1.734375 -4.253906 2.214844 -4.128906 C 2.320312 -4.101562 2.371094 -4.050781 2.523438 -3.972656 C 2.726562 -3.949219 3.03125 -3.921875 3.644531 -4 L 9.65625 -4 L 9.65625 -2.039062 C 9.65625 -1.835938 9.679688 -1.503906 9.785156 -1.199219 C 9.886719 -0.890625 10.0625 -0.664062 10.394531 -0.664062 C 10.699219 -0.664062 11.109375 -0.636719 11.386719 -0.816406 C 11.695312 -1.019531 11.949219 -1.402344 11.949219 -2.292969 L 11.949219 -4 Z M 7.414062 -2.039062 C 7.414062 -2.523438 6.800781 -2.777344 6.191406 -2.855469 C 5.554688 -2.878906 4.890625 -2.699219 4.765625 -2.191406 C 4.585938 -1.785156 4.664062 -1.605469 4.765625 -1.402344 C 4.867188 -1.222656 4.992188 -1.070312 4.992188 -0.6875 L 4.992188 1.605469 C 4.992188 2.75 5.554688 3.261719 7.261719 3.183594 L 16.128906 3.183594 C 16.40625 3.183594 16.714844 3.03125 16.992188 2.699219 C 17.300781 2.394531 17.402344 2.0625 17.324219 1.679688 C 17.042969 0.789062 16.433594 0.664062 15.820312 0.6875 C 14.957031 0.816406 14.320312 0.867188 13.734375 0.867188 L 7.414062 0.867188 Z M 7.414062 -2.039062 "/></g></g></g><g fill="#839d05" fill-opacity="1"><g transform="translate(128.762537, 353.607364)"><g/></g></g><g fill="#839d05" fill-opacity="1"><g transform="translate(134.112888, 353.607364)"><g><path d="M 4.816406 -11.746094 C 4.816406 -9.09375 6.675781 -7.210938 10.855469 -7.210938 C 14.957031 -7.210938 16.867188 -9.09375 16.867188 -11.746094 C 16.867188 -14.371094 14.957031 -16.253906 10.855469 -16.253906 C 6.675781 -16.253906 4.816406 -14.371094 4.816406 -11.746094 Z M 10.855469 -14.0625 C 13.453125 -14.0625 14.394531 -13.375 14.394531 -11.746094 C 14.394531 -10.089844 13.453125 -9.402344 10.855469 -9.402344 C 8.230469 -9.402344 7.261719 -10.089844 7.261719 -11.746094 C 7.261719 -13.375 8.230469 -14.0625 10.855469 -14.0625 Z M 6.957031 -2.523438 L 6.957031 1.9375 C 6.957031 2.140625 7.007812 2.421875 7.082031 2.75 C 7.183594 3.109375 7.414062 3.285156 7.71875 3.285156 C 8.078125 3.285156 8.433594 3.183594 8.789062 2.957031 C 9.171875 2.75 9.351562 2.242188 9.351562 1.402344 L 9.351562 -2.523438 L 12.6875 -2.523438 L 12.6875 1.9375 C 12.6875 2.140625 12.738281 2.421875 12.839844 2.75 C 12.96875 3.109375 13.171875 3.285156 13.453125 3.285156 C 13.835938 3.285156 14.214844 3.183594 14.574219 2.957031 C 14.957031 2.75 15.109375 2.242188 15.109375 1.402344 L 15.109375 -2.523438 L 18.242188 -2.523438 C 19.160156 -2.523438 19.71875 -2.75 19.921875 -3.363281 C 20.28125 -4.304688 19.71875 -4.789062 18.726562 -4.765625 L 4.484375 -4.765625 C 3.464844 -4.765625 2.980469 -4.765625 2.292969 -4.867188 C 1.785156 -4.941406 1.503906 -4.484375 1.503906 -3.949219 C 1.503906 -3.441406 1.734375 -2.855469 2.214844 -2.675781 C 2.320312 -2.597656 2.371094 -2.546875 2.523438 -2.523438 C 2.726562 -2.445312 3.03125 -2.445312 3.644531 -2.523438 Z M 6.957031 -2.523438 "/></g></g></g><g fill="#839d05" fill-opacity="1"><g transform="translate(154.571637, 353.607364)"><g><path d="M 5.707031 -13.503906 C 4.992188 -13.503906 4.304688 -13.503906 3.617188 -13.628906 C 3.109375 -13.734375 2.828125 -13.25 2.800781 -12.664062 C 2.726562 -12.128906 2.957031 -11.464844 3.441406 -11.335938 C 3.820312 -11.132812 4.382812 -11.109375 4.867188 -11.109375 L 8.738281 -11.285156 C 8.253906 -10.039062 7.261719 -8.613281 6.0625 -7.285156 C 4.867188 -5.960938 3.441406 -4.738281 2.140625 -3.820312 C 1.757812 -3.515625 1.835938 -2.957031 2.164062 -2.546875 C 2.523438 -2.164062 3.132812 -1.960938 3.847656 -2.472656 C 5.042969 -3.285156 6.726562 -4.714844 7.949219 -6.164062 C 8.917969 -4.917969 10.269531 -3.542969 11.464844 -2.828125 C 11.898438 -2.597656 12.457031 -3.007812 12.738281 -3.542969 C 13.042969 -4.078125 13.148438 -4.765625 12.664062 -5.070312 C 11.464844 -5.785156 10.214844 -6.828125 9.425781 -8.027344 C 10.113281 -9.042969 10.90625 -10.242188 11.3125 -11.542969 C 11.542969 -12.179688 11.515625 -12.714844 11.210938 -13.148438 C 10.878906 -13.578125 10.445312 -13.757812 9.9375 -13.683594 L 8.433594 -13.605469 L 8.433594 -15.847656 C 8.433594 -16.28125 7.871094 -16.585938 7.285156 -16.585938 C 6.675781 -16.613281 6.0625 -16.40625 5.9375 -15.898438 C 5.757812 -15.492188 5.835938 -15.335938 5.9375 -15.160156 C 6.011719 -15.03125 6.164062 -14.90625 6.164062 -14.625 L 6.164062 -13.527344 Z M 18.140625 -16.078125 C 18.140625 -16.5625 17.527344 -16.839844 16.941406 -16.917969 C 16.332031 -16.941406 15.695312 -16.765625 15.59375 -16.253906 C 15.464844 -15.769531 15.492188 -15.59375 15.566406 -15.414062 C 15.667969 -15.210938 15.769531 -15.058594 15.769531 -14.726562 L 15.769531 1.375 C 15.769531 1.628906 15.820312 1.9375 15.949219 2.292969 C 16.078125 2.648438 16.253906 2.828125 16.585938 2.828125 C 16.890625 2.828125 17.300781 2.855469 17.578125 2.675781 C 17.886719 2.472656 18.140625 2.089844 18.140625 1.199219 Z M 18.140625 -16.078125 "/></g></g></g><g fill="#839d05" fill-opacity="1"><g transform="translate(174.062222, 353.607364)"><g><path d="M 3.058594 -12.789062 C 3.058594 -11.441406 3.542969 -10.472656 4.507812 -9.886719 C 5.476562 -9.300781 6.726562 -9.019531 8.253906 -9.019531 C 9.757812 -9.019531 11.007812 -9.300781 11.976562 -9.886719 C 12.941406 -10.472656 13.453125 -11.441406 13.453125 -12.789062 C 13.453125 -14.113281 12.941406 -15.058594 11.976562 -15.644531 C 11.007812 -16.230469 9.757812 -16.535156 8.253906 -16.535156 C 6.726562 -16.535156 5.476562 -16.230469 4.507812 -15.644531 C 3.542969 -15.058594 3.058594 -14.113281 3.058594 -12.789062 Z M 8.253906 -14.34375 C 9.988281 -14.34375 10.980469 -14.039062 10.980469 -12.789062 C 10.980469 -11.464844 9.988281 -11.210938 8.253906 -11.210938 C 6.472656 -11.210938 5.527344 -11.464844 5.527344 -12.789062 C 5.527344 -14.039062 6.472656 -14.34375 8.253906 -14.34375 Z M 13.25 -5.960938 C 14.214844 -5.960938 14.675781 -6.242188 14.90625 -6.75 C 15.285156 -7.746094 14.675781 -8.253906 13.65625 -8.152344 L 4.867188 -8.152344 C 3.769531 -8.152344 3.386719 -8.128906 2.675781 -8.304688 C 2.164062 -8.40625 1.886719 -7.921875 1.886719 -7.414062 C 1.859375 -6.878906 2.113281 -6.269531 2.597656 -6.140625 C 2.675781 -6.0625 2.726562 -5.988281 2.90625 -5.960938 C 3.082031 -5.886719 3.386719 -5.886719 4 -5.960938 L 7.234375 -5.960938 L 7.234375 -4.203125 C 7.234375 -4 7.285156 -3.71875 7.386719 -3.335938 C 7.492188 -2.980469 7.695312 -2.800781 8 -2.800781 C 8.382812 -2.800781 8.765625 -2.777344 9.09375 -2.957031 C 9.402344 -3.160156 9.65625 -3.542969 9.65625 -4.382812 L 9.65625 -5.960938 Z M 18.140625 -16.230469 C 18.140625 -16.714844 17.503906 -16.992188 16.890625 -17.070312 C 16.253906 -17.097656 15.566406 -16.917969 15.441406 -16.40625 C 15.261719 -15.921875 15.335938 -15.71875 15.441406 -15.542969 C 15.542969 -15.363281 15.695312 -15.234375 15.695312 -14.929688 L 15.695312 -5.453125 L 11.617188 -5.453125 C 11.160156 -5.453125 10.828125 -5.300781 10.828125 -4.5625 C 10.828125 -3.871094 11.566406 -3.261719 11.871094 -3.261719 L 15.695312 -3.261719 L 15.695312 -2.371094 C 15.695312 -2.164062 15.746094 -1.808594 15.847656 -1.503906 C 15.976562 -1.199219 16.152344 -0.941406 16.40625 -0.941406 C 16.789062 -0.941406 17.222656 -0.917969 17.527344 -1.09375 C 17.859375 -1.300781 18.140625 -1.679688 18.140625 -2.574219 Z M 7.972656 -1.734375 C 7.972656 -2.214844 7.363281 -2.472656 6.726562 -2.496094 C 6.113281 -2.523438 5.425781 -2.292969 5.324219 -1.808594 C 5.199219 -1.402344 5.25 -1.199219 5.324219 -1.019531 C 5.402344 -0.839844 5.527344 -0.664062 5.527344 -0.332031 L 5.527344 1.65625 C 5.527344 2.878906 6.164062 3.261719 7.820312 3.234375 L 17.453125 3.234375 C 18.039062 3.234375 18.699219 2.574219 18.574219 1.859375 C 18.394531 0.867188 17.707031 0.890625 17.121094 0.917969 C 16.230469 1.09375 15.542969 1.121094 15.007812 1.121094 L 7.972656 1.121094 Z M 7.972656 -1.734375 "/></g></g></g><g fill="#839d05" fill-opacity="1"><g transform="translate(195.030527, 353.607364)"><g><path d="M 7.972656 -13.019531 C 9.910156 -13.019531 10.929688 -11.871094 10.929688 -10.34375 C 10.929688 -8.816406 9.910156 -7.667969 7.972656 -7.667969 C 5.988281 -7.667969 4.992188 -8.816406 4.992188 -10.34375 C 4.992188 -11.871094 5.988281 -13.019531 7.972656 -13.019531 Z M 2.523438 -10.34375 C 2.523438 -9.199219 2.957031 -7.972656 3.847656 -7.03125 C 4.765625 -6.113281 6.113281 -5.476562 7.972656 -5.476562 C 9.808594 -5.476562 11.183594 -6.113281 12.078125 -7.03125 C 12.941406 -7.972656 13.402344 -9.199219 13.402344 -10.34375 C 13.402344 -11.464844 12.941406 -12.6875 12.078125 -13.628906 C 11.183594 -14.546875 9.808594 -15.210938 7.972656 -15.210938 C 6.113281 -15.210938 4.765625 -14.546875 3.847656 -13.628906 C 2.957031 -12.6875 2.523438 -11.464844 2.523438 -10.34375 Z M 13.222656 -0.839844 C 14.214844 -0.839844 14.675781 -1.121094 14.878906 -1.65625 C 15.261719 -2.675781 14.648438 -3.160156 13.65625 -3.058594 L 4.355469 -3.058594 C 3.363281 -3.058594 2.90625 -3.03125 2.242188 -3.210938 C 1.707031 -3.285156 1.453125 -2.828125 1.425781 -2.292969 C 1.425781 -1.757812 1.628906 -1.148438 2.113281 -1.019531 C 2.191406 -0.941406 2.214844 -0.917969 2.421875 -0.839844 C 2.574219 -0.816406 2.878906 -0.765625 3.492188 -0.839844 Z M 18.0625 -16.078125 C 18.0625 -16.5625 17.476562 -16.839844 16.867188 -16.917969 C 16.230469 -16.941406 15.566406 -16.765625 15.441406 -16.253906 C 15.3125 -15.769531 15.363281 -15.59375 15.464844 -15.414062 C 15.566406 -15.234375 15.695312 -15.058594 15.695312 -14.726562 L 15.695312 1.375 C 15.695312 1.628906 15.746094 1.9375 15.820312 2.292969 C 15.921875 2.648438 16.128906 2.828125 16.40625 2.828125 C 16.789062 2.828125 17.199219 2.855469 17.503906 2.675781 C 17.808594 2.472656 18.0625 2.089844 18.0625 1.199219 Z M 18.0625 -16.078125 "/></g></g></g><g fill="#839d05" fill-opacity="1"><g transform="translate(221.349183, 353.607364)"><g><path d="M 4.816406 -10.34375 C 4.816406 -9.019531 5.25 -7.769531 6.242188 -6.855469 C 6.421875 -6.675781 6.625 -6.523438 6.855469 -6.371094 L 6.855469 -2.0625 L 4.382812 -2.0625 C 3.414062 -2.0625 2.980469 -2.0625 2.292969 -2.191406 C 1.785156 -2.292969 1.503906 -1.808594 1.503906 -1.300781 C 1.503906 -0.765625 1.734375 -0.152344 2.214844 -0.0273438 C 2.320312 0.0507812 2.371094 0.128906 2.523438 0.152344 C 2.726562 0.230469 3.03125 0.230469 3.644531 0.152344 L 18.191406 0.152344 C 19.183594 0.152344 19.71875 -0.128906 19.921875 -0.636719 C 20.28125 -1.628906 19.71875 -2.164062 18.699219 -2.0625 L 15.03125 -2.0625 L 15.03125 -6.546875 L 15.390625 -6.855469 C 16.382812 -7.769531 16.867188 -9.019531 16.867188 -10.34375 C 16.867188 -11.644531 16.382812 -12.890625 15.390625 -13.808594 C 14.421875 -14.726562 12.917969 -15.3125 10.855469 -15.3125 C 8.738281 -15.3125 7.261719 -14.726562 6.242188 -13.808594 C 5.25 -12.890625 4.816406 -11.644531 4.816406 -10.34375 Z M 10.855469 -13.121094 C 13.425781 -13.121094 14.394531 -11.976562 14.394531 -10.34375 C 14.394531 -8.6875 13.425781 -7.566406 10.855469 -7.566406 C 8.253906 -7.566406 7.261719 -8.6875 7.261719 -10.34375 C 7.261719 -11.976562 8.253906 -13.121094 10.855469 -13.121094 Z M 9.25 -2.0625 L 9.25 -5.476562 C 9.734375 -5.402344 10.269531 -5.375 10.855469 -5.375 C 11.464844 -5.375 12.078125 -5.425781 12.585938 -5.527344 L 12.585938 -2.0625 Z M 9.25 -2.0625 "/></g></g></g><g fill="#839d05" fill-opacity="1"><g transform="translate(241.807933, 353.607364)"><g><path d="M 6.214844 -0.765625 C 6.214844 0.535156 6.90625 1.578125 8 2.292969 C 9.09375 3.007812 10.625 3.386719 12.304688 3.386719 C 13.910156 3.386719 15.441406 3.007812 16.5625 2.292969 C 17.65625 1.578125 18.394531 0.535156 18.394531 -0.765625 C 18.394531 -2.011719 17.65625 -3.058594 16.5625 -3.796875 C 15.441406 -4.507812 13.910156 -4.917969 12.304688 -4.917969 C 10.625 -4.917969 9.09375 -4.507812 8 -3.796875 C 6.90625 -3.058594 6.214844 -2.011719 6.214844 -0.765625 Z M 5.9375 -16.050781 C 5.222656 -16.050781 4.535156 -16.027344 3.847656 -16.203125 C 3.363281 -16.28125 3.058594 -15.769531 3.03125 -15.234375 C 3.007812 -14.648438 3.183594 -14.011719 3.667969 -13.886719 C 4.050781 -13.683594 4.636719 -13.65625 5.019531 -13.65625 L 8.738281 -13.835938 C 8.203125 -12.636719 7.210938 -11.464844 6.089844 -10.421875 C 4.917969 -9.375 3.542969 -8.40625 2.242188 -7.769531 C 1.757812 -7.566406 1.785156 -7.007812 2.089844 -6.597656 C 2.394531 -6.191406 2.980469 -5.910156 3.71875 -6.292969 C 5.121094 -7.007812 6.75 -8.027344 7.949219 -9.171875 C 8.917969 -8.152344 10.472656 -7.234375 11.796875 -6.699219 C 12.203125 -6.496094 12.789062 -6.929688 13.09375 -7.515625 C 13.425781 -8.050781 13.503906 -8.738281 12.917969 -8.941406 C 11.617188 -9.351562 10.421875 -10.011719 9.628906 -11.007812 C 10.292969 -11.71875 10.980469 -12.839844 11.386719 -14.140625 C 11.796875 -15.390625 11.03125 -16.40625 9.960938 -16.230469 Z M 18.242188 -16.382812 C 18.242188 -16.867188 17.628906 -17.148438 17.042969 -17.222656 C 16.40625 -17.25 15.746094 -17.070312 15.617188 -16.5625 C 15.492188 -16.128906 15.542969 -15.921875 15.617188 -15.746094 L 15.769531 -15.492188 C 15.820312 -15.414062 15.847656 -15.285156 15.847656 -15.132812 L 15.847656 -12.585938 L 12.96875 -12.585938 C 12.484375 -12.585938 12.355469 -12.101562 12.355469 -11.363281 C 12.355469 -11.109375 12.484375 -10.855469 12.738281 -10.597656 C 13.019531 -10.34375 13.25 -10.214844 13.402344 -10.214844 L 15.847656 -10.214844 L 15.847656 -6.320312 C 15.847656 -6.089844 15.898438 -5.808594 15.976562 -5.453125 C 16.078125 -5.09375 16.253906 -4.917969 16.585938 -4.917969 C 16.96875 -4.917969 17.375 -4.890625 17.683594 -5.09375 C 17.988281 -5.273438 18.242188 -5.679688 18.242188 -6.574219 Z M 12.304688 -2.648438 C 14.394531 -2.648438 15.871094 -1.988281 15.871094 -0.765625 C 15.871094 0.535156 14.394531 1.148438 12.304688 1.148438 C 10.164062 1.148438 8.738281 0.535156 8.738281 -0.765625 C 8.738281 -1.988281 10.164062 -2.648438 12.304688 -2.648438 Z M 12.304688 -2.648438 "/></g></g></g><g fill="#839d05" fill-opacity="1"><g transform="translate(261.298518, 353.607364)"><g><path d="M 15.464844 -14.269531 C 16.101562 -14.269531 16.816406 -14.957031 16.636719 -15.695312 C 16.457031 -16.585938 15.796875 -16.664062 15.160156 -16.5625 C 14.34375 -16.382812 13.65625 -16.355469 13.070312 -16.355469 L 6.242188 -16.355469 C 5.121094 -16.355469 4.714844 -15.976562 4.714844 -14.75 L 4.714844 -11.617188 C 4.714844 -10.421875 5.273438 -9.859375 6.957031 -9.9375 L 15.746094 -9.9375 C 16.332031 -9.9375 17.097656 -10.625 16.917969 -11.363281 C 16.6875 -12.253906 16.128906 -12.332031 15.414062 -12.230469 C 14.546875 -12.101562 13.9375 -12.050781 13.375 -12.050781 L 7.132812 -12.050781 L 7.132812 -14.269531 Z M 18.191406 -6.472656 C 19.183594 -6.472656 19.71875 -6.675781 19.921875 -7.285156 C 20.28125 -8.203125 19.695312 -8.636719 18.699219 -8.535156 L 4.484375 -8.535156 C 3.464844 -8.535156 2.980469 -8.535156 2.292969 -8.664062 C 1.785156 -8.738281 1.503906 -8.304688 1.503906 -7.820312 C 1.503906 -7.3125 1.734375 -6.75 2.214844 -6.625 C 2.320312 -6.546875 2.371094 -6.496094 2.523438 -6.472656 C 2.726562 -6.445312 3.007812 -6.394531 3.617188 -6.472656 Z M 6.625 -1.785156 C 5.605469 -1.785156 5.121094 -1.324219 5.121094 -0.128906 L 5.121094 1.453125 C 5.121094 2.699219 5.785156 3.183594 7.414062 3.109375 L 16.179688 3.109375 C 16.765625 3.109375 17.527344 2.496094 17.375 1.785156 C 17.070312 0.867188 16.507812 0.890625 15.847656 0.992188 C 15.007812 1.171875 14.394531 1.199219 13.785156 1.199219 L 7.542969 1.199219 L 7.542969 0.128906 L 14.191406 0.128906 C 15.796875 0.152344 16.457031 -0.304688 16.457031 -1.527344 L 16.457031 -3.058594 C 16.457031 -4.355469 15.796875 -4.714844 14.191406 -4.714844 L 8.152344 -4.714844 C 7.160156 -4.714844 6.699219 -4.714844 6.011719 -4.816406 C 5.476562 -4.890625 5.222656 -4.507812 5.199219 -4.027344 C 5.199219 -3.59375 5.425781 -3.03125 5.910156 -2.90625 C 6.011719 -2.828125 6.0625 -2.75 6.242188 -2.726562 C 6.421875 -2.699219 6.726562 -2.675781 7.335938 -2.75 L 14.039062 -2.75 L 14.039062 -1.785156 Z M 6.625 -1.785156 "/></g></g></g></svg>