<svg xmlns="http://www.w3.org/2000/svg" xmlns:xlink="http://www.w3.org/1999/xlink" width="820" zoomAndPan="magnify" viewBox="0 0 615 884.999995" height="1180" preserveAspectRatio="xMidYMid meet" version="1.0"><defs><clipPath id="e9f4f8aa6e"><path d="M 575 8.21875 L 614.746094 8.21875 L 614.746094 39.671875 L 575 39.671875 Z M 575 8.21875 " clip-rule="nonzero"/></clipPath><clipPath id="8f7ccb0b25"><path d="M 575 0.105469 L 614.746094 0.105469 L 614.746094 22.421875 L 575 22.421875 Z M 575 0.105469 " clip-rule="nonzero"/></clipPath><clipPath id="97d153e90f"><path d="M 590.617188 57 L 614.746094 57 L 614.746094 70 L 590.617188 70 Z M 590.617188 57 " clip-rule="nonzero"/></clipPath><clipPath id="9f20184fa6"><path d="M 575.394531 40 L 614 40 L 614 79 L 575.394531 79 Z M 575.394531 40 " clip-rule="nonzero"/></clipPath><clipPath id="219bf1b403"><path d="M 496.023438 7 L 536 7 L 536 40 L 496.023438 40 Z M 496.023438 7 " clip-rule="nonzero"/></clipPath><clipPath id="5ec39c4a33"><path d="M 496.253906 0.105469 L 535.824219 0.105469 L 535.824219 16.335938 L 496.253906 16.335938 Z M 496.253906 0.105469 " clip-rule="nonzero"/></clipPath><clipPath id="1b4db4a17c"><path d="M 574.382812 79.242188 L 614.746094 79.242188 L 614.746094 98.519531 L 574.382812 98.519531 Z M 574.382812 79.242188 " clip-rule="nonzero"/></clipPath><clipPath id="11c60245e2"><path d="M 584 95 L 606 95 L 606 114.75 L 584 114.75 Z M 584 95 " clip-rule="nonzero"/></clipPath><clipPath id="82a3cfa542"><path d="M 0.25 845.5 L 40 845.5 L 40 876.808594 L 0.25 876.808594 Z M 0.25 845.5 " clip-rule="nonzero"/></clipPath><clipPath id="9e030f2230"><path d="M 0.25 862.667969 L 40 862.667969 L 40 884.660156 L 0.25 884.660156 Z M 0.25 862.667969 " clip-rule="nonzero"/></clipPath><clipPath id="8bf0d4b3d6"><path d="M 0.25 815.199219 L 24.269531 815.199219 L 24.269531 828 L 0.25 828 Z M 0.25 815.199219 " clip-rule="nonzero"/></clipPath><clipPath id="2650ac1ca1"><path d="M 0.25 806.109375 L 39.417969 806.109375 L 39.417969 845 L 0.25 845 Z M 0.25 806.109375 " clip-rule="nonzero"/></clipPath><clipPath id="cbd3ed815f"><path d="M 79 845 L 118.429688 845 L 118.429688 878 L 79 878 Z M 79 845 " clip-rule="nonzero"/></clipPath><clipPath id="6454129ae9"><path d="M 79 868.726562 L 118.195312 868.726562 L 118.195312 884.660156 L 79 884.660156 Z M 79 868.726562 " clip-rule="nonzero"/></clipPath><clipPath id="6f2cea1514"><path d="M 0.25 787 L 40.429688 787 L 40.429688 806 L 0.25 806 Z M 0.25 787 " clip-rule="nonzero"/></clipPath><clipPath id="9a803a870b"><path d="M 9 770.660156 L 30 770.660156 L 30 790 L 9 790 Z M 9 770.660156 " clip-rule="nonzero"/></clipPath><clipPath id="72fb73f9d7"><path d="M 534 870.210938 L 549.644531 870.210938 L 549.644531 884.664062 L 534 884.664062 Z M 534 870.210938 " clip-rule="nonzero"/></clipPath><clipPath id="ee6065103a"><path d="M 547 853 L 567 853 L 567 884.664062 L 547 884.664062 Z M 547 853 " clip-rule="nonzero"/></clipPath><clipPath id="0695097ba8"><path d="M 580 761.664062 L 608 761.664062 L 608 793 L 580 793 Z M 580 761.664062 " clip-rule="nonzero"/></clipPath><clipPath id="e33542b42b"><path d="M 567 768.660156 L 614.785156 768.660156 L 614.785156 808 L 567 808 Z M 567 768.660156 " clip-rule="nonzero"/></clipPath><clipPath id="4f9f5c1c29"><path d="M 65.351562 0.328125 L 81 0.328125 L 81 14.78125 L 65.351562 14.78125 Z M 65.351562 0.328125 " clip-rule="nonzero"/></clipPath><clipPath id="7f8b51a131"><path d="M 48 0.328125 L 68 0.328125 L 68 32 L 48 32 Z M 48 0.328125 " clip-rule="nonzero"/></clipPath><clipPath id="6c4c0859f2"><path d="M 7 92 L 35 92 L 35 123 L 7 123 Z M 7 92 " clip-rule="nonzero"/></clipPath><clipPath id="52bbd13d0b"><path d="M 0.210938 77 L 48 77 L 48 116.332031 L 0.210938 116.332031 Z M 0.210938 77 " clip-rule="nonzero"/></clipPath></defs><g clip-path="url(#e9f4f8aa6e)"><path fill="#8c52ff" d="M 602.460938 19.414062 C 606.328125 20.722656 610.316406 21.96875 614.378906 22.90625 L 614.378906 38.335938 C 614.378906 38.847656 613.964844 39.261719 613.453125 39.261719 L 576.105469 39.261719 C 575.59375 39.261719 575.179688 38.847656 575.179688 38.335938 L 575.179688 8.570312 C 584.078125 12.644531 593.222656 16.289062 602.460938 19.414062 " fill-opacity="1" fill-rule="nonzero"/></g><g clip-path="url(#8f7ccb0b25)"><path fill="#8c52ff" d="M 602.625 18.933594 C 593.332031 15.789062 584.128906 12.121094 575.179688 8.015625 L 575.179688 0.984375 C 575.179688 0.472656 575.59375 0.0625 576.105469 0.0625 L 613.453125 0.0625 C 613.964844 0.0625 614.378906 0.472656 614.378906 0.984375 L 614.378906 22.382812 C 610.378906 21.457031 606.441406 20.226562 602.625 18.933594 " fill-opacity="1" fill-rule="nonzero"/></g><path fill="#38b6ff" d="M 538.824219 62.148438 C 539.675781 61.566406 540.484375 61.019531 541.304688 60.539062 C 544.933594 58.417969 548.113281 57.777344 550.753906 58.625 C 554.707031 59.902344 556.617188 63.375 556.765625 69.554688 C 556.816406 71.609375 556.957031 73.742188 557.113281 75.996094 C 557.191406 77.152344 557.269531 78.316406 557.335938 79.476562 L 536.234375 79.476562 C 535.722656 79.476562 535.3125 79.0625 535.3125 78.550781 L 535.3125 64.335938 C 536.523438 63.707031 537.683594 62.921875 538.824219 62.148438 " fill-opacity="1" fill-rule="nonzero"/><path fill="#38b6ff" d="M 573.585938 79.476562 L 557.84375 79.476562 C 557.773438 78.285156 557.695312 77.113281 557.621094 75.960938 C 557.464844 73.714844 557.324219 71.585938 557.273438 69.542969 C 557.175781 65.5 556.410156 59.921875 550.90625 58.144531 C 550.101562 57.882812 549.253906 57.757812 548.363281 57.757812 C 546.171875 57.757812 543.722656 58.539062 541.050781 60.097656 C 540.214844 60.589844 539.363281 61.167969 538.535156 61.726562 C 537.488281 62.441406 536.417969 63.164062 535.3125 63.757812 L 535.3125 41.203125 C 535.3125 40.691406 535.722656 40.277344 536.234375 40.277344 L 573.585938 40.277344 C 574.097656 40.277344 574.507812 40.691406 574.507812 41.203125 L 574.507812 78.550781 C 574.507812 79.0625 574.097656 79.476562 573.585938 79.476562 " fill-opacity="1" fill-rule="nonzero"/><g clip-path="url(#97d153e90f)"><path fill="#fcd03e" d="M 604.984375 69.304688 C 604.222656 69.339844 603.464844 69.40625 602.71875 69.46875 C 599.609375 69.726562 596.667969 69.976562 593.773438 68.382812 C 592.375 67.609375 591.367188 66.53125 590.941406 65.355469 C 590.582031 64.363281 590.625 63.40625 591.0625 62.492188 C 591.953125 60.65625 594.332031 59.320312 596.261719 58.679688 C 602.179688 56.722656 607.941406 57.199219 614.023438 58.480469 C 614.042969 58.847656 614.078125 59.207031 614.078125 59.574219 C 614.078125 63.234375 613.039062 66.644531 611.273438 69.558594 C 611.09375 69.542969 610.917969 69.53125 610.734375 69.515625 C 608.847656 69.367188 606.894531 69.210938 604.984375 69.304688 " fill-opacity="1" fill-rule="nonzero"/></g><g clip-path="url(#9f20184fa6)"><path fill="#fcd03e" d="M 604.71875 56.851562 C 601.851562 56.851562 599 57.242188 596.101562 58.199219 C 595.117188 58.527344 591.8125 59.78125 590.609375 62.273438 C 590.105469 63.308594 590.058594 64.402344 590.460938 65.523438 C 590.933594 66.820312 592.023438 67.992188 593.53125 68.828125 C 596.554688 70.496094 599.570312 70.242188 602.761719 69.972656 C 603.503906 69.914062 604.253906 69.847656 605.007812 69.808594 C 606.890625 69.71875 608.824219 69.871094 610.695312 70.023438 C 610.789062 70.03125 610.882812 70.035156 610.980469 70.042969 C 607.539062 75.355469 601.574219 78.878906 594.777344 78.878906 C 584.121094 78.878906 575.480469 70.238281 575.480469 59.574219 C 575.480469 48.917969 584.121094 40.277344 594.777344 40.277344 C 604.890625 40.277344 613.171875 48.058594 613.996094 57.953125 C 610.84375 57.296875 607.773438 56.851562 604.71875 56.851562 " fill-opacity="1" fill-rule="nonzero"/></g><g clip-path="url(#219bf1b403)"><path fill="#f35b56" d="M 505.5 12.476562 C 506.714844 11.40625 507.867188 10.394531 508.988281 9.753906 C 512.644531 7.664062 516.941406 7.078125 520.207031 8.226562 C 521.851562 8.804688 523.171875 9.785156 524.148438 11.144531 C 521.222656 12.921875 519.46875 14.875 518.796875 17.113281 C 518.125 19.335938 519.429688 22.773438 521.285156 23.675781 C 521.9375 23.992188 523.21875 24.25 524.5 22.429688 C 526.035156 20.246094 526.671875 15.40625 525.726562 13.015625 C 525.484375 12.398438 525.199219 11.832031 524.863281 11.304688 C 528.070312 9.449219 531.710938 8.183594 535.457031 7.601562 L 535.457031 38.335938 C 535.457031 38.847656 535.042969 39.261719 534.53125 39.261719 L 497.179688 39.261719 C 496.667969 39.261719 496.253906 38.847656 496.253906 38.335938 L 496.253906 16.292969 C 499.671875 17.574219 502.757812 14.882812 505.5 12.476562 " fill-opacity="1" fill-rule="nonzero"/></g><g clip-path="url(#5ec39c4a33)"><path fill="#f35b56" d="M 524.578125 10.886719 C 523.535156 9.425781 522.109375 8.359375 520.371094 7.75 C 516.972656 6.554688 512.515625 7.152344 508.738281 9.3125 C 507.570312 9.980469 506.402344 11.007812 505.160156 12.09375 C 502.355469 14.558594 499.453125 17.101562 496.253906 15.75 L 496.253906 0.984375 C 496.253906 0.472656 496.667969 0.0625 497.179688 0.0625 L 534.53125 0.0625 C 535.042969 0.0625 535.457031 0.472656 535.457031 0.984375 L 535.457031 7.085938 C 531.609375 7.675781 527.871094 8.976562 524.578125 10.886719 " fill-opacity="1" fill-rule="nonzero"/></g><path fill="#f35b56" d="M 524.082031 22.136719 C 523.652344 22.753906 523.007812 23.394531 522.222656 23.394531 C 521.996094 23.394531 521.761719 23.339844 521.511719 23.21875 C 519.871094 22.417969 518.683594 19.246094 519.28125 17.257812 C 519.921875 15.144531 521.605469 13.28125 524.429688 11.5625 C 524.75 12.0625 525.023438 12.609375 525.253906 13.199219 C 526.148438 15.46875 525.546875 20.066406 524.082031 22.136719 " fill-opacity="1" fill-rule="nonzero"/><g clip-path="url(#1b4db4a17c)"><path fill="#f35b56" d="M 606.21875 95.839844 C 603.980469 95.277344 601.613281 94.980469 599.183594 94.980469 C 597.980469 94.980469 596.761719 95.050781 595.539062 95.199219 C 592 95.613281 588.382812 96.648438 584.722656 98.238281 L 584.464844 97.792969 L 574.933594 81.289062 C 574.582031 80.683594 575.019531 79.929688 575.71875 79.929688 L 613.835938 79.929688 C 614.535156 79.929688 614.972656 80.683594 614.621094 81.289062 L 606.21875 95.839844 " fill-opacity="1" fill-rule="nonzero"/></g><g clip-path="url(#11c60245e2)"><path fill="#f35b56" d="M 595.597656 95.703125 C 599.183594 95.277344 602.699219 95.5 605.953125 96.304688 L 605.09375 97.792969 L 595.5625 114.300781 C 595.214844 114.90625 594.339844 114.90625 593.992188 114.300781 L 584.976562 98.683594 C 588.574219 97.125 592.125 96.113281 595.597656 95.703125 " fill-opacity="1" fill-rule="nonzero"/></g><g clip-path="url(#82a3cfa542)"><path fill="#8c52ff" d="M 12.476562 865.664062 C 8.632812 864.359375 4.660156 863.121094 0.613281 862.1875 L 0.613281 846.828125 C 0.613281 846.320312 1.027344 845.90625 1.539062 845.90625 L 38.714844 845.90625 C 39.222656 845.90625 39.636719 846.320312 39.636719 846.828125 L 39.636719 876.457031 C 30.78125 872.402344 21.675781 868.777344 12.476562 865.664062 " fill-opacity="1" fill-rule="nonzero"/></g><g clip-path="url(#9e030f2230)"><path fill="#8c52ff" d="M 12.316406 866.140625 C 21.566406 869.273438 30.726562 872.921875 39.636719 877.007812 L 39.636719 884.007812 C 39.636719 884.515625 39.222656 884.925781 38.714844 884.925781 L 1.539062 884.925781 C 1.027344 884.925781 0.613281 884.515625 0.613281 884.007812 L 0.613281 862.707031 C 4.597656 863.632812 8.515625 864.855469 12.316406 866.140625 " fill-opacity="1" fill-rule="nonzero"/></g><path fill="#38b6ff" d="M 75.824219 823.125 C 74.976562 823.707031 74.171875 824.25 73.355469 824.726562 C 69.742188 826.839844 66.578125 827.476562 63.949219 826.632812 C 60.011719 825.363281 58.113281 821.902344 57.964844 815.753906 C 57.914062 813.707031 57.773438 811.585938 57.617188 809.339844 C 57.539062 808.191406 57.464844 807.035156 57.398438 805.878906 L 78.402344 805.878906 C 78.910156 805.878906 79.320312 806.289062 79.320312 806.796875 L 79.320312 820.949219 C 78.113281 821.574219 76.957031 822.355469 75.824219 823.125 " fill-opacity="1" fill-rule="nonzero"/><path fill="#38b6ff" d="M 41.222656 805.878906 L 56.894531 805.878906 C 56.960938 807.0625 57.039062 808.230469 57.113281 809.378906 C 57.265625 811.613281 57.410156 813.734375 57.460938 815.765625 C 57.554688 819.789062 58.316406 825.34375 63.796875 827.109375 C 64.597656 827.371094 65.441406 827.496094 66.328125 827.496094 C 68.511719 827.496094 70.949219 826.71875 73.609375 825.164062 C 74.441406 824.675781 75.289062 824.101562 76.109375 823.542969 C 77.15625 822.835938 78.21875 822.117188 79.320312 821.523438 L 79.320312 843.976562 C 79.320312 844.484375 78.910156 844.894531 78.402344 844.894531 L 41.222656 844.894531 C 40.714844 844.894531 40.304688 844.484375 40.304688 843.976562 L 40.304688 806.796875 C 40.304688 806.289062 40.714844 805.878906 41.222656 805.878906 " fill-opacity="1" fill-rule="nonzero"/><g clip-path="url(#8bf0d4b3d6)"><path fill="#fcd03e" d="M 9.96875 816 C 10.726562 815.964844 11.480469 815.902344 12.222656 815.839844 C 15.320312 815.582031 18.246094 815.335938 21.125 816.921875 C 22.519531 817.691406 23.519531 818.761719 23.945312 819.933594 C 24.304688 820.921875 24.261719 821.875 23.824219 822.78125 C 22.941406 824.609375 20.570312 825.9375 18.648438 826.578125 C 12.757812 828.527344 7.027344 828.054688 0.96875 826.773438 C 0.949219 826.414062 0.914062 826.054688 0.914062 825.6875 C 0.914062 822.046875 1.949219 818.652344 3.707031 815.75 C 3.886719 815.765625 4.0625 815.777344 4.246094 815.792969 C 6.121094 815.941406 8.066406 816.097656 9.96875 816 " fill-opacity="1" fill-rule="nonzero"/></g><g clip-path="url(#2650ac1ca1)"><path fill="#fcd03e" d="M 10.234375 828.398438 C 13.085938 828.398438 15.925781 828.011719 18.808594 827.054688 C 19.789062 826.730469 23.078125 825.480469 24.277344 823 C 24.777344 821.96875 24.828125 820.882812 24.425781 819.765625 C 23.953125 818.476562 22.871094 817.308594 21.367188 816.476562 C 18.359375 814.816406 15.359375 815.070312 12.179688 815.339844 C 11.441406 815.398438 10.695312 815.460938 9.945312 815.5 C 8.070312 815.589844 6.144531 815.4375 4.285156 815.285156 C 4.1875 815.277344 4.09375 815.273438 4 815.265625 C 7.425781 809.980469 13.363281 806.472656 20.128906 806.472656 C 30.734375 806.472656 39.335938 815.074219 39.335938 825.6875 C 39.335938 836.296875 30.734375 844.894531 20.128906 844.894531 C 10.058594 844.894531 1.816406 837.152344 0.996094 827.300781 C 4.132812 827.953125 7.191406 828.398438 10.234375 828.398438 " fill-opacity="1" fill-rule="nonzero"/></g><g clip-path="url(#cbd3ed815f)"><path fill="#f35b56" d="M 108.996094 872.570312 C 107.785156 873.636719 106.636719 874.640625 105.519531 875.28125 C 101.882812 877.359375 97.605469 877.945312 94.355469 876.800781 C 92.71875 876.222656 91.40625 875.25 90.429688 873.898438 C 93.347656 872.125 95.089844 870.179688 95.761719 867.957031 C 96.425781 865.742188 95.128906 862.320312 93.28125 861.421875 C 92.632812 861.105469 91.359375 860.851562 90.082031 862.660156 C 88.554688 864.835938 87.921875 869.652344 88.859375 872.035156 C 89.101562 872.644531 89.386719 873.210938 89.71875 873.734375 C 86.527344 875.582031 82.902344 876.84375 79.175781 877.421875 L 79.175781 846.828125 C 79.175781 846.320312 79.589844 845.90625 80.097656 845.90625 L 117.277344 845.90625 C 117.785156 845.90625 118.195312 846.320312 118.195312 846.828125 L 118.195312 868.773438 C 114.796875 867.492188 111.722656 870.175781 108.996094 872.570312 " fill-opacity="1" fill-rule="nonzero"/></g><g clip-path="url(#6454129ae9)"><path fill="#f35b56" d="M 90.003906 874.152344 C 91.042969 875.605469 92.460938 876.667969 94.191406 877.273438 C 97.574219 878.464844 102.011719 877.871094 105.773438 875.71875 C 106.933594 875.050781 108.097656 874.03125 109.332031 872.949219 C 112.125 870.496094 115.011719 867.96875 118.195312 869.3125 L 118.195312 884.007812 C 118.195312 884.515625 117.785156 884.925781 117.277344 884.925781 L 80.097656 884.925781 C 79.589844 884.925781 79.175781 884.515625 79.175781 884.007812 L 79.175781 877.9375 C 83.003906 877.347656 86.726562 876.054688 90.003906 874.152344 " fill-opacity="1" fill-rule="nonzero"/></g><path fill="#f35b56" d="M 90.496094 862.953125 C 90.929688 862.339844 91.566406 861.703125 92.347656 861.703125 C 92.574219 861.703125 92.808594 861.757812 93.058594 861.875 C 94.691406 862.671875 95.871094 865.832031 95.273438 867.808594 C 94.640625 869.910156 92.964844 871.769531 90.152344 873.476562 C 89.835938 872.980469 89.5625 872.4375 89.328125 871.847656 C 88.441406 869.59375 89.042969 865.015625 90.496094 862.953125 " fill-opacity="1" fill-rule="nonzero"/><g clip-path="url(#6f2cea1514)"><path fill="#f35b56" d="M 8.738281 789.589844 C 10.96875 790.148438 13.320312 790.445312 15.742188 790.445312 C 16.941406 790.445312 18.152344 790.375 19.371094 790.226562 C 22.894531 789.8125 26.492188 788.785156 30.136719 787.203125 L 30.394531 787.644531 L 39.882812 804.074219 C 40.226562 804.675781 39.792969 805.429688 39.101562 805.429688 L 1.15625 805.429688 C 0.460938 805.429688 0.0273438 804.675781 0.375 804.074219 L 8.738281 789.589844 " fill-opacity="1" fill-rule="nonzero"/></g><g clip-path="url(#9a803a870b)"><path fill="#f35b56" d="M 19.3125 789.726562 C 15.742188 790.148438 12.242188 789.925781 9.003906 789.125 L 9.859375 787.644531 L 19.347656 771.210938 C 19.695312 770.613281 20.5625 770.613281 20.910156 771.210938 L 29.882812 786.757812 C 26.300781 788.308594 22.765625 789.316406 19.3125 789.726562 " fill-opacity="1" fill-rule="nonzero"/></g><path fill="#38b6ff" d="M 496.382812 843.363281 C 495.417969 847.839844 494.683594 852.582031 494.320312 857.390625 L 517.382812 848.644531 C 518.34375 843.832031 519.367188 838.96875 520.632812 834.171875 L 496.382812 843.363281 " fill-opacity="1" fill-rule="nonzero"/><path fill="#38b6ff" d="M 536.972656 836.179688 C 537.433594 833.226562 538.007812 830.273438 538.605469 827.355469 L 521.285156 833.921875 C 520.007812 838.71875 518.972656 843.589844 518.011719 848.40625 L 536.207031 841.507812 C 536.449219 839.738281 536.691406 837.96875 536.972656 836.179688 " fill-opacity="1" fill-rule="nonzero"/><path fill="#38b6ff" d="M 495.757812 843.601562 L 478.878906 850.003906 C 477.71875 850.4375 477.132812 851.738281 477.574219 852.898438 L 480.375 860.273438 C 480.808594 861.4375 482.109375 862.019531 483.269531 861.578125 L 493.738281 857.609375 C 494.09375 852.808594 494.808594 848.078125 495.757812 843.601562 " fill-opacity="1" fill-rule="nonzero"/><path fill="#38b6ff" d="M 575.109375 821.996094 C 572.875 820.167969 570.5 818.21875 568.234375 816.125 L 539.234375 827.117188 C 538.605469 830.144531 538.011719 833.210938 537.527344 836.269531 C 537.261719 837.953125 537.039062 839.613281 536.808594 841.28125 L 579.121094 825.242188 C 578.660156 824.902344 578.21875 824.566406 577.835938 824.246094 C 576.964844 823.515625 576.050781 822.769531 575.109375 821.996094 " fill-opacity="1" fill-rule="nonzero"/><path fill="#38b6ff" d="M 593.644531 817.328125 L 590.847656 809.953125 C 590.410156 808.796875 589.109375 808.210938 587.949219 808.648438 L 568.824219 815.902344 C 571.015625 817.914062 573.3125 819.796875 575.46875 821.558594 C 576.410156 822.332031 577.324219 823.082031 578.195312 823.8125 C 578.648438 824.195312 579.183594 824.59375 579.757812 825 L 592.339844 820.230469 C 593.5 819.789062 594.085938 818.492188 593.644531 817.328125 " fill-opacity="1" fill-rule="nonzero"/><path fill="#38b6ff" d="M 535.292969 854.503906 C 537.582031 852.035156 540.84375 850.476562 544.472656 850.476562 C 550.535156 850.476562 555.589844 854.785156 556.753906 860.5 C 558.875 857.648438 561.28125 855.066406 563.929688 852.796875 C 560.253906 845.800781 552.921875 841.027344 544.472656 841.027344 C 541.707031 841.027344 539.070312 841.5625 536.632812 842.492188 C 536.082031 846.558594 535.644531 850.5625 535.292969 854.503906 " fill-opacity="1" fill-rule="nonzero"/><path fill="#f35b56" d="M 535.292969 854.503906 C 537.582031 852.035156 540.84375 850.476562 544.472656 850.476562 C 550.535156 850.476562 555.589844 854.785156 556.753906 860.5 C 558.875 857.648438 561.28125 855.066406 563.929688 852.796875 C 560.253906 845.800781 552.921875 841.027344 544.472656 841.027344 C 541.707031 841.027344 539.070312 841.5625 536.632812 842.492188 C 536.082031 846.558594 535.644531 850.5625 535.292969 854.503906 " fill-opacity="1" fill-rule="nonzero"/><g clip-path="url(#72fb73f9d7)"><path fill="#38b6ff" d="M 544.472656 875.539062 C 540.335938 875.539062 536.679688 873.527344 534.398438 870.4375 C 534.347656 873.390625 534.355469 876.5 534.425781 879.890625 C 534.441406 880.742188 534.402344 881.613281 534.355469 882.511719 C 537.382812 884.085938 540.820312 884.996094 544.472656 884.996094 C 545.351562 884.996094 546.210938 884.929688 547.054688 884.828125 C 547.53125 881.242188 548.335938 877.792969 549.445312 874.511719 C 547.921875 875.167969 546.242188 875.539062 544.472656 875.539062 " fill-opacity="1" fill-rule="nonzero"/><path fill="#f35b56" d="M 544.472656 875.539062 C 540.335938 875.539062 536.679688 873.527344 534.398438 870.4375 C 534.347656 873.390625 534.355469 876.5 534.425781 879.890625 C 534.441406 880.742188 534.402344 881.613281 534.355469 882.511719 C 537.382812 884.085938 540.820312 884.996094 544.472656 884.996094 C 545.351562 884.996094 546.210938 884.929688 547.054688 884.828125 C 547.53125 881.242188 548.335938 877.792969 549.445312 874.511719 C 547.921875 875.167969 546.242188 875.539062 544.472656 875.539062 " fill-opacity="1" fill-rule="nonzero"/></g><path fill="#38b6ff" d="M 533.859375 879.898438 C 533.78125 876.203125 533.78125 872.816406 533.847656 869.625 C 532.648438 867.703125 531.941406 865.441406 531.941406 863.007812 C 531.941406 860.070312 532.964844 857.367188 534.664062 855.230469 C 535.015625 851.125 535.464844 846.957031 536.027344 842.710938 C 528.082031 846.027344 522.492188 853.863281 522.492188 863.007812 C 522.492188 871.277344 527.058594 878.464844 533.804688 882.222656 C 533.84375 881.429688 533.875 880.648438 533.859375 879.898438 " fill-opacity="1" fill-rule="nonzero"/><path fill="#f35b56" d="M 533.859375 879.898438 C 533.78125 876.203125 533.78125 872.816406 533.847656 869.625 C 532.648438 867.703125 531.941406 865.441406 531.941406 863.007812 C 531.941406 860.070312 532.964844 857.367188 534.664062 855.230469 C 535.015625 851.125 535.464844 846.957031 536.027344 842.710938 C 528.082031 846.027344 522.492188 853.863281 522.492188 863.007812 C 522.492188 871.277344 527.058594 878.464844 533.804688 882.222656 C 533.84375 881.429688 533.875 880.648438 533.859375 879.898438 " fill-opacity="1" fill-rule="nonzero"/><g clip-path="url(#ee6065103a)"><path fill="#38b6ff" d="M 556.871094 861.289062 C 556.953125 861.855469 557.003906 862.421875 557.003906 863.007812 C 557.003906 867.878906 554.222656 872.089844 550.167969 874.160156 C 548.992188 877.519531 548.132812 881.058594 547.632812 884.738281 C 558.273438 883.203125 566.453125 874.074219 566.453125 863.007812 C 566.453125 859.53125 565.625 856.253906 564.183594 853.324219 C 561.46875 855.660156 559.015625 858.332031 556.871094 861.289062 " fill-opacity="1" fill-rule="nonzero"/><path fill="#f35b56" d="M 556.871094 861.289062 C 556.953125 861.855469 557.003906 862.421875 557.003906 863.007812 C 557.003906 867.878906 554.222656 872.089844 550.167969 874.160156 C 548.992188 877.519531 548.132812 881.058594 547.632812 884.738281 C 558.273438 883.203125 566.453125 874.074219 566.453125 863.007812 C 566.453125 859.53125 565.625 856.253906 564.183594 853.324219 C 561.46875 855.660156 559.015625 858.332031 556.871094 861.289062 " fill-opacity="1" fill-rule="nonzero"/></g><g clip-path="url(#0695097ba8)"><path fill="#fcd03e" d="M 581.199219 777.246094 L 581.28125 778.539062 C 581.449219 781.140625 582.183594 787.519531 585.390625 790.480469 C 587.324219 792.265625 590.03125 793.121094 592.636719 792.777344 C 595.496094 792.398438 598.257812 790.613281 600.421875 787.753906 C 603.777344 783.328125 605.539062 778.0625 607.253906 772.972656 C 607.296875 772.851562 607.335938 772.734375 607.375 772.617188 L 593.785156 762.746094 C 592.226562 761.613281 590.109375 761.613281 588.550781 762.746094 L 580.660156 768.476562 C 580.832031 771.417969 581.011719 774.355469 581.199219 777.246094 " fill-opacity="1" fill-rule="nonzero"/></g><g clip-path="url(#e33542b42b)"><path fill="#fcd03e" d="M 612.949219 776.667969 L 607.851562 772.960938 C 607.828125 773.023438 607.8125 773.085938 607.789062 773.148438 C 606.066406 778.285156 604.28125 783.59375 600.875 788.097656 C 598.621094 791.078125 595.722656 792.9375 592.710938 793.339844 C 592.308594 793.390625 591.898438 793.417969 591.492188 793.417969 C 589.117188 793.417969 586.765625 792.519531 585.007812 790.898438 C 581.652344 787.796875 580.890625 781.242188 580.71875 778.574219 L 580.636719 777.285156 C 580.457031 774.507812 580.285156 771.695312 580.117188 768.871094 L 569.390625 776.667969 C 567.828125 777.800781 567.171875 779.8125 567.773438 781.648438 L 575.089844 804.171875 C 575.6875 806.011719 577.398438 807.253906 579.328125 807.253906 L 603.011719 807.253906 C 604.941406 807.253906 606.652344 806.011719 607.25 804.171875 L 614.566406 781.648438 C 615.164062 779.8125 614.511719 777.800781 612.949219 776.667969 " fill-opacity="1" fill-rule="nonzero"/></g><path fill="#38b6ff" d="M 118.613281 41.628906 C 119.578125 37.15625 120.3125 32.410156 120.675781 27.601562 L 97.613281 36.347656 C 96.652344 41.160156 95.628906 46.023438 94.363281 50.824219 L 118.613281 41.628906 " fill-opacity="1" fill-rule="nonzero"/><path fill="#38b6ff" d="M 78.023438 48.8125 C 77.5625 51.765625 76.988281 54.71875 76.390625 57.636719 L 93.710938 51.070312 C 94.988281 46.273438 96.023438 41.402344 96.984375 36.585938 L 78.792969 43.484375 C 78.550781 45.253906 78.304688 47.023438 78.023438 48.8125 " fill-opacity="1" fill-rule="nonzero"/><path fill="#38b6ff" d="M 119.238281 41.390625 L 136.117188 34.988281 C 137.277344 34.554688 137.863281 33.253906 137.421875 32.09375 L 134.621094 24.71875 C 134.1875 23.558594 132.886719 22.976562 131.726562 23.414062 L 121.257812 27.382812 C 120.902344 32.183594 120.1875 36.917969 119.238281 41.390625 " fill-opacity="1" fill-rule="nonzero"/><path fill="#38b6ff" d="M 39.886719 62.996094 C 42.121094 64.824219 44.496094 66.773438 46.761719 68.867188 L 75.761719 57.875 C 76.390625 54.847656 76.984375 51.78125 77.46875 48.722656 C 77.734375 47.039062 77.957031 45.378906 78.1875 43.710938 L 35.875 59.753906 C 36.335938 60.089844 36.777344 60.425781 37.160156 60.75 C 38.03125 61.476562 38.945312 62.226562 39.886719 62.996094 " fill-opacity="1" fill-rule="nonzero"/><path fill="#38b6ff" d="M 21.351562 67.664062 L 24.152344 75.039062 C 24.585938 76.195312 25.886719 76.78125 27.046875 76.34375 L 46.171875 69.089844 C 43.980469 67.078125 41.683594 65.195312 39.527344 63.433594 C 38.585938 62.660156 37.671875 61.910156 36.800781 61.179688 C 36.347656 60.796875 35.8125 60.398438 35.238281 59.996094 L 22.65625 64.761719 C 21.496094 65.203125 20.910156 66.5 21.351562 67.664062 " fill-opacity="1" fill-rule="nonzero"/><path fill="#38b6ff" d="M 79.703125 30.488281 C 77.417969 32.957031 74.15625 34.515625 70.523438 34.515625 C 64.460938 34.515625 59.40625 30.207031 58.242188 24.492188 C 56.125 27.34375 53.714844 29.925781 51.066406 32.195312 C 54.742188 39.191406 62.074219 43.964844 70.523438 43.964844 C 73.289062 43.964844 75.925781 43.429688 78.363281 42.5 C 78.914062 38.433594 79.351562 34.429688 79.703125 30.488281 " fill-opacity="1" fill-rule="nonzero"/><path fill="#f35b56" d="M 79.703125 30.488281 C 77.417969 32.957031 74.15625 34.515625 70.523438 34.515625 C 64.460938 34.515625 59.40625 30.207031 58.242188 24.492188 C 56.125 27.34375 53.714844 29.925781 51.066406 32.195312 C 54.742188 39.191406 62.074219 43.964844 70.523438 43.964844 C 73.289062 43.964844 75.925781 43.429688 78.363281 42.5 C 78.914062 38.433594 79.351562 34.429688 79.703125 30.488281 " fill-opacity="1" fill-rule="nonzero"/><g clip-path="url(#4f9f5c1c29)"><path fill="#38b6ff" d="M 70.523438 9.453125 C 74.660156 9.453125 78.316406 11.46875 80.597656 14.554688 C 80.648438 11.601562 80.644531 8.492188 80.570312 5.101562 C 80.554688 4.25 80.59375 3.378906 80.644531 2.480469 C 77.613281 0.90625 74.175781 0 70.523438 0 C 69.644531 0 68.785156 0.0625 67.941406 0.164062 C 67.464844 3.75 66.660156 7.199219 65.550781 10.480469 C 67.074219 9.824219 68.753906 9.453125 70.523438 9.453125 " fill-opacity="1" fill-rule="nonzero"/><path fill="#f35b56" d="M 70.523438 9.453125 C 74.660156 9.453125 78.316406 11.46875 80.597656 14.554688 C 80.648438 11.601562 80.644531 8.492188 80.570312 5.101562 C 80.554688 4.25 80.59375 3.378906 80.644531 2.480469 C 77.613281 0.90625 74.175781 0 70.523438 0 C 69.644531 0 68.785156 0.0625 67.941406 0.164062 C 67.464844 3.75 66.660156 7.199219 65.550781 10.480469 C 67.074219 9.824219 68.753906 9.453125 70.523438 9.453125 " fill-opacity="1" fill-rule="nonzero"/></g><path fill="#38b6ff" d="M 81.136719 5.09375 C 81.214844 8.792969 81.214844 12.175781 81.148438 15.367188 C 82.347656 17.289062 83.054688 19.550781 83.054688 21.984375 C 83.054688 24.921875 82.03125 27.625 80.335938 29.761719 C 79.980469 33.867188 79.53125 38.035156 78.96875 42.28125 C 86.914062 38.964844 92.503906 31.128906 92.503906 21.984375 C 92.503906 13.714844 87.9375 6.527344 81.195312 2.769531 C 81.152344 3.5625 81.121094 4.34375 81.136719 5.09375 " fill-opacity="1" fill-rule="nonzero"/><path fill="#f35b56" d="M 81.136719 5.09375 C 81.214844 8.792969 81.214844 12.175781 81.148438 15.367188 C 82.347656 17.289062 83.054688 19.550781 83.054688 21.984375 C 83.054688 24.921875 82.03125 27.625 80.335938 29.761719 C 79.980469 33.867188 79.53125 38.035156 78.96875 42.28125 C 86.914062 38.964844 92.503906 31.128906 92.503906 21.984375 C 92.503906 13.714844 87.9375 6.527344 81.195312 2.769531 C 81.152344 3.5625 81.121094 4.34375 81.136719 5.09375 " fill-opacity="1" fill-rule="nonzero"/><g clip-path="url(#7f8b51a131)"><path fill="#38b6ff" d="M 58.125 23.703125 C 58.042969 23.136719 57.992188 22.570312 57.992188 21.984375 C 57.992188 17.113281 60.773438 12.902344 64.828125 10.832031 C 66.003906 7.472656 66.863281 3.933594 67.363281 0.253906 C 56.722656 1.789062 48.542969 10.921875 48.542969 21.984375 C 48.542969 25.460938 49.371094 28.738281 50.8125 31.667969 C 53.527344 29.332031 55.980469 26.660156 58.125 23.703125 " fill-opacity="1" fill-rule="nonzero"/><path fill="#f35b56" d="M 58.125 23.703125 C 58.042969 23.136719 57.992188 22.570312 57.992188 21.984375 C 57.992188 17.113281 60.773438 12.902344 64.828125 10.832031 C 66.003906 7.472656 66.863281 3.933594 67.363281 0.253906 C 56.722656 1.789062 48.542969 10.921875 48.542969 21.984375 C 48.542969 25.460938 49.371094 28.738281 50.8125 31.667969 C 53.527344 29.332031 55.980469 26.660156 58.125 23.703125 " fill-opacity="1" fill-rule="nonzero"/></g><g clip-path="url(#6c4c0859f2)"><path fill="#fcd03e" d="M 33.796875 107.746094 L 33.714844 106.453125 C 33.546875 103.851562 32.8125 97.472656 29.605469 94.511719 C 27.671875 92.726562 24.964844 91.871094 22.359375 92.214844 C 19.5 92.59375 16.738281 94.378906 14.574219 97.238281 C 11.21875 101.664062 9.457031 106.929688 7.742188 112.023438 C 7.703125 112.140625 7.660156 112.261719 7.621094 112.375 L 21.210938 122.246094 C 22.769531 123.378906 24.886719 123.378906 26.445312 122.246094 L 34.335938 116.515625 C 34.164062 113.574219 33.984375 110.636719 33.796875 107.746094 " fill-opacity="1" fill-rule="nonzero"/></g><g clip-path="url(#52bbd13d0b)"><path fill="#fcd03e" d="M 2.046875 108.324219 L 7.144531 112.03125 C 7.167969 111.96875 7.1875 111.90625 7.207031 111.84375 C 8.929688 106.707031 10.714844 101.398438 14.125 96.894531 C 16.375 93.914062 19.277344 92.054688 22.285156 91.652344 C 22.6875 91.601562 23.097656 91.574219 23.503906 91.574219 C 25.878906 91.574219 28.230469 92.472656 29.992188 94.097656 C 33.34375 97.195312 34.105469 103.75 34.277344 106.417969 L 34.359375 107.707031 C 34.539062 110.484375 34.710938 113.296875 34.878906 116.121094 L 45.605469 108.324219 C 47.167969 107.191406 47.824219 105.179688 47.222656 103.34375 L 39.90625 80.820312 C 39.308594 78.980469 37.597656 77.738281 35.667969 77.738281 L 11.984375 77.738281 C 10.054688 77.738281 8.34375 78.980469 7.746094 80.820312 L 0.429688 103.34375 C -0.167969 105.179688 0.484375 107.191406 2.046875 108.324219 " fill-opacity="1" fill-rule="nonzero"/></g></svg>