<svg xmlns="http://www.w3.org/2000/svg" xmlns:xlink="http://www.w3.org/1999/xlink" width="1920" zoomAndPan="magnify" viewBox="0 0 1440 809.999993" height="1080" preserveAspectRatio="xMidYMid meet" version="1.0"><defs><clipPath id="03dc7d9a57"><path d="M 1319 0 L 1438 0 L 1438 67.535156 L 1319 67.535156 Z M 1319 0 " clip-rule="nonzero"/></clipPath><clipPath id="8202adcfce"><path d="M 1366.21875 173 L 1438 173 L 1438 211 L 1366.21875 211 Z M 1366.21875 173 " clip-rule="nonzero"/></clipPath><clipPath id="837c854208"><path d="M 1320.257812 121 L 1437 121 L 1437 239 L 1320.257812 239 Z M 1320.257812 121 " clip-rule="nonzero"/></clipPath><clipPath id="498eaad68a"><path d="M 1081.273438 0 L 1200 0 L 1200 49 L 1081.273438 49 Z M 1081.273438 0 " clip-rule="nonzero"/></clipPath><clipPath id="d88ef0eb70"><path d="M 1318 241 L 1439.082031 241 L 1439.082031 297 L 1318 297 Z M 1318 241 " clip-rule="nonzero"/></clipPath><clipPath id="2ff343c32d"><path d="M 1349 288 L 1413 288 L 1413 346.992188 L 1349 346.992188 Z M 1349 288 " clip-rule="nonzero"/></clipPath><clipPath id="6ebf5fe42c"><path d="M 2 742.453125 L 121 742.453125 L 121 810 L 2 810 Z M 2 742.453125 " clip-rule="nonzero"/></clipPath><clipPath id="6433318c18"><path d="M 2 599 L 73.777344 599 L 73.777344 637 L 2 637 Z M 2 599 " clip-rule="nonzero"/></clipPath><clipPath id="97cb8838e1"><path d="M 3 571 L 119.738281 571 L 119.738281 689 L 3 689 Z M 3 571 " clip-rule="nonzero"/></clipPath><clipPath id="d795189c22"><path d="M 240 761 L 358.722656 761 L 358.722656 810 L 240 810 Z M 240 761 " clip-rule="nonzero"/></clipPath><clipPath id="dd24150d73"><path d="M 0.914062 513 L 122 513 L 122 569 L 0.914062 569 Z M 0.914062 513 " clip-rule="nonzero"/></clipPath><clipPath id="c0a72739d7"><path d="M 1228 771.167969 L 1268 771.167969 L 1268 810 L 1228 810 Z M 1228 771.167969 " clip-rule="nonzero"/></clipPath><clipPath id="7f0185b229"><path d="M 1315 504.378906 L 1439.515625 504.378906 L 1439.515625 606 L 1315 606 Z M 1315 504.378906 " clip-rule="nonzero"/></clipPath><clipPath id="e8a1d8a403"><path d="M 172 0 L 212 0 L 212 38.832031 L 172 38.832031 Z M 172 0 " clip-rule="nonzero"/></clipPath><clipPath id="75c6cef5c2"><path d="M 0.480469 204 L 125 204 L 125 305.621094 L 0.480469 305.621094 Z M 0.480469 204 " clip-rule="nonzero"/></clipPath></defs><path fill="#b7dbed" d="M 1401.992188 58.441406 C 1413.660156 62.394531 1425.710938 66.15625 1437.980469 68.996094 L 1437.980469 115.644531 C 1437.980469 117.191406 1436.722656 118.449219 1435.179688 118.449219 L 1322.402344 118.449219 C 1320.859375 118.449219 1319.601562 117.191406 1319.601562 115.644531 L 1319.601562 25.65625 C 1346.46875 37.972656 1374.09375 48.988281 1401.992188 58.441406 " fill-opacity="1" fill-rule="nonzero"/><g clip-path="url(#03dc7d9a57)"><path fill="#b7dbed" d="M 1402.480469 56.992188 C 1374.417969 47.476562 1346.625 36.390625 1319.601562 23.976562 L 1319.601562 2.722656 C 1319.601562 1.175781 1320.859375 -0.0703125 1322.402344 -0.0703125 L 1435.179688 -0.0703125 C 1436.722656 -0.0703125 1437.980469 1.175781 1437.980469 2.722656 L 1437.980469 67.414062 C 1425.890625 64.613281 1414.007812 60.898438 1402.480469 56.992188 " fill-opacity="1" fill-rule="nonzero"/></g><path fill="#69b48d" d="M 1209.816406 187.636719 C 1212.386719 185.878906 1214.832031 184.222656 1217.308594 182.773438 C 1228.269531 176.363281 1237.871094 174.421875 1245.839844 176.984375 C 1257.785156 180.84375 1263.554688 191.351562 1263.996094 210.035156 C 1264.152344 216.242188 1264.582031 222.6875 1265.050781 229.507812 C 1265.289062 233.003906 1265.515625 236.515625 1265.71875 240.027344 L 1202 240.027344 C 1200.457031 240.027344 1199.210938 238.78125 1199.210938 237.234375 L 1199.210938 194.253906 C 1202.875 192.347656 1206.378906 189.976562 1209.816406 187.636719 " fill-opacity="1" fill-rule="nonzero"/><path fill="#69b48d" d="M 1314.789062 240.027344 L 1267.25 240.027344 C 1267.046875 236.433594 1266.808594 232.886719 1266.582031 229.398438 C 1266.113281 222.605469 1265.683594 216.167969 1265.527344 210 C 1265.242188 197.777344 1262.929688 180.90625 1246.308594 175.535156 C 1243.878906 174.746094 1241.316406 174.363281 1238.625 174.363281 C 1232.003906 174.363281 1224.609375 176.722656 1216.542969 181.445312 C 1214.015625 182.929688 1211.441406 184.679688 1208.953125 186.367188 C 1205.78125 188.523438 1202.550781 190.707031 1199.210938 192.503906 L 1199.210938 124.308594 C 1199.210938 122.765625 1200.457031 121.519531 1202 121.519531 L 1314.789062 121.519531 C 1316.332031 121.519531 1317.578125 122.765625 1317.578125 124.308594 L 1317.578125 237.234375 C 1317.578125 238.78125 1316.332031 240.027344 1314.789062 240.027344 " fill-opacity="1" fill-rule="nonzero"/><g clip-path="url(#8202adcfce)"><path fill="#fcd03e" d="M 1409.601562 209.28125 C 1407.304688 209.386719 1405.019531 209.578125 1402.769531 209.769531 C 1393.375 210.550781 1384.492188 211.304688 1375.757812 206.488281 C 1371.53125 204.152344 1368.492188 200.890625 1367.199219 197.332031 C 1366.109375 194.335938 1366.242188 191.4375 1367.570312 188.679688 C 1370.25 183.132812 1377.445312 179.09375 1383.273438 177.152344 C 1401.140625 171.234375 1418.53125 172.671875 1436.902344 176.554688 C 1436.964844 177.65625 1437.070312 178.746094 1437.070312 179.863281 C 1437.070312 190.921875 1433.933594 201.226562 1428.597656 210.046875 C 1428.058594 210 1427.519531 209.960938 1426.96875 209.914062 C 1421.273438 209.460938 1415.371094 208.992188 1409.601562 209.28125 " fill-opacity="1" fill-rule="nonzero"/></g><g clip-path="url(#837c854208)"><path fill="#fcd03e" d="M 1408.800781 171.628906 C 1400.148438 171.628906 1391.53125 172.804688 1382.78125 175.703125 C 1379.8125 176.6875 1369.832031 180.484375 1366.195312 188.023438 C 1364.675781 191.148438 1364.53125 194.457031 1365.75 197.847656 C 1367.175781 201.765625 1370.46875 205.3125 1375.027344 207.828125 C 1384.148438 212.875 1393.253906 212.105469 1402.902344 211.292969 C 1405.140625 211.113281 1407.402344 210.921875 1409.675781 210.800781 C 1415.359375 210.527344 1421.199219 210.992188 1426.851562 211.449219 C 1427.136719 211.472656 1427.425781 211.484375 1427.710938 211.507812 C 1417.324219 227.566406 1399.3125 238.21875 1378.785156 238.21875 C 1346.601562 238.21875 1320.511719 212.09375 1320.511719 179.863281 C 1320.511719 147.640625 1346.601562 121.519531 1378.785156 121.519531 C 1409.328125 121.519531 1434.328125 145.039062 1436.820312 174.960938 C 1427.304688 172.972656 1418.027344 171.628906 1408.800781 171.628906 " fill-opacity="1" fill-rule="nonzero"/></g><path fill="#f35b56" d="M 1109.183594 37.460938 C 1112.859375 34.222656 1116.34375 31.167969 1119.730469 29.226562 C 1130.765625 22.910156 1143.738281 21.136719 1153.601562 24.613281 C 1158.566406 26.363281 1162.550781 29.324219 1165.507812 33.433594 C 1156.664062 38.8125 1151.375 44.71875 1149.339844 51.480469 C 1147.316406 58.199219 1151.253906 68.589844 1156.855469 71.320312 C 1158.832031 72.28125 1162.695312 73.058594 1166.5625 67.558594 C 1171.207031 60.957031 1173.121094 46.328125 1170.273438 39.089844 C 1169.542969 37.230469 1168.679688 35.519531 1167.664062 33.925781 C 1177.34375 28.316406 1188.34375 24.480469 1199.652344 22.71875 L 1199.652344 115.644531 C 1199.652344 117.191406 1198.398438 118.449219 1196.855469 118.449219 L 1084.0625 118.449219 C 1082.519531 118.449219 1081.273438 117.191406 1081.273438 115.644531 L 1081.273438 49 C 1091.59375 52.878906 1100.914062 44.734375 1109.183594 37.460938 " fill-opacity="1" fill-rule="nonzero"/><g clip-path="url(#498eaad68a)"><path fill="#f35b56" d="M 1166.800781 32.652344 C 1163.652344 28.246094 1159.34375 25.019531 1154.101562 23.175781 C 1143.832031 19.558594 1130.382812 21.367188 1118.964844 27.898438 C 1115.445312 29.921875 1111.914062 33.027344 1108.167969 36.308594 C 1099.695312 43.761719 1090.933594 51.441406 1081.273438 47.355469 L 1081.273438 2.722656 C 1081.273438 1.175781 1082.519531 -0.0703125 1084.0625 -0.0703125 L 1196.855469 -0.0703125 C 1198.398438 -0.0703125 1199.652344 1.175781 1199.652344 2.722656 L 1199.652344 21.164062 C 1188.03125 22.949219 1176.746094 26.878906 1166.800781 32.652344 " fill-opacity="1" fill-rule="nonzero"/></g><path fill="#f35b56" d="M 1165.304688 66.671875 C 1164 68.53125 1162.0625 70.472656 1159.691406 70.472656 C 1159.007812 70.472656 1158.292969 70.304688 1157.539062 69.945312 C 1152.582031 67.523438 1149.003906 57.925781 1150.8125 51.921875 C 1152.738281 45.535156 1157.824219 39.890625 1166.359375 34.703125 C 1167.316406 36.210938 1168.140625 37.867188 1168.847656 39.652344 C 1171.539062 46.507812 1169.722656 60.40625 1165.304688 66.671875 " fill-opacity="1" fill-rule="nonzero"/><g clip-path="url(#d88ef0eb70)"><path fill="#f35b56" d="M 1413.335938 289.503906 C 1406.574219 287.800781 1399.429688 286.902344 1392.09375 286.902344 C 1388.457031 286.902344 1384.78125 287.121094 1381.082031 287.5625 C 1370.394531 288.820312 1359.480469 291.949219 1348.421875 296.753906 L 1347.644531 295.410156 L 1318.859375 245.503906 C 1317.804688 243.683594 1319.121094 241.394531 1321.230469 241.394531 L 1436.339844 241.394531 C 1438.445312 241.394531 1439.765625 243.683594 1438.710938 245.503906 L 1413.335938 289.503906 " fill-opacity="1" fill-rule="nonzero"/></g><g clip-path="url(#2ff343c32d)"><path fill="#f35b56" d="M 1381.261719 289.085938 C 1392.09375 287.800781 1402.710938 288.472656 1412.535156 290.90625 L 1409.9375 295.410156 L 1381.15625 345.320312 C 1380.101562 347.140625 1377.46875 347.140625 1376.414062 345.320312 L 1349.1875 298.09375 C 1360.054688 293.386719 1370.777344 290.332031 1381.261719 289.085938 " fill-opacity="1" fill-rule="nonzero"/></g><path fill="#b7dbed" d="M 38.003906 751.550781 C 26.335938 747.59375 14.285156 743.832031 2.015625 740.992188 L 2.015625 694.34375 C 2.015625 692.796875 3.273438 691.539062 4.816406 691.539062 L 117.59375 691.539062 C 119.136719 691.539062 120.394531 692.796875 120.394531 694.34375 L 120.394531 784.335938 C 93.527344 772.015625 65.902344 761.003906 38.003906 751.550781 " fill-opacity="1" fill-rule="nonzero"/><g clip-path="url(#6ebf5fe42c)"><path fill="#b7dbed" d="M 37.515625 753 C 65.578125 762.515625 93.371094 773.597656 120.394531 786.011719 L 120.394531 807.269531 C 120.394531 808.816406 119.136719 810.0625 117.59375 810.0625 L 4.816406 810.0625 C 3.273438 810.0625 2.015625 808.816406 2.015625 807.269531 L 2.015625 742.574219 C 14.105469 745.378906 25.988281 749.09375 37.515625 753 " fill-opacity="1" fill-rule="nonzero"/></g><path fill="#69b48d" d="M 230.179688 622.351562 C 227.609375 624.113281 225.164062 625.765625 222.6875 627.21875 C 211.726562 633.628906 202.125 635.570312 194.15625 633.003906 C 182.210938 629.144531 176.441406 618.636719 176 599.957031 C 175.84375 593.75 175.414062 587.300781 174.945312 580.484375 C 174.707031 576.984375 174.480469 573.472656 174.277344 569.964844 L 237.996094 569.964844 C 239.539062 569.964844 240.785156 571.210938 240.785156 572.753906 L 240.785156 615.738281 C 237.121094 617.644531 233.617188 620.015625 230.179688 622.351562 " fill-opacity="1" fill-rule="nonzero"/><path fill="#69b48d" d="M 125.207031 569.964844 L 172.746094 569.964844 C 172.949219 573.558594 173.1875 577.105469 173.414062 580.59375 C 173.882812 587.386719 174.3125 593.820312 174.46875 599.992188 C 174.753906 612.214844 177.066406 629.085938 193.6875 634.453125 C 196.117188 635.246094 198.679688 635.628906 201.371094 635.628906 C 207.992188 635.628906 215.386719 633.269531 223.453125 628.546875 C 225.980469 627.0625 228.554688 625.3125 231.042969 623.621094 C 234.214844 621.464844 237.445312 619.285156 240.785156 617.488281 L 240.785156 685.679688 C 240.785156 687.226562 239.539062 688.472656 237.996094 688.472656 L 125.207031 688.472656 C 123.664062 688.472656 122.417969 687.226562 122.417969 685.679688 L 122.417969 572.753906 C 122.417969 571.210938 123.664062 569.964844 125.207031 569.964844 " fill-opacity="1" fill-rule="nonzero"/><g clip-path="url(#6433318c18)"><path fill="#fcd03e" d="M 30.394531 600.710938 C 32.691406 600.601562 34.976562 600.410156 37.226562 600.21875 C 46.621094 599.441406 55.503906 598.6875 64.238281 603.503906 C 68.464844 605.839844 71.503906 609.097656 72.796875 612.65625 C 73.886719 615.652344 73.753906 618.554688 72.425781 621.308594 C 69.746094 626.859375 62.550781 630.894531 56.722656 632.835938 C 38.855469 638.757812 21.464844 637.316406 3.09375 633.4375 C 3.03125 632.332031 2.925781 631.242188 2.925781 630.128906 C 2.925781 619.070312 6.0625 608.761719 11.398438 599.945312 C 11.9375 599.992188 12.476562 600.027344 13.027344 600.074219 C 18.722656 600.53125 24.625 601 30.394531 600.710938 " fill-opacity="1" fill-rule="nonzero"/></g><g clip-path="url(#97cb8838e1)"><path fill="#fcd03e" d="M 31.195312 638.359375 C 39.847656 638.359375 48.464844 637.1875 57.214844 634.285156 C 60.183594 633.304688 70.164062 629.503906 73.800781 621.96875 C 75.320312 618.839844 75.464844 615.535156 74.246094 612.144531 C 72.820312 608.222656 69.527344 604.675781 64.96875 602.160156 C 55.847656 597.117188 46.742188 597.882812 37.09375 598.699219 C 34.855469 598.878906 32.59375 599.070312 30.320312 599.1875 C 24.636719 599.464844 18.796875 598.996094 13.144531 598.542969 C 12.859375 598.519531 12.570312 598.507812 12.285156 598.480469 C 22.671875 582.425781 40.683594 571.773438 61.210938 571.773438 C 93.394531 571.773438 119.484375 597.894531 119.484375 630.128906 C 119.484375 662.351562 93.394531 688.472656 61.210938 688.472656 C 30.667969 688.472656 5.664062 664.949219 3.175781 635.03125 C 12.691406 637.019531 21.96875 638.359375 31.195312 638.359375 " fill-opacity="1" fill-rule="nonzero"/></g><path fill="#f35b56" d="M 330.8125 772.53125 C 327.136719 775.765625 323.652344 778.824219 320.265625 780.761719 C 309.230469 787.078125 296.257812 788.851562 286.394531 785.378906 C 281.429688 783.628906 277.445312 780.667969 274.488281 776.558594 C 283.332031 771.175781 288.621094 765.269531 290.65625 758.511719 C 292.679688 751.789062 288.742188 741.398438 283.140625 738.667969 C 281.164062 737.710938 277.300781 736.929688 273.433594 742.429688 C 268.789062 749.035156 266.875 763.664062 269.722656 770.902344 C 270.453125 772.757812 271.316406 774.472656 272.332031 776.066406 C 262.652344 781.675781 251.652344 785.507812 240.34375 787.269531 L 240.34375 694.34375 C 240.34375 692.796875 241.597656 691.539062 243.140625 691.539062 L 355.933594 691.539062 C 357.476562 691.539062 358.722656 692.796875 358.722656 694.34375 L 358.722656 760.992188 C 348.402344 757.109375 339.082031 765.257812 330.8125 772.53125 " fill-opacity="1" fill-rule="nonzero"/><g clip-path="url(#d795189c22)"><path fill="#f35b56" d="M 273.195312 777.335938 C 276.34375 781.746094 280.652344 784.96875 285.894531 786.816406 C 296.164062 790.433594 309.613281 788.625 321.03125 782.09375 C 324.550781 780.070312 328.082031 776.964844 331.828125 773.683594 C 340.300781 766.230469 349.0625 758.546875 358.722656 762.632812 L 358.722656 807.269531 C 358.722656 808.816406 357.476562 810.0625 355.933594 810.0625 L 243.140625 810.0625 C 241.597656 810.0625 240.34375 808.816406 240.34375 807.269531 L 240.34375 788.828125 C 251.964844 787.042969 263.25 783.113281 273.195312 777.335938 " fill-opacity="1" fill-rule="nonzero"/></g><path fill="#f35b56" d="M 274.691406 743.316406 C 275.996094 741.460938 277.933594 739.519531 280.304688 739.519531 C 280.988281 739.519531 281.703125 739.6875 282.457031 740.046875 C 287.414062 742.46875 290.992188 752.066406 289.183594 758.066406 C 287.257812 764.457031 282.171875 770.097656 273.636719 775.289062 C 272.679688 773.777344 271.855469 772.125 271.148438 770.339844 C 268.457031 763.484375 270.273438 749.585938 274.691406 743.316406 " fill-opacity="1" fill-rule="nonzero"/><g clip-path="url(#dd24150d73)"><path fill="#f35b56" d="M 26.660156 520.488281 C 33.421875 522.1875 40.566406 523.085938 47.902344 523.085938 C 51.539062 523.085938 55.214844 522.871094 58.914062 522.429688 C 69.601562 521.167969 80.515625 518.042969 91.574219 513.238281 L 92.351562 514.578125 L 121.136719 564.488281 C 122.191406 566.308594 120.875 568.597656 118.765625 568.597656 L 3.65625 568.597656 C 1.550781 568.597656 0.230469 566.308594 1.285156 564.488281 L 26.660156 520.488281 " fill-opacity="1" fill-rule="nonzero"/></g><path fill="#f35b56" d="M 58.734375 520.90625 C 47.902344 522.1875 37.285156 521.515625 27.460938 519.085938 L 30.058594 514.578125 L 58.839844 464.671875 C 59.894531 462.851562 62.527344 462.851562 63.582031 464.671875 L 90.808594 511.894531 C 79.941406 516.605469 69.21875 519.660156 58.734375 520.90625 " fill-opacity="1" fill-rule="nonzero"/><path fill="#69b48d" d="M 1128.398438 700.636719 C 1125.863281 712.390625 1123.941406 724.851562 1122.980469 737.484375 L 1183.585938 714.507812 C 1186.109375 701.863281 1188.796875 689.09375 1192.121094 676.484375 L 1128.398438 700.636719 " fill-opacity="1" fill-rule="nonzero"/><path fill="#69b48d" d="M 1235.054688 681.761719 C 1236.269531 674.003906 1237.777344 666.246094 1239.351562 658.582031 L 1193.835938 675.835938 C 1190.476562 688.433594 1187.753906 701.226562 1185.230469 713.882812 L 1233.039062 695.761719 C 1233.675781 691.109375 1234.3125 686.464844 1235.054688 681.761719 " fill-opacity="1" fill-rule="nonzero"/><path fill="#69b48d" d="M 1126.753906 701.261719 L 1082.410156 718.074219 C 1079.363281 719.222656 1077.820312 722.636719 1078.980469 725.683594 L 1086.335938 745.054688 C 1087.480469 748.113281 1090.898438 749.640625 1093.945312 748.484375 L 1121.449219 738.0625 C 1122.386719 725.453125 1124.265625 713.015625 1126.753906 701.261719 " fill-opacity="1" fill-rule="nonzero"/><path fill="#69b48d" d="M 1335.269531 644.5 C 1329.398438 639.695312 1323.15625 634.578125 1317.203125 629.078125 L 1240.996094 657.957031 C 1239.351562 665.910156 1237.789062 673.957031 1236.511719 681.996094 C 1235.820312 686.417969 1235.226562 690.785156 1234.625 695.160156 L 1345.808594 653.023438 C 1344.59375 652.132812 1343.433594 651.25 1342.425781 650.40625 C 1340.144531 648.496094 1337.738281 646.527344 1335.269531 644.5 " fill-opacity="1" fill-rule="nonzero"/><path fill="#69b48d" d="M 1383.96875 632.238281 L 1376.617188 612.867188 C 1375.46875 609.820312 1372.054688 608.28125 1369.007812 609.4375 L 1318.753906 628.488281 C 1324.511719 633.777344 1330.542969 638.722656 1336.207031 643.355469 C 1338.6875 645.378906 1341.082031 647.347656 1343.375 649.269531 C 1344.570312 650.277344 1345.972656 651.320312 1347.476562 652.386719 L 1380.542969 639.855469 C 1383.589844 638.699219 1385.128906 635.296875 1383.96875 632.238281 " fill-opacity="1" fill-rule="nonzero"/><path fill="#69b48d" d="M 1230.640625 729.898438 C 1236.652344 723.414062 1245.222656 719.328125 1254.765625 719.328125 C 1270.691406 719.328125 1283.976562 730.640625 1287.03125 745.65625 C 1292.601562 738.167969 1298.925781 731.378906 1305.886719 725.417969 C 1296.226562 707.039062 1276.96875 694.5 1254.765625 694.5 C 1247.492188 694.5 1240.566406 695.902344 1234.164062 698.34375 C 1232.714844 709.03125 1231.566406 719.546875 1230.640625 729.898438 " fill-opacity="1" fill-rule="nonzero"/><path fill="#f35b56" d="M 1230.640625 729.898438 C 1236.652344 723.414062 1245.222656 719.328125 1254.765625 719.328125 C 1270.691406 719.328125 1283.976562 730.640625 1287.03125 745.65625 C 1292.601562 738.167969 1298.925781 731.378906 1305.886719 725.417969 C 1296.226562 707.039062 1276.96875 694.5 1254.765625 694.5 C 1247.492188 694.5 1240.566406 695.902344 1234.164062 698.34375 C 1232.714844 709.03125 1231.566406 719.546875 1230.640625 729.898438 " fill-opacity="1" fill-rule="nonzero"/><g clip-path="url(#c0a72739d7)"><path fill="#69b48d" d="M 1254.765625 785.167969 C 1243.890625 785.167969 1234.289062 779.875 1228.289062 771.757812 C 1228.164062 779.515625 1228.175781 787.691406 1228.359375 796.59375 C 1228.40625 798.832031 1228.300781 801.125 1228.175781 803.484375 C 1236.132812 807.621094 1245.164062 810.003906 1254.765625 810.003906 C 1257.070312 810.003906 1259.328125 809.832031 1261.554688 809.566406 C 1262.804688 800.152344 1264.910156 791.082031 1267.832031 782.46875 C 1263.824219 784.195312 1259.410156 785.167969 1254.765625 785.167969 " fill-opacity="1" fill-rule="nonzero"/><path fill="#f35b56" d="M 1254.765625 785.167969 C 1243.890625 785.167969 1234.289062 779.875 1228.289062 771.757812 C 1228.164062 779.515625 1228.175781 787.691406 1228.359375 796.59375 C 1228.40625 798.832031 1228.300781 801.125 1228.175781 803.484375 C 1236.132812 807.621094 1245.164062 810.003906 1254.765625 810.003906 C 1257.070312 810.003906 1259.328125 809.832031 1261.554688 809.566406 C 1262.804688 800.152344 1264.910156 791.082031 1267.832031 782.46875 C 1263.824219 784.195312 1259.410156 785.167969 1254.765625 785.167969 " fill-opacity="1" fill-rule="nonzero"/></g><path fill="#69b48d" d="M 1226.878906 796.617188 C 1226.667969 786.902344 1226.667969 778.011719 1226.84375 769.628906 C 1223.691406 764.578125 1221.839844 758.636719 1221.839844 752.246094 C 1221.839844 744.523438 1224.527344 737.425781 1228.984375 731.808594 C 1229.910156 721.027344 1231.09375 710.074219 1232.574219 698.921875 C 1211.695312 707.632812 1197.007812 728.21875 1197.007812 752.246094 C 1197.007812 773.96875 1209.007812 792.855469 1226.726562 802.722656 C 1226.832031 800.636719 1226.914062 798.585938 1226.878906 796.617188 " fill-opacity="1" fill-rule="nonzero"/><path fill="#f35b56" d="M 1226.878906 796.617188 C 1226.667969 786.902344 1226.667969 778.011719 1226.84375 769.628906 C 1223.691406 764.578125 1221.839844 758.636719 1221.839844 752.246094 C 1221.839844 744.523438 1224.527344 737.425781 1228.984375 731.808594 C 1229.910156 721.027344 1231.09375 710.074219 1232.574219 698.921875 C 1211.695312 707.632812 1197.007812 728.21875 1197.007812 752.246094 C 1197.007812 773.96875 1209.007812 792.855469 1226.726562 802.722656 C 1226.832031 800.636719 1226.914062 798.585938 1226.878906 796.617188 " fill-opacity="1" fill-rule="nonzero"/><path fill="#69b48d" d="M 1287.34375 747.730469 C 1287.554688 749.214844 1287.691406 750.707031 1287.691406 752.246094 C 1287.691406 765.042969 1280.382812 776.101562 1269.730469 781.542969 C 1266.636719 790.367188 1264.378906 799.664062 1263.070312 809.332031 C 1291.027344 805.304688 1312.523438 781.3125 1312.523438 752.246094 C 1312.523438 743.109375 1310.347656 734.496094 1306.558594 726.808594 C 1299.425781 732.945312 1292.972656 739.960938 1287.34375 747.730469 " fill-opacity="1" fill-rule="nonzero"/><path fill="#f35b56" d="M 1287.34375 747.730469 C 1287.554688 749.214844 1287.691406 750.707031 1287.691406 752.246094 C 1287.691406 765.042969 1280.382812 776.101562 1269.730469 781.542969 C 1266.636719 790.367188 1264.378906 799.664062 1263.070312 809.332031 C 1291.027344 805.304688 1312.523438 781.3125 1312.523438 752.246094 C 1312.523438 743.109375 1310.347656 734.496094 1306.558594 726.808594 C 1299.425781 732.945312 1292.972656 739.960938 1287.34375 747.730469 " fill-opacity="1" fill-rule="nonzero"/><path fill="#fcd03e" d="M 1351.265625 526.933594 L 1351.484375 530.328125 C 1351.925781 537.171875 1353.859375 553.925781 1362.277344 561.707031 C 1367.363281 566.398438 1374.472656 568.644531 1381.316406 567.742188 C 1388.835938 566.746094 1396.097656 562.054688 1401.78125 554.539062 C 1410.597656 542.914062 1415.230469 529.078125 1419.734375 515.703125 C 1419.839844 515.390625 1419.941406 515.078125 1420.046875 514.777344 L 1384.339844 488.839844 C 1380.242188 485.863281 1374.683594 485.863281 1370.582031 488.839844 L 1349.851562 503.890625 C 1350.304688 511.628906 1350.777344 519.339844 1351.265625 526.933594 " fill-opacity="1" fill-rule="nonzero"/><g clip-path="url(#7f0185b229)"><path fill="#fcd03e" d="M 1434.699219 525.417969 L 1421.296875 515.679688 C 1421.238281 515.84375 1421.195312 516.003906 1421.136719 516.167969 C 1416.609375 529.667969 1411.917969 543.609375 1402.964844 555.445312 C 1397.046875 563.269531 1389.425781 568.15625 1381.515625 569.210938 C 1380.460938 569.351562 1379.382812 569.421875 1378.320312 569.421875 C 1372.078125 569.421875 1365.890625 567.058594 1361.269531 562.796875 C 1352.457031 554.65625 1350.453125 537.4375 1350 530.421875 L 1349.792969 527.039062 C 1349.316406 519.746094 1348.867188 512.355469 1348.425781 504.933594 L 1320.238281 525.417969 C 1316.136719 528.394531 1314.410156 533.675781 1315.988281 538.503906 L 1335.210938 597.671875 C 1336.785156 602.503906 1341.28125 605.769531 1346.351562 605.769531 L 1408.582031 605.769531 C 1413.652344 605.769531 1418.148438 602.503906 1419.722656 597.671875 L 1438.949219 538.503906 C 1440.511719 533.675781 1438.796875 528.394531 1434.699219 525.417969 " fill-opacity="1" fill-rule="nonzero"/></g><path fill="#69b48d" d="M 311.597656 109.363281 C 314.132812 97.609375 316.058594 85.148438 317.019531 72.515625 L 256.410156 95.492188 C 253.886719 108.136719 251.199219 120.90625 247.875 133.515625 L 311.597656 109.363281 " fill-opacity="1" fill-rule="nonzero"/><path fill="#69b48d" d="M 204.941406 128.238281 C 203.726562 135.996094 202.222656 143.753906 200.644531 151.417969 L 246.160156 134.164062 C 249.519531 121.566406 252.242188 108.773438 254.765625 96.117188 L 206.957031 114.238281 C 206.320312 118.890625 205.683594 123.535156 204.941406 128.238281 " fill-opacity="1" fill-rule="nonzero"/><path fill="#69b48d" d="M 313.242188 108.738281 L 357.589844 91.925781 C 360.632812 90.777344 362.175781 87.363281 361.015625 84.316406 L 353.664062 64.945312 C 352.515625 61.886719 349.097656 60.359375 346.054688 61.515625 L 318.546875 71.9375 C 317.609375 84.546875 315.730469 96.984375 313.242188 108.738281 " fill-opacity="1" fill-rule="nonzero"/><path fill="#69b48d" d="M 104.726562 165.5 C 110.597656 170.304688 116.839844 175.421875 122.792969 180.921875 L 199 152.042969 C 200.644531 144.089844 202.210938 136.042969 203.484375 128.003906 C 204.179688 123.582031 204.769531 119.214844 205.371094 114.839844 L 94.1875 156.976562 C 95.402344 157.867188 96.5625 158.75 97.570312 159.59375 C 99.851562 161.503906 102.261719 163.472656 104.726562 165.5 " fill-opacity="1" fill-rule="nonzero"/><path fill="#69b48d" d="M 56.027344 177.761719 L 63.378906 197.132812 C 64.527344 200.179688 67.945312 201.71875 70.988281 200.5625 L 121.242188 181.511719 C 115.484375 176.222656 109.453125 171.277344 103.789062 166.644531 C 101.308594 164.621094 98.914062 162.652344 96.621094 160.730469 C 95.425781 159.722656 94.027344 158.679688 92.519531 157.613281 L 59.453125 170.144531 C 56.410156 171.300781 54.867188 174.703125 56.027344 177.761719 " fill-opacity="1" fill-rule="nonzero"/><path fill="#69b48d" d="M 209.355469 80.101562 C 203.34375 86.585938 194.773438 90.671875 185.230469 90.671875 C 169.304688 90.671875 156.023438 79.359375 152.964844 64.34375 C 147.394531 71.832031 141.070312 78.621094 134.109375 84.582031 C 143.769531 102.960938 163.027344 115.5 185.230469 115.5 C 192.503906 115.5 199.429688 114.097656 205.835938 111.65625 C 207.28125 100.96875 208.429688 90.453125 209.355469 80.101562 " fill-opacity="1" fill-rule="nonzero"/><path fill="#f35b56" d="M 209.355469 80.101562 C 203.34375 86.585938 194.773438 90.671875 185.230469 90.671875 C 169.304688 90.671875 156.023438 79.359375 152.964844 64.34375 C 147.394531 71.832031 141.070312 78.621094 134.109375 84.582031 C 143.769531 102.960938 163.027344 115.5 185.230469 115.5 C 192.503906 115.5 199.429688 114.097656 205.835938 111.65625 C 207.28125 100.96875 208.429688 90.453125 209.355469 80.101562 " fill-opacity="1" fill-rule="nonzero"/><g clip-path="url(#e8a1d8a403)"><path fill="#69b48d" d="M 185.230469 24.832031 C 196.105469 24.832031 205.707031 30.125 211.707031 38.242188 C 211.832031 30.484375 211.820312 22.308594 211.636719 13.40625 C 211.589844 11.167969 211.695312 8.875 211.820312 6.515625 C 203.867188 2.378906 194.832031 -0.00390625 185.230469 -0.00390625 C 182.925781 -0.00390625 180.667969 0.167969 178.445312 0.433594 C 177.191406 9.847656 175.085938 18.917969 172.167969 27.53125 C 176.175781 25.804688 180.585938 24.832031 185.230469 24.832031 " fill-opacity="1" fill-rule="nonzero"/><path fill="#f35b56" d="M 185.230469 24.832031 C 196.105469 24.832031 205.707031 30.125 211.707031 38.242188 C 211.832031 30.484375 211.820312 22.308594 211.636719 13.40625 C 211.589844 11.167969 211.695312 8.875 211.820312 6.515625 C 203.867188 2.378906 194.832031 -0.00390625 185.230469 -0.00390625 C 182.925781 -0.00390625 180.667969 0.167969 178.445312 0.433594 C 177.191406 9.847656 175.085938 18.917969 172.167969 27.53125 C 176.175781 25.804688 180.585938 24.832031 185.230469 24.832031 " fill-opacity="1" fill-rule="nonzero"/></g><path fill="#69b48d" d="M 213.121094 13.382812 C 213.328125 23.097656 213.328125 31.988281 213.152344 40.371094 C 216.304688 45.421875 218.15625 51.363281 218.15625 57.753906 C 218.15625 65.476562 215.46875 72.574219 211.011719 78.191406 C 210.085938 88.972656 208.902344 99.925781 207.421875 111.078125 C 228.304688 102.367188 242.988281 81.78125 242.988281 57.753906 C 242.988281 36.03125 230.988281 17.144531 213.269531 7.277344 C 213.164062 9.363281 213.085938 11.414062 213.121094 13.382812 " fill-opacity="1" fill-rule="nonzero"/><path fill="#f35b56" d="M 213.121094 13.382812 C 213.328125 23.097656 213.328125 31.988281 213.152344 40.371094 C 216.304688 45.421875 218.15625 51.363281 218.15625 57.753906 C 218.15625 65.476562 215.46875 72.574219 211.011719 78.191406 C 210.085938 88.972656 208.902344 99.925781 207.421875 111.078125 C 228.304688 102.367188 242.988281 81.78125 242.988281 57.753906 C 242.988281 36.03125 230.988281 17.144531 213.269531 7.277344 C 213.164062 9.363281 213.085938 11.414062 213.121094 13.382812 " fill-opacity="1" fill-rule="nonzero"/><path fill="#69b48d" d="M 152.652344 62.269531 C 152.441406 60.785156 152.304688 59.292969 152.304688 57.753906 C 152.304688 44.957031 159.613281 33.898438 170.265625 28.457031 C 173.359375 19.632812 175.617188 10.335938 176.925781 0.667969 C 148.96875 4.695312 127.472656 28.6875 127.472656 57.753906 C 127.472656 66.890625 129.652344 75.503906 133.4375 83.191406 C 140.570312 77.054688 147.023438 70.039062 152.652344 62.269531 " fill-opacity="1" fill-rule="nonzero"/><path fill="#f35b56" d="M 152.652344 62.269531 C 152.441406 60.785156 152.304688 59.292969 152.304688 57.753906 C 152.304688 44.957031 159.613281 33.898438 170.265625 28.457031 C 173.359375 19.632812 175.617188 10.335938 176.925781 0.667969 C 148.96875 4.695312 127.472656 28.6875 127.472656 57.753906 C 127.472656 66.890625 129.652344 75.503906 133.4375 83.191406 C 140.570312 77.054688 147.023438 70.039062 152.652344 62.269531 " fill-opacity="1" fill-rule="nonzero"/><path fill="#fcd03e" d="M 88.734375 283.066406 L 88.511719 279.671875 C 88.074219 272.828125 86.136719 256.074219 77.71875 248.292969 C 72.632812 243.601562 65.523438 241.355469 58.679688 242.257812 C 51.160156 243.253906 43.898438 247.945312 38.214844 255.460938 C 29.398438 267.085938 24.765625 280.921875 20.261719 294.296875 C 20.15625 294.609375 20.054688 294.921875 19.949219 295.222656 L 55.65625 321.160156 C 59.753906 324.136719 65.316406 324.136719 69.414062 321.160156 L 90.144531 306.109375 C 89.695312 298.371094 89.21875 290.660156 88.734375 283.066406 " fill-opacity="1" fill-rule="nonzero"/><g clip-path="url(#75c6cef5c2)"><path fill="#fcd03e" d="M 5.300781 284.582031 L 18.699219 294.320312 C 18.757812 294.15625 18.804688 293.996094 18.859375 293.832031 C 23.390625 280.332031 28.078125 266.390625 37.03125 254.554688 C 42.949219 246.730469 50.570312 241.84375 58.480469 240.789062 C 59.535156 240.648438 60.613281 240.578125 61.679688 240.578125 C 67.921875 240.578125 74.105469 242.941406 78.726562 247.203125 C 87.539062 255.34375 89.542969 272.5625 89.996094 279.578125 L 90.203125 282.960938 C 90.679688 290.253906 91.128906 297.644531 91.570312 305.066406 L 119.761719 284.582031 C 123.859375 281.605469 125.585938 276.324219 124.011719 271.496094 L 104.785156 212.328125 C 103.210938 207.496094 98.714844 204.230469 93.644531 204.230469 L 31.414062 204.230469 C 26.34375 204.230469 21.847656 207.496094 20.273438 212.328125 L 1.046875 271.496094 C -0.515625 276.324219 1.199219 281.605469 5.300781 284.582031 " fill-opacity="1" fill-rule="nonzero"/></g></svg>