<svg xmlns="http://www.w3.org/2000/svg" xmlns:xlink="http://www.w3.org/1999/xlink" width="1920" zoomAndPan="magnify" viewBox="0 0 1440 809.999993" height="1080" preserveAspectRatio="xMidYMid meet" version="1.0"><defs><clipPath id="e6e930456e"><path d="M 1335 0.246094 L 1439 0.246094 L 1439 58.910156 L 1335 58.910156 Z M 1335 0.246094 " clip-rule="nonzero"/></clipPath><clipPath id="f94172870e"><path d="M 1128.054688 0.246094 L 1232 0.246094 L 1232 42.917969 L 1128.054688 42.917969 Z M 1128.054688 0.246094 " clip-rule="nonzero"/></clipPath><clipPath id="cb209cea11"><path d="M 1334 209 L 1439.347656 209 L 1439.347656 258.828125 L 1334 258.828125 Z M 1334 209 " clip-rule="nonzero"/></clipPath><clipPath id="03ce775a51"><path d="M 1361 250 L 1417 250 L 1417 301.5 L 1361 301.5 Z M 1361 250 " clip-rule="nonzero"/></clipPath><clipPath id="5cdcffcfb4"><path d="M 1 751.355469 L 105 751.355469 L 105 809.632812 L 1 809.632812 Z M 1 751.355469 " clip-rule="nonzero"/></clipPath><clipPath id="9abe6049b2"><path d="M 2 627 L 63.746094 627 L 63.746094 660 L 2 660 Z M 2 627 " clip-rule="nonzero"/></clipPath><clipPath id="f120f890c0"><path d="M 2 603 L 103.546875 603 L 103.546875 705 L 2 705 Z M 2 603 " clip-rule="nonzero"/></clipPath><clipPath id="4fe4f03770"><path d="M 207.03125 767.277344 L 310.511719 767.277344 L 310.511719 809.632812 L 207.03125 809.632812 Z M 207.03125 767.277344 " clip-rule="nonzero"/></clipPath><clipPath id="490b5bda96"><path d="M 0.648438 553 L 106 553 L 106 601 L 0.648438 601 Z M 0.648438 553 " clip-rule="nonzero"/></clipPath><clipPath id="6d6e15b135"><path d="M 23 509.632812 L 79 509.632812 L 79 561 L 23 561 Z M 23 509.632812 " clip-rule="nonzero"/></clipPath><clipPath id="62754eb48b"><path d="M 1228 771.167969 L 1268 771.167969 L 1268 810 L 1228 810 Z M 1228 771.167969 " clip-rule="nonzero"/></clipPath><clipPath id="85d0cb3c63"><path d="M 1315 504.378906 L 1439.445312 504.378906 L 1439.445312 606 L 1315 606 Z M 1315 504.378906 " clip-rule="nonzero"/></clipPath><clipPath id="3b09430dbf"><path d="M 172 0 L 212 0 L 212 38.832031 L 172 38.832031 Z M 172 0 " clip-rule="nonzero"/></clipPath><clipPath id="53aa947f7b"><path d="M 0.550781 204 L 125 204 L 125 305.621094 L 0.550781 305.621094 Z M 0.550781 204 " clip-rule="nonzero"/></clipPath></defs><path fill="#8c52ff" d="M 1407.078125 51.007812 C 1417.230469 54.441406 1427.714844 57.710938 1438.386719 60.179688 L 1438.386719 100.714844 C 1438.386719 102.058594 1437.296875 103.152344 1435.953125 103.152344 L 1337.835938 103.152344 C 1336.492188 103.152344 1335.398438 102.058594 1335.398438 100.714844 L 1335.398438 22.519531 C 1358.773438 33.222656 1382.804688 42.792969 1407.078125 51.007812 " fill-opacity="1" fill-rule="nonzero"/><g clip-path="url(#e6e930456e)"><path fill="#8c52ff" d="M 1407.503906 49.746094 C 1383.085938 41.480469 1358.910156 31.847656 1335.398438 21.058594 L 1335.398438 2.589844 C 1335.398438 1.246094 1336.492188 0.164062 1337.835938 0.164062 L 1435.953125 0.164062 C 1437.296875 0.164062 1438.386719 1.246094 1438.386719 2.589844 L 1438.386719 58.804688 C 1427.871094 56.371094 1417.53125 53.140625 1407.503906 49.746094 " fill-opacity="1" fill-rule="nonzero"/></g><path fill="#38b6ff" d="M 1239.882812 163.273438 C 1242.125 161.742188 1244.246094 160.308594 1246.402344 159.046875 C 1255.941406 153.476562 1264.292969 151.789062 1271.226562 154.019531 C 1281.617188 157.371094 1286.636719 166.503906 1287.023438 182.734375 C 1287.15625 188.128906 1287.53125 193.730469 1287.9375 199.65625 C 1288.148438 202.695312 1288.34375 205.746094 1288.519531 208.796875 L 1233.085938 208.796875 C 1231.742188 208.796875 1230.660156 207.714844 1230.660156 206.371094 L 1230.660156 169.023438 C 1233.84375 167.367188 1236.894531 165.304688 1239.882812 163.273438 " fill-opacity="1" fill-rule="nonzero"/><path fill="#38b6ff" d="M 1331.210938 208.796875 L 1289.855469 208.796875 C 1289.675781 205.675781 1289.46875 202.59375 1289.269531 199.5625 C 1288.863281 193.65625 1288.488281 188.066406 1288.355469 182.703125 C 1288.105469 172.082031 1286.09375 157.421875 1271.632812 152.757812 C 1269.519531 152.070312 1267.289062 151.738281 1264.949219 151.738281 C 1259.1875 151.738281 1252.753906 153.789062 1245.738281 157.890625 C 1243.539062 159.183594 1241.300781 160.703125 1239.136719 162.171875 C 1236.375 164.042969 1233.5625 165.941406 1230.660156 167.5 L 1230.660156 108.246094 C 1230.660156 106.902344 1231.742188 105.816406 1233.085938 105.816406 L 1331.210938 105.816406 C 1332.554688 105.816406 1333.640625 106.902344 1333.640625 108.246094 L 1333.640625 206.371094 C 1333.640625 207.714844 1332.554688 208.796875 1331.210938 208.796875 " fill-opacity="1" fill-rule="nonzero"/><path fill="#fcd03e" d="M 1413.699219 182.078125 C 1411.703125 182.171875 1409.710938 182.339844 1407.753906 182.507812 C 1399.582031 183.183594 1391.855469 183.839844 1384.253906 179.652344 C 1380.578125 177.621094 1377.933594 174.789062 1376.808594 171.699219 C 1375.863281 169.09375 1375.976562 166.574219 1377.132812 164.179688 C 1379.464844 159.359375 1385.722656 155.851562 1390.792969 154.164062 C 1406.339844 149.019531 1421.46875 150.269531 1437.453125 153.644531 C 1437.503906 154.601562 1437.597656 155.546875 1437.597656 156.515625 C 1437.597656 166.128906 1434.867188 175.082031 1430.226562 182.746094 C 1429.757812 182.703125 1429.289062 182.671875 1428.808594 182.632812 C 1423.851562 182.234375 1418.71875 181.828125 1413.699219 182.078125 " fill-opacity="1" fill-rule="nonzero"/><path fill="#fcd03e" d="M 1413.003906 149.363281 C 1405.472656 149.363281 1397.976562 150.382812 1390.367188 152.902344 C 1387.785156 153.757812 1379.101562 157.058594 1375.933594 163.609375 C 1374.613281 166.324219 1374.488281 169.199219 1375.550781 172.144531 C 1376.789062 175.550781 1379.652344 178.632812 1383.617188 180.820312 C 1391.554688 185.203125 1399.476562 184.535156 1407.871094 183.828125 C 1409.816406 183.671875 1411.785156 183.503906 1413.761719 183.402344 C 1418.707031 183.164062 1423.789062 183.566406 1428.703125 183.964844 C 1428.953125 183.984375 1429.203125 183.996094 1429.453125 184.015625 C 1420.417969 197.96875 1404.746094 207.226562 1386.886719 207.226562 C 1358.890625 207.226562 1336.191406 184.527344 1336.191406 156.515625 C 1336.191406 128.515625 1358.890625 105.816406 1386.886719 105.816406 C 1413.460938 105.816406 1435.210938 126.257812 1437.378906 152.257812 C 1429.101562 150.53125 1421.03125 149.363281 1413.003906 149.363281 " fill-opacity="1" fill-rule="nonzero"/><path fill="#f35b56" d="M 1152.335938 32.773438 C 1155.53125 29.964844 1158.5625 27.308594 1161.507812 25.621094 C 1171.109375 20.132812 1182.398438 18.59375 1190.976562 21.613281 C 1195.296875 23.132812 1198.765625 25.703125 1201.335938 29.277344 C 1193.644531 33.949219 1189.039062 39.085938 1187.269531 44.957031 C 1185.511719 50.796875 1188.9375 59.824219 1193.808594 62.199219 C 1195.527344 63.03125 1198.890625 63.710938 1202.253906 58.929688 C 1206.292969 53.191406 1207.960938 40.480469 1205.480469 34.191406 C 1204.847656 32.578125 1204.097656 31.085938 1203.210938 29.703125 C 1211.636719 24.828125 1221.203125 21.496094 1231.042969 19.96875 L 1231.042969 100.714844 C 1231.042969 102.058594 1229.949219 103.152344 1228.609375 103.152344 L 1130.480469 103.152344 C 1129.136719 103.152344 1128.054688 102.058594 1128.054688 100.714844 L 1128.054688 42.800781 C 1137.03125 46.175781 1145.140625 39.09375 1152.335938 32.773438 " fill-opacity="1" fill-rule="nonzero"/><g clip-path="url(#f94172870e)"><path fill="#f35b56" d="M 1202.460938 28.597656 C 1199.722656 24.765625 1195.976562 21.964844 1191.414062 20.363281 C 1182.480469 17.21875 1170.777344 18.789062 1160.84375 24.464844 C 1157.78125 26.226562 1154.710938 28.921875 1151.449219 31.773438 C 1144.078125 38.25 1136.457031 44.925781 1128.054688 41.375 L 1128.054688 2.589844 C 1128.054688 1.246094 1129.136719 0.164062 1130.480469 0.164062 L 1228.609375 0.164062 C 1229.949219 0.164062 1231.042969 1.246094 1231.042969 2.589844 L 1231.042969 18.613281 C 1220.933594 20.164062 1211.113281 23.582031 1202.460938 28.597656 " fill-opacity="1" fill-rule="nonzero"/></g><path fill="#f35b56" d="M 1201.160156 58.160156 C 1200.027344 59.773438 1198.339844 61.460938 1196.277344 61.460938 C 1195.683594 61.460938 1195.058594 61.316406 1194.402344 61.003906 C 1190.09375 58.898438 1186.980469 50.558594 1188.550781 45.34375 C 1190.226562 39.792969 1194.652344 34.886719 1202.078125 30.378906 C 1202.910156 31.691406 1203.628906 33.128906 1204.242188 34.679688 C 1206.585938 40.636719 1205.003906 52.714844 1201.160156 58.160156 " fill-opacity="1" fill-rule="nonzero"/><g clip-path="url(#cb209cea11)"><path fill="#f35b56" d="M 1416.949219 251.792969 C 1411.066406 250.3125 1404.851562 249.53125 1398.46875 249.53125 C 1395.300781 249.53125 1392.105469 249.71875 1388.886719 250.105469 C 1379.589844 251.199219 1370.09375 253.914062 1360.472656 258.089844 L 1359.796875 256.925781 L 1334.753906 213.554688 C 1333.835938 211.972656 1334.980469 209.984375 1336.816406 209.984375 L 1436.960938 209.984375 C 1438.792969 209.984375 1439.941406 211.972656 1439.023438 213.554688 L 1416.949219 251.792969 " fill-opacity="1" fill-rule="nonzero"/></g><g clip-path="url(#03ce775a51)"><path fill="#f35b56" d="M 1389.042969 251.425781 C 1398.46875 250.3125 1407.703125 250.894531 1416.25 253.007812 L 1413.992188 256.925781 L 1388.949219 300.292969 C 1388.035156 301.875 1385.742188 301.875 1384.828125 300.292969 L 1361.136719 259.257812 C 1370.59375 255.164062 1379.921875 252.507812 1389.042969 251.425781 " fill-opacity="1" fill-rule="nonzero"/></g><path fill="#8c52ff" d="M 32.765625 759.222656 C 22.660156 755.800781 12.222656 752.546875 1.601562 750.089844 L 1.601562 709.742188 C 1.601562 708.40625 2.6875 707.316406 4.027344 707.316406 L 101.691406 707.316406 C 103.03125 707.316406 104.117188 708.40625 104.117188 709.742188 L 104.117188 787.582031 C 80.847656 776.925781 56.925781 767.402344 32.765625 759.222656 " fill-opacity="1" fill-rule="nonzero"/><g clip-path="url(#5cdcffcfb4)"><path fill="#8c52ff" d="M 32.34375 760.476562 C 56.648438 768.707031 80.714844 778.292969 104.117188 789.03125 L 104.117188 807.417969 C 104.117188 808.757812 103.03125 809.835938 101.691406 809.835938 L 4.027344 809.835938 C 2.6875 809.835938 1.601562 808.757812 1.601562 807.417969 L 1.601562 751.460938 C 12.070312 753.886719 22.359375 757.097656 32.34375 760.476562 " fill-opacity="1" fill-rule="nonzero"/></g><path fill="#38b6ff" d="M 199.195312 647.46875 C 196.964844 648.992188 194.851562 650.421875 192.707031 651.679688 C 183.210938 657.222656 174.898438 658.902344 167.996094 656.683594 C 157.652344 653.347656 152.65625 644.257812 152.273438 628.097656 C 152.136719 622.730469 151.765625 617.152344 151.359375 611.253906 C 151.152344 608.230469 150.957031 605.191406 150.78125 602.15625 L 205.960938 602.15625 C 207.300781 602.15625 208.378906 603.234375 208.378906 604.570312 L 208.378906 641.75 C 205.207031 643.394531 202.167969 645.449219 199.195312 647.46875 " fill-opacity="1" fill-rule="nonzero"/><path fill="#38b6ff" d="M 108.285156 602.15625 L 149.453125 602.15625 C 149.628906 605.265625 149.835938 608.332031 150.035156 611.347656 C 150.4375 617.226562 150.8125 622.792969 150.945312 628.128906 C 151.195312 638.703125 153.195312 653.292969 167.59375 657.9375 C 169.695312 658.621094 171.914062 658.953125 174.246094 658.953125 C 179.976562 658.953125 186.382812 656.914062 193.371094 652.828125 C 195.554688 651.542969 197.785156 650.03125 199.941406 648.570312 C 202.6875 646.703125 205.484375 644.816406 208.378906 643.261719 L 208.378906 702.246094 C 208.378906 703.585938 207.300781 704.664062 205.960938 704.664062 L 108.285156 704.664062 C 106.949219 704.664062 105.871094 703.585938 105.871094 702.246094 L 105.871094 604.570312 C 105.871094 603.234375 106.949219 602.15625 108.285156 602.15625 " fill-opacity="1" fill-rule="nonzero"/><g clip-path="url(#9abe6049b2)"><path fill="#fcd03e" d="M 26.175781 628.75 C 28.164062 628.65625 30.144531 628.492188 32.09375 628.324219 C 40.230469 627.652344 47.921875 627 55.488281 631.167969 C 59.144531 633.1875 61.777344 636.007812 62.898438 639.085938 C 63.839844 641.675781 63.726562 644.183594 62.578125 646.566406 C 60.253906 651.367188 54.023438 654.859375 48.976562 656.539062 C 33.503906 661.660156 18.441406 660.414062 2.53125 657.058594 C 2.480469 656.105469 2.386719 655.160156 2.386719 654.195312 C 2.386719 644.628906 5.105469 635.714844 9.726562 628.085938 C 10.191406 628.128906 10.660156 628.160156 11.136719 628.203125 C 16.070312 628.59375 21.179688 629 26.175781 628.75 " fill-opacity="1" fill-rule="nonzero"/></g><g clip-path="url(#f120f890c0)"><path fill="#fcd03e" d="M 26.871094 661.316406 C 34.363281 661.316406 41.824219 660.300781 49.402344 657.792969 C 51.972656 656.941406 60.617188 653.65625 63.769531 647.136719 C 65.085938 644.433594 65.207031 641.570312 64.152344 638.640625 C 62.917969 635.25 60.066406 632.183594 56.117188 630.003906 C 48.222656 625.640625 40.332031 626.304688 31.980469 627.007812 C 30.042969 627.164062 28.082031 627.332031 26.113281 627.433594 C 21.191406 627.671875 16.132812 627.269531 11.238281 626.875 C 10.992188 626.855469 10.742188 626.84375 10.492188 626.824219 C 19.488281 612.933594 35.089844 603.71875 52.863281 603.71875 C 80.734375 603.71875 103.332031 626.316406 103.332031 654.195312 C 103.332031 682.066406 80.734375 704.664062 52.863281 704.664062 C 26.414062 704.664062 4.761719 684.316406 2.605469 658.4375 C 10.84375 660.15625 18.878906 661.316406 26.871094 661.316406 " fill-opacity="1" fill-rule="nonzero"/></g><path fill="#f35b56" d="M 286.339844 777.371094 C 283.160156 780.171875 280.144531 782.8125 277.210938 784.492188 C 267.652344 789.953125 256.417969 791.488281 247.878906 788.484375 C 243.578125 786.96875 240.125 784.410156 237.566406 780.855469 C 245.226562 776.199219 249.804688 771.089844 251.566406 765.246094 C 253.320312 759.429688 249.910156 750.445312 245.058594 748.082031 C 243.347656 747.25 240 746.578125 236.652344 751.335938 C 232.632812 757.046875 230.972656 769.703125 233.441406 775.960938 C 234.070312 777.570312 234.820312 779.050781 235.699219 780.429688 C 227.3125 785.28125 217.789062 788.597656 207.996094 790.121094 L 207.996094 709.742188 C 207.996094 708.40625 209.082031 707.316406 210.417969 707.316406 L 308.097656 707.316406 C 309.433594 707.316406 310.511719 708.40625 310.511719 709.742188 L 310.511719 767.390625 C 301.578125 764.03125 293.503906 771.082031 286.339844 777.371094 " fill-opacity="1" fill-rule="nonzero"/><g clip-path="url(#4fe4f03770)"><path fill="#f35b56" d="M 236.445312 781.527344 C 239.171875 785.34375 242.902344 788.128906 247.441406 789.726562 C 256.335938 792.855469 267.984375 791.292969 277.875 785.644531 C 280.921875 783.890625 283.980469 781.207031 287.222656 778.367188 C 294.5625 771.917969 302.148438 765.277344 310.511719 768.808594 L 310.511719 807.417969 C 310.511719 808.757812 309.433594 809.835938 308.097656 809.835938 L 210.417969 809.835938 C 209.082031 809.835938 207.996094 808.757812 207.996094 807.417969 L 207.996094 791.46875 C 218.058594 789.921875 227.832031 786.523438 236.445312 781.527344 " fill-opacity="1" fill-rule="nonzero"/></g><path fill="#f35b56" d="M 237.742188 752.101562 C 238.871094 750.496094 240.550781 748.816406 242.601562 748.816406 C 243.191406 748.816406 243.816406 748.960938 244.46875 749.273438 C 248.757812 751.367188 251.859375 759.667969 250.292969 764.863281 C 248.625 770.386719 244.21875 775.269531 236.828125 779.753906 C 236 778.449219 235.285156 777.019531 234.671875 775.476562 C 232.339844 769.546875 233.917969 757.523438 237.742188 752.101562 " fill-opacity="1" fill-rule="nonzero"/><g clip-path="url(#490b5bda96)"><path fill="#f35b56" d="M 22.941406 559.359375 C 28.796875 560.832031 34.984375 561.609375 41.339844 561.609375 C 44.488281 561.609375 47.671875 561.421875 50.875 561.039062 C 60.128906 559.949219 69.582031 557.246094 79.160156 553.089844 L 79.832031 554.25 L 104.761719 597.417969 C 105.671875 598.992188 104.53125 600.972656 102.707031 600.972656 L 3.019531 600.972656 C 1.195312 600.972656 0.0546875 598.992188 0.96875 597.417969 L 22.941406 559.359375 " fill-opacity="1" fill-rule="nonzero"/></g><g clip-path="url(#6d6e15b135)"><path fill="#f35b56" d="M 50.71875 559.722656 C 41.339844 560.832031 32.144531 560.25 23.636719 558.144531 L 25.886719 554.25 L 50.8125 511.078125 C 51.722656 509.503906 54.003906 509.503906 54.917969 511.078125 L 78.496094 551.925781 C 69.085938 556 59.796875 558.644531 50.71875 559.722656 " fill-opacity="1" fill-rule="nonzero"/></g><path fill="#38b6ff" d="M 1128.390625 700.636719 C 1125.851562 712.390625 1123.929688 724.851562 1122.96875 737.484375 L 1183.566406 714.507812 C 1186.089844 701.863281 1188.777344 689.09375 1192.097656 676.484375 L 1128.390625 700.636719 " fill-opacity="1" fill-rule="nonzero"/><path fill="#38b6ff" d="M 1235.023438 681.761719 C 1236.238281 674.003906 1237.746094 666.246094 1239.320312 658.582031 L 1193.8125 675.835938 C 1190.453125 688.433594 1187.734375 701.226562 1185.210938 713.882812 L 1233.007812 695.761719 C 1233.644531 691.109375 1234.28125 686.464844 1235.023438 681.761719 " fill-opacity="1" fill-rule="nonzero"/><path fill="#38b6ff" d="M 1126.746094 701.261719 L 1082.40625 718.074219 C 1079.363281 719.222656 1077.820312 722.636719 1078.980469 725.683594 L 1086.332031 745.054688 C 1087.480469 748.113281 1090.894531 749.640625 1093.941406 748.484375 L 1121.441406 738.0625 C 1122.378906 725.453125 1124.253906 713.015625 1126.746094 701.261719 " fill-opacity="1" fill-rule="nonzero"/><path fill="#38b6ff" d="M 1335.21875 644.5 C 1329.347656 639.695312 1323.109375 634.578125 1317.15625 629.078125 L 1240.964844 657.957031 C 1239.320312 665.910156 1237.757812 673.957031 1236.484375 681.996094 C 1235.789062 686.417969 1235.195312 690.785156 1234.59375 695.160156 L 1345.757812 653.023438 C 1344.542969 652.132812 1343.382812 651.25 1342.375 650.40625 C 1340.09375 648.496094 1337.6875 646.527344 1335.21875 644.5 " fill-opacity="1" fill-rule="nonzero"/><path fill="#38b6ff" d="M 1383.910156 632.238281 L 1376.558594 612.867188 C 1375.410156 609.820312 1371.996094 608.28125 1368.949219 609.4375 L 1318.707031 628.488281 C 1324.460938 633.777344 1330.496094 638.722656 1336.15625 643.355469 C 1338.636719 645.378906 1341.03125 647.347656 1343.324219 649.269531 C 1344.519531 650.277344 1345.917969 651.320312 1347.425781 652.386719 L 1380.484375 639.855469 C 1383.527344 638.699219 1385.070312 635.296875 1383.910156 632.238281 " fill-opacity="1" fill-rule="nonzero"/><path fill="#38b6ff" d="M 1230.613281 729.898438 C 1236.621094 723.414062 1245.191406 719.328125 1254.730469 719.328125 C 1270.652344 719.328125 1283.933594 730.640625 1286.992188 745.65625 C 1292.5625 738.167969 1298.882812 731.378906 1305.84375 725.417969 C 1296.1875 707.039062 1276.929688 694.5 1254.730469 694.5 C 1247.460938 694.5 1240.535156 695.902344 1234.132812 698.34375 C 1232.683594 709.03125 1231.539062 719.546875 1230.613281 729.898438 " fill-opacity="1" fill-rule="nonzero"/><path fill="#f35b56" d="M 1230.613281 729.898438 C 1236.621094 723.414062 1245.191406 719.328125 1254.730469 719.328125 C 1270.652344 719.328125 1283.933594 730.640625 1286.992188 745.65625 C 1292.5625 738.167969 1298.882812 731.378906 1305.84375 725.417969 C 1296.1875 707.039062 1276.929688 694.5 1254.730469 694.5 C 1247.460938 694.5 1240.535156 695.902344 1234.132812 698.34375 C 1232.683594 709.03125 1231.539062 719.546875 1230.613281 729.898438 " fill-opacity="1" fill-rule="nonzero"/><g clip-path="url(#62754eb48b)"><path fill="#38b6ff" d="M 1254.730469 785.167969 C 1243.859375 785.167969 1234.257812 779.875 1228.261719 771.757812 C 1228.132812 779.515625 1228.144531 787.691406 1228.332031 796.59375 C 1228.375 798.832031 1228.273438 801.125 1228.144531 803.484375 C 1236.101562 807.621094 1245.132812 810.003906 1254.730469 810.003906 C 1257.035156 810.003906 1259.292969 809.832031 1261.515625 809.566406 C 1262.769531 800.152344 1264.875 791.082031 1267.792969 782.46875 C 1263.785156 784.195312 1259.375 785.167969 1254.730469 785.167969 " fill-opacity="1" fill-rule="nonzero"/><path fill="#f35b56" d="M 1254.730469 785.167969 C 1243.859375 785.167969 1234.257812 779.875 1228.261719 771.757812 C 1228.132812 779.515625 1228.144531 787.691406 1228.332031 796.59375 C 1228.375 798.832031 1228.273438 801.125 1228.144531 803.484375 C 1236.101562 807.621094 1245.132812 810.003906 1254.730469 810.003906 C 1257.035156 810.003906 1259.292969 809.832031 1261.515625 809.566406 C 1262.769531 800.152344 1264.875 791.082031 1267.792969 782.46875 C 1263.785156 784.195312 1259.375 785.167969 1254.730469 785.167969 " fill-opacity="1" fill-rule="nonzero"/></g><path fill="#38b6ff" d="M 1226.847656 796.617188 C 1226.640625 786.902344 1226.640625 778.011719 1226.8125 769.628906 C 1223.664062 764.578125 1221.8125 758.636719 1221.8125 752.246094 C 1221.8125 744.523438 1224.496094 737.425781 1228.957031 731.808594 C 1229.882812 721.027344 1231.0625 710.074219 1232.546875 698.921875 C 1211.667969 707.632812 1196.984375 728.21875 1196.984375 752.246094 C 1196.984375 773.96875 1208.980469 792.855469 1226.699219 802.722656 C 1226.800781 800.636719 1226.882812 798.585938 1226.847656 796.617188 " fill-opacity="1" fill-rule="nonzero"/><path fill="#f35b56" d="M 1226.847656 796.617188 C 1226.640625 786.902344 1226.640625 778.011719 1226.8125 769.628906 C 1223.664062 764.578125 1221.8125 758.636719 1221.8125 752.246094 C 1221.8125 744.523438 1224.496094 737.425781 1228.957031 731.808594 C 1229.882812 721.027344 1231.0625 710.074219 1232.546875 698.921875 C 1211.667969 707.632812 1196.984375 728.21875 1196.984375 752.246094 C 1196.984375 773.96875 1208.980469 792.855469 1226.699219 802.722656 C 1226.800781 800.636719 1226.882812 798.585938 1226.847656 796.617188 " fill-opacity="1" fill-rule="nonzero"/><path fill="#38b6ff" d="M 1287.304688 747.730469 C 1287.511719 749.214844 1287.652344 750.707031 1287.652344 752.246094 C 1287.652344 765.042969 1280.34375 776.101562 1269.691406 781.542969 C 1266.601562 790.367188 1264.34375 799.664062 1263.035156 809.332031 C 1290.988281 805.304688 1312.476562 781.3125 1312.476562 752.246094 C 1312.476562 743.109375 1310.300781 734.496094 1306.515625 726.808594 C 1299.382812 732.945312 1292.933594 739.960938 1287.304688 747.730469 " fill-opacity="1" fill-rule="nonzero"/><path fill="#f35b56" d="M 1287.304688 747.730469 C 1287.511719 749.214844 1287.652344 750.707031 1287.652344 752.246094 C 1287.652344 765.042969 1280.34375 776.101562 1269.691406 781.542969 C 1266.601562 790.367188 1264.34375 799.664062 1263.035156 809.332031 C 1290.988281 805.304688 1312.476562 781.3125 1312.476562 752.246094 C 1312.476562 743.109375 1310.300781 734.496094 1306.515625 726.808594 C 1299.382812 732.945312 1292.933594 739.960938 1287.304688 747.730469 " fill-opacity="1" fill-rule="nonzero"/><path fill="#fcd03e" d="M 1351.210938 526.933594 L 1351.429688 530.328125 C 1351.871094 537.171875 1353.804688 553.925781 1362.222656 561.707031 C 1367.304688 566.398438 1374.414062 568.644531 1381.257812 567.742188 C 1388.773438 566.746094 1396.035156 562.054688 1401.71875 554.539062 C 1410.53125 542.914062 1415.164062 529.078125 1419.667969 515.703125 C 1419.773438 515.390625 1419.875 515.078125 1419.980469 514.777344 L 1384.28125 488.839844 C 1380.183594 485.863281 1374.625 485.863281 1370.523438 488.839844 L 1349.796875 503.890625 C 1350.25 511.628906 1350.722656 519.339844 1351.210938 526.933594 " fill-opacity="1" fill-rule="nonzero"/><g clip-path="url(#85d0cb3c63)"><path fill="#fcd03e" d="M 1434.628906 525.417969 L 1421.230469 515.679688 C 1421.171875 515.84375 1421.128906 516.003906 1421.070312 516.167969 C 1416.542969 529.667969 1411.851562 543.609375 1402.902344 555.445312 C 1396.984375 563.269531 1389.363281 568.15625 1381.457031 569.210938 C 1380.402344 569.351562 1379.324219 569.421875 1378.261719 569.421875 C 1372.019531 569.421875 1365.835938 567.058594 1361.214844 562.796875 C 1352.402344 554.65625 1350.398438 537.4375 1349.949219 530.421875 L 1349.742188 527.039062 C 1349.265625 519.746094 1348.8125 512.355469 1348.375 504.933594 L 1320.191406 525.417969 C 1316.089844 528.394531 1314.367188 533.675781 1315.941406 538.503906 L 1335.160156 597.671875 C 1336.738281 602.503906 1341.230469 605.769531 1346.300781 605.769531 L 1408.515625 605.769531 C 1413.589844 605.769531 1418.082031 602.503906 1419.65625 597.671875 L 1438.878906 538.503906 C 1440.441406 533.675781 1438.726562 528.394531 1434.628906 525.417969 " fill-opacity="1" fill-rule="nonzero"/></g><path fill="#38b6ff" d="M 311.609375 109.363281 C 314.144531 97.609375 316.066406 85.148438 317.027344 72.515625 L 256.433594 95.492188 C 253.90625 108.136719 251.222656 120.90625 247.898438 133.515625 L 311.609375 109.363281 " fill-opacity="1" fill-rule="nonzero"/><path fill="#38b6ff" d="M 204.972656 128.238281 C 203.757812 135.996094 202.253906 143.753906 200.675781 151.417969 L 246.183594 134.164062 C 249.542969 121.566406 252.261719 108.773438 254.789062 96.117188 L 206.988281 114.238281 C 206.351562 118.890625 205.714844 123.535156 204.972656 128.238281 " fill-opacity="1" fill-rule="nonzero"/><path fill="#38b6ff" d="M 313.25 108.738281 L 357.589844 91.925781 C 360.632812 90.777344 362.175781 87.363281 361.015625 84.316406 L 353.664062 64.945312 C 352.515625 61.886719 349.101562 60.359375 346.054688 61.515625 L 318.554688 71.9375 C 317.617188 84.546875 315.742188 96.984375 313.25 108.738281 " fill-opacity="1" fill-rule="nonzero"/><path fill="#38b6ff" d="M 104.777344 165.5 C 110.648438 170.304688 116.890625 175.421875 122.839844 180.921875 L 199.03125 152.042969 C 200.675781 144.089844 202.242188 136.042969 203.515625 128.003906 C 204.210938 123.582031 204.800781 119.214844 205.402344 114.839844 L 94.238281 156.976562 C 95.457031 157.867188 96.613281 158.75 97.621094 159.59375 C 99.902344 161.503906 102.3125 163.472656 104.777344 165.5 " fill-opacity="1" fill-rule="nonzero"/><path fill="#38b6ff" d="M 56.085938 177.761719 L 63.4375 197.132812 C 64.585938 200.179688 68 201.71875 71.046875 200.5625 L 121.289062 181.511719 C 115.535156 176.222656 109.5 171.277344 103.839844 166.644531 C 101.359375 164.621094 98.964844 162.652344 96.671875 160.730469 C 95.480469 159.722656 94.078125 158.679688 92.574219 157.613281 L 59.511719 170.144531 C 56.46875 171.300781 54.929688 174.703125 56.085938 177.761719 " fill-opacity="1" fill-rule="nonzero"/><path fill="#38b6ff" d="M 209.386719 80.101562 C 203.375 86.585938 194.804688 90.671875 185.265625 90.671875 C 169.34375 90.671875 156.0625 79.359375 153.003906 64.34375 C 147.433594 71.832031 141.113281 78.621094 134.152344 84.582031 C 143.8125 102.960938 163.066406 115.5 185.265625 115.5 C 192.535156 115.5 199.460938 114.097656 205.863281 111.65625 C 207.3125 100.96875 208.457031 90.453125 209.386719 80.101562 " fill-opacity="1" fill-rule="nonzero"/><path fill="#f35b56" d="M 209.386719 80.101562 C 203.375 86.585938 194.804688 90.671875 185.265625 90.671875 C 169.34375 90.671875 156.0625 79.359375 153.003906 64.34375 C 147.433594 71.832031 141.113281 78.621094 134.152344 84.582031 C 143.8125 102.960938 163.066406 115.5 185.265625 115.5 C 192.535156 115.5 199.460938 114.097656 205.863281 111.65625 C 207.3125 100.96875 208.457031 90.453125 209.386719 80.101562 " fill-opacity="1" fill-rule="nonzero"/><g clip-path="url(#3b09430dbf)"><path fill="#38b6ff" d="M 185.265625 24.832031 C 196.136719 24.832031 205.738281 30.125 211.734375 38.242188 C 211.863281 30.484375 211.851562 22.308594 211.667969 13.40625 C 211.621094 11.167969 211.722656 8.875 211.851562 6.515625 C 203.894531 2.378906 194.863281 -0.00390625 185.265625 -0.00390625 C 182.960938 -0.00390625 180.703125 0.167969 178.480469 0.433594 C 177.230469 9.847656 175.121094 18.917969 172.203125 27.53125 C 176.210938 25.804688 180.621094 24.832031 185.265625 24.832031 " fill-opacity="1" fill-rule="nonzero"/><path fill="#f35b56" d="M 185.265625 24.832031 C 196.136719 24.832031 205.738281 30.125 211.734375 38.242188 C 211.863281 30.484375 211.851562 22.308594 211.667969 13.40625 C 211.621094 11.167969 211.722656 8.875 211.851562 6.515625 C 203.894531 2.378906 194.863281 -0.00390625 185.265625 -0.00390625 C 182.960938 -0.00390625 180.703125 0.167969 178.480469 0.433594 C 177.230469 9.847656 175.121094 18.917969 172.203125 27.53125 C 176.210938 25.804688 180.621094 24.832031 185.265625 24.832031 " fill-opacity="1" fill-rule="nonzero"/></g><path fill="#38b6ff" d="M 213.148438 13.382812 C 213.355469 23.097656 213.355469 31.988281 213.183594 40.371094 C 216.332031 45.421875 218.183594 51.363281 218.183594 57.753906 C 218.183594 65.476562 215.5 72.574219 211.039062 78.191406 C 210.113281 88.972656 208.933594 99.925781 207.453125 111.078125 C 228.328125 102.367188 243.011719 81.78125 243.011719 57.753906 C 243.011719 36.03125 231.015625 17.144531 213.296875 7.277344 C 213.195312 9.363281 213.113281 11.414062 213.148438 13.382812 " fill-opacity="1" fill-rule="nonzero"/><path fill="#f35b56" d="M 213.148438 13.382812 C 213.355469 23.097656 213.355469 31.988281 213.183594 40.371094 C 216.332031 45.421875 218.183594 51.363281 218.183594 57.753906 C 218.183594 65.476562 215.5 72.574219 211.039062 78.191406 C 210.113281 88.972656 208.933594 99.925781 207.453125 111.078125 C 228.328125 102.367188 243.011719 81.78125 243.011719 57.753906 C 243.011719 36.03125 231.015625 17.144531 213.296875 7.277344 C 213.195312 9.363281 213.113281 11.414062 213.148438 13.382812 " fill-opacity="1" fill-rule="nonzero"/><path fill="#38b6ff" d="M 152.691406 62.269531 C 152.484375 60.785156 152.34375 59.292969 152.34375 57.753906 C 152.34375 44.957031 159.652344 33.898438 170.304688 28.457031 C 173.394531 19.632812 175.652344 10.335938 176.960938 0.667969 C 149.011719 4.695312 127.519531 28.6875 127.519531 57.753906 C 127.519531 66.890625 129.695312 75.503906 133.480469 83.191406 C 140.613281 77.054688 147.066406 70.039062 152.691406 62.269531 " fill-opacity="1" fill-rule="nonzero"/><path fill="#f35b56" d="M 152.691406 62.269531 C 152.484375 60.785156 152.34375 59.292969 152.34375 57.753906 C 152.34375 44.957031 159.652344 33.898438 170.304688 28.457031 C 173.394531 19.632812 175.652344 10.335938 176.960938 0.667969 C 149.011719 4.695312 127.519531 28.6875 127.519531 57.753906 C 127.519531 66.890625 129.695312 75.503906 133.480469 83.191406 C 140.613281 77.054688 147.066406 70.039062 152.691406 62.269531 " fill-opacity="1" fill-rule="nonzero"/><path fill="#fcd03e" d="M 88.785156 283.066406 L 88.566406 279.671875 C 88.125 272.828125 86.191406 256.074219 77.773438 248.292969 C 72.691406 243.601562 65.582031 241.355469 58.738281 242.257812 C 51.222656 243.253906 43.960938 247.945312 38.277344 255.460938 C 29.464844 267.085938 24.832031 280.921875 20.328125 294.296875 C 20.222656 294.609375 20.121094 294.921875 20.015625 295.222656 L 55.714844 321.160156 C 59.8125 324.136719 65.371094 324.136719 69.472656 321.160156 L 90.199219 306.109375 C 89.746094 298.371094 89.273438 290.660156 88.785156 283.066406 " fill-opacity="1" fill-rule="nonzero"/><g clip-path="url(#53aa947f7b)"><path fill="#fcd03e" d="M 5.367188 284.582031 L 18.765625 294.320312 C 18.824219 294.15625 18.871094 293.996094 18.925781 293.832031 C 23.453125 280.332031 28.144531 266.390625 37.09375 254.554688 C 43.011719 246.730469 50.632812 241.84375 58.539062 240.789062 C 59.59375 240.648438 60.671875 240.578125 61.738281 240.578125 C 67.976562 240.578125 74.160156 242.941406 78.78125 247.203125 C 87.59375 255.34375 89.597656 272.5625 90.046875 279.578125 L 90.257812 282.960938 C 90.730469 290.253906 91.183594 297.644531 91.621094 305.066406 L 119.808594 284.582031 C 123.90625 281.605469 125.632812 276.324219 124.054688 271.496094 L 104.835938 212.328125 C 103.261719 207.496094 98.765625 204.230469 93.695312 204.230469 L 31.480469 204.230469 C 26.40625 204.230469 21.914062 207.496094 20.339844 212.328125 L 1.117188 271.496094 C -0.445312 276.324219 1.269531 281.605469 5.367188 284.582031 " fill-opacity="1" fill-rule="nonzero"/></g></svg>