<svg xmlns="http://www.w3.org/2000/svg" xmlns:xlink="http://www.w3.org/1999/xlink" width="1920" zoomAndPan="magnify" viewBox="0 0 1440 809.999993" height="1080" preserveAspectRatio="xMidYMid meet" version="1.0"><defs><clipPath id="ae4ac06647"><path d="M 341.992188 -619.242188 L 1654 -140.863281 L 1132.972656 1288.113281 L -179.035156 809.730469 Z M 341.992188 -619.242188 " clip-rule="nonzero"/></clipPath><clipPath id="0101492d92"><path d="M 271.597656 -426.175781 L 1583.605469 52.203125 L 1153.78125 1231.039062 L -158.226562 752.65625 Z M 271.597656 -426.175781 " clip-rule="nonzero"/></clipPath><clipPath id="3c411ac194"><path d="M 341.996094 -619.246094 L 1654.003906 -140.867188 L 1132.972656 1288.109375 L -179.035156 809.730469 Z M 341.996094 -619.246094 " clip-rule="nonzero"/></clipPath><clipPath id="fbf78a397b"><path d="M 46 44 L 1440 44 L 1440 810 L 46 810 Z M 46 44 " clip-rule="nonzero"/></clipPath><clipPath id="c6a47054bf"><path d="M 341.992188 -619.242188 L 1654 -140.863281 L 1132.972656 1288.113281 L -179.035156 809.730469 Z M 341.992188 -619.242188 " clip-rule="nonzero"/></clipPath><clipPath id="9804080753"><path d="M 271.597656 -426.175781 L 1583.605469 52.203125 L 1153.78125 1231.039062 L -158.226562 752.65625 Z M 271.597656 -426.175781 " clip-rule="nonzero"/></clipPath><clipPath id="ac9507be25"><path d="M 341.996094 -619.246094 L 1654.003906 -140.867188 L 1132.972656 1288.109375 L -179.035156 809.730469 Z M 341.996094 -619.246094 " clip-rule="nonzero"/></clipPath><clipPath id="e125c3a2ef"><path d="M 132 139 L 1440 139 L 1440 810 L 132 810 Z M 132 139 " clip-rule="nonzero"/></clipPath><clipPath id="7210cc28f0"><path d="M 341.992188 -619.242188 L 1654 -140.863281 L 1132.972656 1288.113281 L -179.035156 809.730469 Z M 341.992188 -619.242188 " clip-rule="nonzero"/></clipPath><clipPath id="3021ea5ecb"><path d="M 271.597656 -426.175781 L 1583.605469 52.203125 L 1153.78125 1231.039062 L -158.226562 752.65625 Z M 271.597656 -426.175781 " clip-rule="nonzero"/></clipPath><clipPath id="4bfbc72050"><path d="M 341.996094 -619.246094 L 1654.003906 -140.867188 L 1132.972656 1288.109375 L -179.035156 809.730469 Z M 341.996094 -619.246094 " clip-rule="nonzero"/></clipPath><clipPath id="1c8e693419"><path d="M 224 236 L 1440 236 L 1440 810 L 224 810 Z M 224 236 " clip-rule="nonzero"/></clipPath><clipPath id="056c3c0073"><path d="M 341.992188 -619.242188 L 1654 -140.863281 L 1132.972656 1288.113281 L -179.035156 809.730469 Z M 341.992188 -619.242188 " clip-rule="nonzero"/></clipPath><clipPath id="4a6e7e09d4"><path d="M 271.597656 -426.175781 L 1583.605469 52.203125 L 1153.78125 1231.039062 L -158.226562 752.65625 Z M 271.597656 -426.175781 " clip-rule="nonzero"/></clipPath><clipPath id="97267f58ba"><path d="M 341.996094 -619.246094 L 1654.003906 -140.867188 L 1132.972656 1288.109375 L -179.035156 809.730469 Z M 341.996094 -619.246094 " clip-rule="nonzero"/></clipPath><clipPath id="b5b36a320b"><path d="M 318 326 L 1440 326 L 1440 810 L 318 810 Z M 318 326 " clip-rule="nonzero"/></clipPath><clipPath id="05e719e9a8"><path d="M 341.992188 -619.242188 L 1654 -140.863281 L 1132.972656 1288.113281 L -179.035156 809.730469 Z M 341.992188 -619.242188 " clip-rule="nonzero"/></clipPath><clipPath id="0cce372ae8"><path d="M 271.597656 -426.175781 L 1583.605469 52.203125 L 1153.78125 1231.039062 L -158.226562 752.65625 Z M 271.597656 -426.175781 " clip-rule="nonzero"/></clipPath><clipPath id="1c959a8554"><path d="M 341.996094 -619.246094 L 1654.003906 -140.867188 L 1132.972656 1288.109375 L -179.035156 809.730469 Z M 341.996094 -619.246094 " clip-rule="nonzero"/></clipPath></defs><g clip-path="url(#ae4ac06647)"><g clip-path="url(#0101492d92)"><g clip-path="url(#3c411ac194)"><path fill="#f8ce4d" d="M 1622.59375 -58.183594 L 1595.0625 17.316406 L 1566.238281 96.375 L 1541.054688 165.445312 L 1512.285156 244.351562 L 1482.167969 326.945312 L 1459.542969 388.996094 L 1437.378906 449.78125 C 1426.339844 452.132812 1415.421875 454.90625 1404.625 458.058594 C 1365.726562 469.429688 1328.636719 486.183594 1294.675781 509.628906 C 1234.691406 551.039062 1184.457031 613.25 1151.464844 703.742188 C 1108.421875 821.789062 1058.480469 861.234375 1002.207031 866.511719 C 889.109375 877.117188 750.40625 749.589844 590.53125 843.910156 C 529.753906 879.765625 477.769531 951.59375 434.957031 1033.601562 L 389.117188 1016.886719 L 318.898438 991.28125 L 292.996094 981.839844 L 224.96875 957.035156 L 132.449219 923.300781 L 46.226562 891.863281 L -23.410156 866.472656 L -112.894531 833.84375 C -112.894531 833.84375 -8.242188 344.890625 187.597656 229.351562 C 427.023438 88.101562 618.980469 444.484375 748.53125 89.179688 C 928.835938 -405.320312 1622.59375 -58.183594 1622.59375 -58.183594 Z M 1622.59375 -58.183594 " fill-opacity="1" fill-rule="nonzero"/><path fill="#dd2a55" d="M 1622.59375 -58.183594 L 1595.0625 17.316406 C 1398.195312 -57.230469 955.78125 -174.804688 817.09375 205.554688 C 687.546875 560.855469 495.585938 204.476562 256.164062 345.726562 C 111.140625 431.28125 16.136719 721.5625 -23.410156 866.472656 L -112.894531 833.84375 C -112.894531 833.84375 -8.242188 344.890625 187.597656 229.351562 C 427.023438 88.101562 618.980469 444.484375 748.53125 89.179688 C 928.835938 -405.320312 1622.59375 -58.183594 1622.59375 -58.183594 Z M 1622.59375 -58.183594 " fill-opacity="1" fill-rule="nonzero"/><path fill="#f77b28" d="M 1595.0625 17.316406 L 1566.238281 96.375 C 1348.632812 27.714844 986.4375 -26.847656 863.375 310.660156 C 733.824219 665.960938 541.867188 309.578125 302.441406 450.828125 C 180.742188 522.628906 94.269531 738.609375 46.226562 891.863281 L -23.410156 866.472656 C 16.136719 721.5625 111.136719 431.28125 256.164062 345.726562 C 495.585938 204.476562 687.546875 560.855469 817.09375 205.554688 C 955.78125 -174.804688 1398.195312 -57.230469 1595.0625 17.316406 Z M 1595.0625 17.316406 " fill-opacity="1" fill-rule="nonzero"/></g></g></g><g clip-path="url(#fbf78a397b)"><g clip-path="url(#c6a47054bf)"><g clip-path="url(#9804080753)"><g clip-path="url(#ac9507be25)"><path fill="#f8ce4d" d="M 132.449219 923.300781 L 46.226562 891.863281 C 94.269531 738.609375 180.742188 522.628906 302.441406 450.828125 C 541.867188 309.578125 733.824219 665.960938 863.375 310.660156 C 986.4375 -26.847656 1348.632812 27.714844 1566.238281 96.375 L 1541.054688 165.445312 C 1324.585938 114.308594 1036.011719 110.875 928.839844 404.804688 C 799.289062 760.109375 607.328125 403.726562 367.90625 544.976562 C 262.078125 607.410156 182.898438 778.863281 132.449219 923.300781 Z M 132.449219 923.300781 " fill-opacity="1" fill-rule="nonzero"/></g></g></g></g><g clip-path="url(#e125c3a2ef)"><g clip-path="url(#7210cc28f0)"><g clip-path="url(#3021ea5ecb)"><g clip-path="url(#4bfbc72050)"><path fill="#4d9f54" d="M 1541.054688 165.445312 L 1512.285156 244.351562 C 1398.472656 228.605469 1276.175781 233.03125 1175.234375 287.085938 C 1100.164062 327.289062 1036.910156 394.894531 997.8125 502.117188 C 948.492188 637.386719 890.117188 669.460938 823.527344 665.152344 C 715.210938 658.144531 585.152344 554.8125 436.882812 642.289062 C 346.273438 695.742188 275.203125 829.121094 224.96875 957.035156 L 132.449219 923.300781 C 182.898438 778.863281 262.078125 607.410156 367.90625 544.976562 C 607.328125 403.726562 799.289062 760.109375 928.839844 404.804688 C 1036.011719 110.875 1324.585938 114.308594 1541.054688 165.445312 Z M 1541.054688 165.445312 " fill-opacity="1" fill-rule="nonzero"/></g></g></g></g><g clip-path="url(#1c8e693419)"><g clip-path="url(#056c3c0073)"><g clip-path="url(#4a6e7e09d4)"><g clip-path="url(#97267f58ba)"><path fill="#3d81db" d="M 1512.285156 244.351562 L 1482.167969 326.945312 C 1433.367188 326.304688 1384.617188 330.769531 1338.089844 342.4375 C 1293.214844 353.691406 1250.445312 371.703125 1211.734375 398.390625 C 1151.667969 439.800781 1101.371094 502.046875 1068.34375 592.628906 C 1048.597656 646.785156 1027.394531 684.335938 1004.800781 709.707031 C 879.164062 850.777344 710.339844 613.078125 507.410156 732.796875 C 430.070312 778.425781 366.964844 882.296875 318.898438 991.285156 L 292.996094 981.839844 L 224.96875 957.035156 C 275.203125 829.121094 346.273438 695.742188 436.878906 642.289062 C 585.152344 554.8125 715.210938 658.144531 823.527344 665.152344 C 890.117188 669.460938 948.492188 637.386719 997.8125 502.117188 C 1036.910156 394.894531 1100.164062 327.289062 1175.234375 287.085938 C 1276.175781 233.03125 1398.472656 228.605469 1512.285156 244.351562 Z M 1512.285156 244.351562 " fill-opacity="1" fill-rule="nonzero"/></g></g></g></g><g clip-path="url(#b5b36a320b)"><g clip-path="url(#05e719e9a8)"><g clip-path="url(#0cce372ae8)"><g clip-path="url(#1c959a8554)"><path fill="#b07acc" d="M 1482.167969 326.945312 L 1459.542969 388.996094 L 1437.378906 449.78125 C 1426.339844 452.132812 1415.421875 454.90625 1404.625 458.058594 C 1365.726562 469.429688 1328.636719 486.183594 1294.675781 509.628906 C 1234.691406 551.039062 1184.457031 613.25 1151.464844 703.742188 C 1108.421875 821.789062 1058.480469 861.234375 1002.207031 866.511719 C 889.109375 877.117188 750.40625 749.589844 590.53125 843.910156 C 529.753906 879.765625 477.769531 951.59375 434.960938 1033.601562 L 389.117188 1016.886719 L 318.898438 991.28125 C 366.964844 882.292969 430.070312 778.425781 507.410156 732.796875 C 710.339844 613.078125 879.164062 850.777344 1004.800781 709.707031 C 1027.394531 684.335938 1048.597656 646.785156 1068.34375 592.628906 C 1101.371094 502.046875 1151.671875 439.800781 1211.734375 398.390625 C 1250.449219 371.703125 1293.214844 353.6875 1338.089844 342.4375 C 1384.617188 330.769531 1433.367188 326.304688 1482.167969 326.945312 Z M 1482.167969 326.945312 " fill-opacity="1" fill-rule="nonzero"/></g></g></g></g></svg>