<svg xmlns="http://www.w3.org/2000/svg" xmlns:xlink="http://www.w3.org/1999/xlink" width="500" zoomAndPan="magnify" viewBox="0 0 375 374.999991" height="500" preserveAspectRatio="xMidYMid meet" version="1.0"><defs><clipPath id="ed05fd0361"><path d="M 74 23.273438 L 177 23.273438 L 177 162 L 74 162 Z M 74 23.273438 " clip-rule="nonzero"/></clipPath><clipPath id="b4ce4a4281"><path d="M 45.367188 147 L 150 147 L 150 208 L 45.367188 208 Z M 45.367188 147 " clip-rule="nonzero"/></clipPath><clipPath id="05e1fd9dd6"><path d="M 180 158 L 329.617188 158 L 329.617188 250 L 180 250 Z M 180 158 " clip-rule="nonzero"/></clipPath><clipPath id="b9a48c1063"><path d="M 158 155 L 207 155 L 207 351.628906 L 158 351.628906 Z M 158 155 " clip-rule="nonzero"/></clipPath></defs><path fill="#94b202" d="M 209.683594 118.625 C 201.742188 126.527344 194.785156 136.949219 189.675781 150.640625 C 189.675781 150.640625 192.917969 152.074219 198.367188 153.507812 C 218.480469 158.8125 268.730469 164.148438 297.792969 97.714844 C 297.792969 97.714844 244.371094 84.089844 209.683594 118.625 " fill-opacity="1" fill-rule="nonzero"/><g clip-path="url(#ed05fd0361)"><path fill="#94b202" d="M 124.804688 141.074219 C 137.675781 150.296875 153.832031 157.574219 174.117188 161.511719 C 174.117188 161.511719 175.363281 156.652344 176.097656 148.726562 C 178.816406 119.476562 174.585938 48.234375 75.152344 23.191406 C 75.152344 23.191406 68.566406 100.78125 124.804688 141.074219 " fill-opacity="1" fill-rule="nonzero"/></g><g clip-path="url(#b4ce4a4281)"><path fill="#94b202" d="M 81.683594 148.554688 C 70.960938 147.105469 58.878906 147.882812 45.367188 151.996094 C 45.367188 151.996094 46.171875 155.324219 48.269531 160.347656 C 56 178.875 81.378906 220.53125 149.429688 203.832031 C 149.429688 203.832031 128.546875 154.882812 81.683594 148.554688 " fill-opacity="1" fill-rule="nonzero"/></g><g clip-path="url(#05e1fd9dd6)"><path fill="#94b202" d="M 206.824219 196.921875 C 196.210938 208.667969 187.167969 223.890625 180.972656 243.59375 C 180.972656 243.59375 185.660156 245.375 193.460938 247 C 222.242188 252.980469 293.554688 256.777344 329.617188 160.851562 C 329.617188 160.851562 253.207031 145.597656 206.824219 196.921875 " fill-opacity="1" fill-rule="nonzero"/></g><g clip-path="url(#b9a48c1063)"><path fill="#94b202" d="M 188.5625 351.566406 C 188.207031 351.152344 188.046875 350.933594 187.828125 350.660156 C 187.613281 350.386719 187.433594 350.140625 187.25 349.894531 L 186.695312 349.152344 L 186.179688 348.425781 C 185.476562 347.457031 184.851562 346.496094 184.203125 345.53125 C 183.582031 344.566406 182.964844 343.605469 182.367188 342.640625 C 181.789062 341.671875 181.199219 340.703125 180.632812 339.734375 C 178.375 335.847656 176.378906 331.875 174.507812 327.871094 C 170.820312 319.84375 167.804688 311.601562 165.449219 303.226562 C 163.09375 294.847656 161.410156 286.339844 160.347656 277.800781 C 159.285156 269.257812 158.839844 260.695312 158.90625 252.183594 C 159.070312 247.925781 159.128906 243.679688 159.546875 239.460938 L 159.800781 236.296875 C 159.847656 235.765625 159.871094 235.238281 159.941406 234.714844 L 160.136719 233.140625 L 160.921875 226.855469 C 162.214844 218.523438 163.769531 210.265625 165.996094 202.203125 C 170.273438 186.035156 176.230469 170.472656 183.429688 155.621094 C 178.054688 171.226562 174.058594 187.234375 171.808594 203.375 C 170.589844 211.425781 170.0625 219.542969 169.785156 227.601562 L 169.757812 233.648438 L 169.75 235.15625 C 169.742188 235.65625 169.785156 236.160156 169.796875 236.660156 L 169.917969 239.675781 C 170 243.691406 170.433594 247.679688 170.75 251.65625 C 171.648438 259.597656 173.015625 267.441406 174.921875 275.109375 C 176.828125 282.773438 179.277344 290.257812 182.273438 297.46875 C 185.269531 304.671875 188.816406 311.601562 192.828125 318.136719 C 194.855469 321.394531 196.96875 324.574219 199.238281 327.570312 C 199.804688 328.320312 200.386719 329.050781 200.953125 329.789062 C 201.535156 330.511719 202.121094 331.222656 202.707031 331.929688 C 203.300781 332.609375 203.890625 333.3125 204.480469 333.945312 L 204.925781 334.433594 L 205.351562 334.878906 C 205.496094 335.03125 205.640625 335.1875 205.761719 335.300781 C 205.882812 335.417969 206.054688 335.589844 206.042969 335.558594 L 188.5625 351.566406 " fill-opacity="1" fill-rule="nonzero"/></g></svg>