<svg xmlns="http://www.w3.org/2000/svg" xmlns:xlink="http://www.w3.org/1999/xlink" width="150" zoomAndPan="magnify" viewBox="0 0 112.5 82.499998" height="110" preserveAspectRatio="xMidYMid meet" version="1.0"><defs><filter x="0%" y="0%" width="100%" height="100%" id="a487317a78"><feColorMatrix values="0 0 0 0 1 0 0 0 0 1 0 0 0 0 1 0 0 0 1 0" color-interpolation-filters="sRGB"/></filter><g/><mask id="261d392a3a"><g filter="url(#a487317a78)"><rect x="-11.25" width="135" fill="#000000" y="-8.25" height="98.999997" fill-opacity="0.23"/></g></mask><clipPath id="6cdd8253b0"><path d="M 1 1 L 51.785156 1 L 51.785156 51 L 1 51 Z M 1 1 " clip-rule="nonzero"/></clipPath><clipPath id="0c6048dca6"><path d="M 0.0195312 0.0273438 L 51.785156 0.0273438 L 51.785156 52.511719 L 0.0195312 52.511719 Z M 0.0195312 0.0273438 " clip-rule="nonzero"/></clipPath><clipPath id="7c8267eafa"><rect x="0" width="52" y="0" height="53"/></clipPath></defs><g mask="url(#261d392a3a)"><g transform="matrix(1, 0, 0, 1, 12, 15)"><g clip-path="url(#7c8267eafa)"><g clip-path="url(#6cdd8253b0)"><path fill="#8b73ff" d="M 30.488281 30.417969 L 21.515625 30.289062 L 22.808594 21.316406 L 31.78125 21.445312 Z M 49.671875 21.703125 C 50.660156 21.703125 51.464844 20.898438 51.464844 19.910156 L 51.464844 14.414062 C 51.464844 13.421875 50.660156 12.617188 49.671875 12.617188 L 42.152344 12.511719 L 43.542969 2.84375 C 43.542969 1.851562 42.738281 1.050781 41.75 1.050781 L 36.253906 1.050781 C 35.261719 1.050781 34.460938 1.851562 34.460938 2.84375 L 33.085938 12.378906 L 24.113281 12.25 L 25.46875 2.84375 C 25.46875 1.851562 24.664062 1.050781 23.671875 1.050781 L 18.175781 1.050781 C 17.183594 1.050781 16.382812 1.851562 16.382812 2.84375 L 15.046875 12.121094 L 3.621094 11.957031 C 2.628906 11.957031 1.828125 12.757812 1.828125 13.75 L 1.828125 19.246094 C 1.828125 20.234375 2.628906 21.039062 3.621094 21.039062 L 13.742188 21.1875 L 12.449219 30.160156 L 3.621094 30.03125 C 2.628906 30.03125 1.828125 30.835938 1.828125 31.828125 L 1.828125 37.324219 C 1.828125 38.3125 2.628906 39.117188 3.621094 39.117188 L 11.144531 39.222656 L 9.75 48.894531 C 9.75 49.882812 10.554688 50.6875 11.542969 50.6875 L 17.042969 50.6875 C 18.03125 50.6875 18.835938 49.882812 18.835938 48.894531 L 20.207031 39.355469 L 29.179688 39.484375 L 27.828125 48.894531 C 27.828125 49.882812 28.628906 50.6875 29.621094 50.6875 L 35.117188 50.6875 C 36.109375 50.6875 36.914062 49.882812 36.914062 48.894531 L 38.246094 39.617188 L 49.671875 39.78125 C 50.660156 39.78125 51.464844 38.976562 51.464844 37.984375 L 51.464844 32.488281 C 51.464844 31.5 50.660156 30.695312 49.671875 30.695312 L 39.554688 30.550781 L 40.84375 21.578125 L 49.671875 21.703125 " fill-opacity="1" fill-rule="nonzero"/></g><path fill="#8b73ff" d="M 37.4375 2.738281 C 39.628906 4.214844 40.820312 6.351562 40.714844 9.054688 C 40.671875 10.117188 40.605469 11.175781 40.523438 12.234375 C 40.445312 12.722656 40.390625 13.207031 40.34375 13.695312 C 43.363281 14.867188 47.0625 14.78125 50.589844 14.570312 C 50.296875 13.964844 49.6875 13.546875 48.976562 13.546875 L 41.453125 13.4375 L 42.847656 3.769531 C 42.847656 2.78125 42.046875 1.976562 41.054688 1.976562 L 35.554688 1.976562 C 35.554688 1.976562 35.550781 1.976562 35.550781 1.976562 C 36.160156 2.066406 36.796875 2.304688 37.4375 2.738281 " fill-opacity="1" fill-rule="nonzero"/><g clip-path="url(#0c6048dca6)"><path fill="#8b73ff" d="M 49.671875 21.703125 L 40.84375 21.609375 L 40.878906 21.582031 L 39.617188 30.558594 L 39.554688 30.484375 L 47.722656 30.527344 L 49.769531 30.539062 C 50.519531 30.558594 51.226562 31.054688 51.507812 31.753906 C 51.582031 31.925781 51.621094 32.109375 51.648438 32.308594 C 51.660156 32.472656 51.660156 32.664062 51.660156 32.828125 L 51.671875 33.847656 L 51.691406 35.890625 L 51.714844 37.933594 C 51.746094 38.695312 51.300781 39.488281 50.59375 39.839844 C 50.25 40.03125 49.824219 40.089844 49.472656 40.074219 L 48.453125 40.078125 L 46.410156 40.085938 L 38.242188 40.113281 L 38.742188 39.683594 L 37.570312 48.988281 L 37.574219 48.894531 C 37.585938 49.527344 37.335938 50.171875 36.890625 50.632812 C 36.460938 51.097656 35.789062 51.386719 35.1875 51.398438 L 32.371094 51.453125 L 29.574219 51.496094 C 28.898438 51.5 28.222656 51.21875 27.742188 50.738281 C 27.257812 50.257812 26.96875 49.578125 26.964844 48.894531 L 26.964844 48.84375 L 26.972656 48.769531 L 28.160156 39.335938 L 29.167969 40.515625 L 20.191406 40.546875 L 21.390625 39.527344 L 20.183594 49.085938 L 20.199219 48.894531 C 20.210938 49.707031 19.882812 50.535156 19.3125 51.121094 C 19.027344 51.417969 18.683594 51.660156 18.304688 51.828125 C 18.117188 51.90625 17.917969 51.972656 17.714844 52.019531 C 17.605469 52.042969 17.46875 52.0625 17.347656 52.078125 L 17.144531 52.09375 L 14.292969 52.125 L 11.484375 52.152344 C 10.640625 52.148438 9.796875 51.789062 9.207031 51.1875 C 8.609375 50.59375 8.253906 49.742188 8.253906 48.894531 L 8.253906 48.796875 L 8.269531 48.679688 L 9.566406 39 L 11.121094 40.816406 L 4.25 40.742188 L 3.820312 40.738281 L 3.605469 40.734375 C 3.53125 40.730469 3.351562 40.726562 3.230469 40.714844 C 2.691406 40.652344 2.160156 40.457031 1.707031 40.152344 C 1.257812 39.847656 0.882812 39.433594 0.617188 38.957031 C 0.492188 38.714844 0.382812 38.460938 0.316406 38.195312 C 0.28125 38.074219 0.25 37.917969 0.226562 37.742188 C 0.203125 37.527344 0.210938 37.53125 0.203125 37.4375 L 0.1875 33.921875 L 0.179688 32.203125 L 0.179688 31.730469 C 0.1875 31.453125 0.226562 31.183594 0.300781 30.914062 C 0.445312 30.382812 0.722656 29.886719 1.09375 29.484375 C 1.460938 29.078125 1.933594 28.769531 2.457031 28.578125 C 2.585938 28.53125 2.71875 28.496094 2.851562 28.460938 C 2.984375 28.429688 3.179688 28.402344 3.339844 28.386719 L 3.457031 28.378906 L 3.671875 28.375 L 3.886719 28.378906 L 5.601562 28.410156 L 12.472656 28.535156 L 10.839844 29.929688 L 12.167969 20.960938 L 13.71875 22.777344 L 5.550781 22.582031 L 3.457031 22.527344 C 2.199219 22.46875 1.035156 21.625 0.59375 20.460938 C 0.476562 20.179688 0.40625 19.871094 0.371094 19.492188 L 0.367188 19.367188 L 0.363281 19.164062 L 0.367188 18.910156 L 0.378906 17.886719 L 0.398438 15.84375 L 0.421875 13.804688 C 0.410156 13.285156 0.566406 12.605469 0.890625 12.113281 C 1.207031 11.59375 1.667969 11.175781 2.210938 10.914062 C 2.488281 10.777344 2.753906 10.695312 3.085938 10.636719 L 3.355469 10.605469 L 3.492188 10.597656 L 3.644531 10.59375 L 3.707031 10.597656 L 3.835938 10.601562 L 4.855469 10.632812 L 6.894531 10.699219 L 15.0625 10.964844 L 13.898438 11.953125 L 15.402344 2.699219 L 15.390625 2.84375 C 15.394531 2.125 15.699219 1.40625 16.207031 0.910156 C 16.695312 0.402344 17.449219 0.105469 18.09375 0.109375 L 20.925781 0.15625 L 23.722656 0.207031 C 24.402344 0.222656 25.074219 0.523438 25.535156 1.011719 C 26.007812 1.496094 26.273438 2.175781 26.261719 2.84375 L 26.261719 2.914062 L 26.253906 2.957031 L 24.730469 12.339844 L 24.121094 11.625 L 33.09375 11.914062 L 32.625 12.3125 L 34.164062 2.800781 L 34.160156 2.84375 C 34.167969 2.300781 34.398438 1.769531 34.777344 1.394531 C 35.152344 1.019531 35.695312 0.800781 36.207031 0.796875 L 39 0.828125 L 41.789062 0.855469 C 42.835938 0.859375 43.742188 1.8125 43.707031 2.84375 L 43.707031 2.867188 L 42.21875 12.519531 L 42.152344 12.441406 L 46.8125 12.527344 L 49.144531 12.570312 C 49.527344 12.585938 49.933594 12.542969 50.308594 12.695312 C 50.683594 12.832031 51.003906 13.101562 51.214844 13.433594 C 51.433594 13.765625 51.511719 14.179688 51.492188 14.566406 L 51.488281 15.730469 L 51.480469 18.0625 L 51.476562 19.226562 C 51.464844 19.613281 51.519531 20.011719 51.40625 20.390625 C 51.210938 21.15625 50.453125 21.714844 49.671875 21.703125 Z M 49.671875 21.703125 C 50.457031 21.710938 51.199219 21.144531 51.390625 20.386719 C 51.496094 20.011719 51.441406 19.613281 51.453125 19.226562 L 51.449219 18.0625 L 51.441406 15.730469 L 51.4375 14.566406 C 51.449219 14.179688 51.371094 13.792969 51.15625 13.46875 C 50.953125 13.152344 50.644531 12.898438 50.28125 12.769531 C 49.925781 12.621094 49.53125 12.667969 49.144531 12.652344 L 46.8125 12.628906 L 42.148438 12.578125 L 42.074219 12.578125 L 42.082031 12.5 L 43.382812 2.820312 L 43.378906 2.84375 C 43.390625 1.984375 42.625 1.222656 41.78125 1.242188 L 39 1.269531 L 36.230469 1.300781 C 35.398438 1.304688 34.722656 2.058594 34.753906 2.84375 L 34.757812 2.855469 L 34.753906 2.882812 L 33.546875 12.445312 L 33.496094 12.84375 L 33.078125 12.847656 L 24.101562 12.878906 L 23.402344 12.878906 L 23.492188 12.160156 L 24.679688 2.730469 L 24.671875 2.84375 C 24.667969 2.316406 24.191406 1.871094 23.691406 1.894531 L 20.925781 1.941406 L 18.191406 1.992188 C 17.679688 2.007812 17.359375 2.421875 17.375 2.84375 L 17.375 2.890625 L 17.363281 2.984375 L 16.195312 12.285156 L 16.070312 13.273438 L 15.03125 13.277344 L 6.859375 13.304688 L 4.816406 13.3125 L 3.796875 13.316406 L 3.605469 13.316406 C 3.582031 13.316406 3.765625 13.3125 3.683594 13.316406 L 3.660156 13.316406 L 3.628906 13.320312 L 3.507812 13.328125 C 3.515625 13.332031 3.519531 13.332031 3.527344 13.332031 C 3.523438 13.339844 3.460938 13.351562 3.4375 13.375 C 3.371094 13.414062 3.3125 13.476562 3.28125 13.546875 C 3.261719 13.578125 3.25 13.613281 3.242188 13.648438 C 3.234375 13.703125 3.238281 13.679688 3.234375 13.804688 L 3.253906 15.84375 L 3.277344 17.886719 L 3.289062 18.910156 L 3.289062 19.164062 L 3.292969 19.226562 L 3.292969 19.242188 C 3.292969 19.261719 3.289062 19.109375 3.289062 19.175781 L 3.289062 19.183594 L 3.292969 19.214844 L 3.300781 19.34375 C 3.316406 19.363281 3.292969 19.289062 3.308594 19.324219 C 3.3125 19.339844 3.316406 19.351562 3.324219 19.367188 C 3.375 19.476562 3.492188 19.550781 3.605469 19.542969 L 5.59375 19.554688 L 13.765625 19.59375 L 15.570312 19.601562 L 15.316406 21.410156 L 14.054688 30.390625 L 13.859375 31.800781 L 12.425781 31.785156 L 5.554688 31.710938 L 3.839844 31.691406 L 3.625 31.6875 L 3.601562 31.6875 C 3.648438 31.6875 3.492188 31.691406 3.703125 31.6875 L 3.675781 31.6875 L 3.625 31.691406 L 3.523438 31.695312 C 3.542969 31.707031 3.597656 31.691406 3.589844 31.695312 C 3.585938 31.699219 3.578125 31.695312 3.574219 31.699219 C 3.558594 31.703125 3.535156 31.714844 3.519531 31.734375 C 3.503906 31.75 3.488281 31.765625 3.484375 31.789062 C 3.480469 31.796875 3.480469 31.808594 3.480469 31.824219 L 3.476562 32.203125 L 3.46875 33.921875 L 3.457031 37.273438 C 3.460938 37.328125 3.464844 37.472656 3.46875 37.398438 C 3.464844 37.367188 3.457031 37.351562 3.464844 37.367188 C 3.460938 37.378906 3.472656 37.386719 3.472656 37.402344 C 3.488281 37.425781 3.507812 37.445312 3.527344 37.464844 C 3.550781 37.480469 3.574219 37.488281 3.601562 37.496094 L 3.652344 37.5 L 4.296875 37.507812 L 11.164062 37.632812 L 12.996094 37.667969 L 12.71875 39.453125 L 11.230469 49.105469 L 11.246094 48.894531 C 11.230469 49.046875 11.367188 49.214844 11.539062 49.21875 L 14.292969 49.25 L 17.003906 49.277344 C 17.050781 49.273438 17.148438 49.273438 17.148438 49.269531 C 17.140625 49.265625 17.121094 49.273438 17.125 49.273438 C 17.148438 49.269531 17.171875 49.261719 17.195312 49.253906 C 17.242188 49.234375 17.289062 49.210938 17.328125 49.175781 C 17.410156 49.101562 17.460938 49.011719 17.46875 48.894531 L 17.492188 48.664062 L 17.484375 48.699219 L 19.027344 39.1875 L 19.199219 38.128906 L 20.226562 38.164062 L 29.195312 38.453125 L 30.390625 38.488281 L 30.203125 39.632812 L 28.683594 49.015625 L 28.691406 48.894531 C 28.660156 49.378906 29.085938 49.859375 29.601562 49.871094 L 32.371094 49.921875 L 35.113281 49.972656 C 35.726562 49.996094 36.234375 49.488281 36.246094 48.894531 L 36.25 48.832031 L 36.253906 48.800781 L 37.753906 39.542969 L 37.828125 39.105469 L 38.253906 39.117188 L 46.421875 39.382812 L 48.460938 39.445312 L 49.484375 39.476562 C 49.8125 39.5 50.082031 39.46875 50.34375 39.339844 C 50.871094 39.097656 51.230469 38.539062 51.214844 37.933594 L 51.261719 33.847656 L 51.269531 32.828125 C 51.269531 32.648438 51.277344 32.5 51.265625 32.324219 C 51.25 32.183594 51.222656 32.035156 51.164062 31.890625 C 50.949219 31.316406 50.378906 30.890625 49.753906 30.863281 L 47.71875 30.808594 L 39.550781 30.617188 L 39.476562 30.613281 L 39.488281 30.539062 L 40.816406 21.570312 L 40.820312 21.542969 L 40.847656 21.542969 L 49.671875 21.703125 " fill-opacity="1" fill-rule="nonzero"/></g><path fill="#8b73ff" d="M 30.488281 30.417969 C 30.410156 29.644531 30.378906 28.878906 30.355469 28.109375 C 30.324219 27.34375 30.324219 26.578125 30.324219 25.816406 C 30.335938 24.289062 30.398438 22.773438 30.484375 21.257812 L 31.761719 22.753906 C 30.261719 22.855469 28.765625 22.914062 27.269531 22.953125 C 25.773438 22.992188 24.277344 22.992188 22.78125 22.972656 L 24.449219 21.550781 C 24.226562 23.046875 23.988281 24.539062 23.710938 26.027344 C 23.4375 27.515625 23.136719 28.996094 22.796875 30.472656 L 21.53125 28.992188 C 23.027344 29.144531 24.519531 29.320312 26.011719 29.550781 C 26.757812 29.675781 27.507812 29.785156 28.25 29.933594 C 28.996094 30.074219 29.742188 30.226562 30.488281 30.417969 Z M 30.488281 30.417969 C 29.738281 30.59375 28.988281 30.71875 28.238281 30.839844 C 27.488281 30.96875 26.738281 31.050781 25.988281 31.160156 C 24.488281 31.347656 22.992188 31.480469 21.496094 31.585938 L 20.136719 31.679688 L 20.230469 30.105469 C 20.324219 28.589844 20.449219 27.082031 20.605469 25.578125 C 20.765625 24.074219 20.957031 22.578125 21.167969 21.078125 L 21.367188 19.632812 L 22.832031 19.660156 C 24.324219 19.683594 25.820312 19.726562 27.316406 19.804688 C 28.808594 19.890625 30.304688 19.988281 31.800781 20.136719 L 33.382812 20.296875 L 33.074219 21.632812 C 32.734375 23.109375 32.367188 24.582031 31.945312 26.050781 C 31.730469 26.78125 31.511719 27.515625 31.269531 28.242188 C 31.027344 28.972656 30.78125 29.699219 30.488281 30.417969 " fill-opacity="1" fill-rule="nonzero"/></g></g></g><g fill="#e1a3ff" fill-opacity="1"><g transform="translate(43.303939, 39.391636)"><g><path d="M 1.097656 -7.015625 L 7.511719 -7.015625 L 7.511719 -10.757812 L 1.097656 -10.757812 L 1.097656 -13.757812 L 11.277344 -13.757812 L 11.277344 -4.015625 L 4.863281 -4.015625 L 4.863281 0.25 L 11.277344 0.25 L 11.277344 3.25 L 1.097656 3.25 Z M 17.070312 -7.386719 L 19.386719 -7.386719 L 19.386719 -4.386719 L 17.070312 -4.386719 L 17.070312 3.25 L 13.304688 3.25 L 13.304688 -14.171875 L 17.070312 -14.171875 Z M 17.070312 -7.386719 "/></g></g></g><g fill="#e1a3ff" fill-opacity="1"><g transform="translate(62.956157, 39.391636)"><g><path d="M 1.53125 -10.367188 C 1.53125 -10.777344 1.574219 -11.214844 1.695312 -11.628906 C 1.78125 -12.042969 1.945312 -12.394531 2.171875 -12.722656 C 2.378906 -13.015625 2.648438 -13.261719 3 -13.46875 C 3.332031 -13.65625 3.765625 -13.757812 4.261719 -13.757812 L 15.394531 -13.757812 C 15.890625 -13.757812 16.304688 -13.65625 16.65625 -13.46875 C 16.984375 -13.261719 17.277344 -13.015625 17.503906 -12.722656 C 17.710938 -12.394531 17.855469 -12.042969 17.980469 -11.628906 C 18.0625 -11.214844 18.125 -10.777344 18.125 -10.367188 C 18.125 -9.910156 18.0625 -9.496094 17.980469 -9.101562 C 17.855469 -8.691406 17.710938 -8.316406 17.503906 -8.027344 C 17.277344 -7.695312 16.984375 -7.449219 16.65625 -7.261719 C 16.304688 -7.054688 15.890625 -6.972656 15.394531 -6.972656 L 11.710938 -6.972656 L 11.710938 -5.835938 L 18.332031 -5.835938 L 18.332031 -2.835938 L 1.324219 -2.835938 L 1.324219 -5.835938 L 7.945312 -5.835938 L 7.945312 -6.972656 L 4.261719 -6.972656 C 3.765625 -6.972656 3.332031 -7.054688 3 -7.261719 C 2.648438 -7.449219 2.378906 -7.695312 2.171875 -8.027344 C 1.945312 -8.316406 1.78125 -8.691406 1.695312 -9.101562 C 1.574219 -9.496094 1.53125 -9.910156 1.53125 -10.367188 Z M 1.738281 -1.863281 L 5.503906 -1.863281 L 5.503906 0.351562 L 17.917969 0.351562 L 17.917969 3.351562 L 1.738281 3.351562 Z M 5.296875 -10.367188 C 5.296875 -10.136719 5.359375 -9.972656 5.484375 -9.847656 C 5.605469 -9.722656 5.730469 -9.660156 5.855469 -9.660156 L 13.800781 -9.660156 C 13.925781 -9.660156 14.046875 -9.722656 14.171875 -9.847656 C 14.296875 -9.972656 14.359375 -10.136719 14.359375 -10.367188 C 14.359375 -10.574219 14.296875 -10.757812 14.171875 -10.882812 C 14.046875 -11.007812 13.925781 -11.070312 13.800781 -11.070312 L 5.855469 -11.070312 C 5.730469 -11.070312 5.605469 -11.007812 5.484375 -10.882812 C 5.359375 -10.757812 5.296875 -10.574219 5.296875 -10.367188 Z M 5.296875 -10.367188 "/></g></g></g><g fill="#e1a3ff" fill-opacity="1"><g transform="translate(43.303939, 60.345022)"><g><path d="M 0.890625 -10.71875 C 0.890625 -11.191406 0.972656 -11.628906 1.160156 -12.019531 C 1.324219 -12.394531 1.550781 -12.703125 1.863281 -12.972656 C 2.152344 -13.21875 2.484375 -13.40625 2.898438 -13.550781 C 3.269531 -13.675781 3.703125 -13.757812 4.160156 -13.757812 L 8.214844 -13.757812 C 8.667969 -13.757812 9.082031 -13.675781 9.496094 -13.550781 C 9.867188 -13.40625 10.21875 -13.21875 10.53125 -12.972656 C 10.820312 -12.703125 11.046875 -12.394531 11.234375 -12.019531 C 11.398438 -11.628906 11.484375 -11.191406 11.484375 -10.71875 L 11.484375 0.207031 C 11.484375 0.683594 11.398438 1.117188 11.234375 1.511719 C 11.046875 1.882812 10.820312 2.191406 10.53125 2.460938 C 10.21875 2.710938 9.867188 2.898438 9.496094 3.042969 C 9.082031 3.164062 8.667969 3.25 8.214844 3.25 L 4.160156 3.25 C 3.703125 3.25 3.269531 3.164062 2.898438 3.042969 C 2.484375 2.898438 2.152344 2.710938 1.863281 2.460938 C 1.550781 2.191406 1.324219 1.882812 1.160156 1.511719 C 0.972656 1.117188 0.890625 0.683594 0.890625 0.207031 Z M 17.070312 -7.386719 L 19.386719 -7.386719 L 19.386719 -4.386719 L 17.070312 -4.386719 L 17.070312 3.25 L 13.304688 3.25 L 13.304688 -14.171875 L 17.070312 -14.171875 Z M 6.1875 0.25 C 6.746094 0.25 7.160156 0.125 7.449219 -0.101562 C 7.71875 -0.332031 7.863281 -0.722656 7.863281 -1.28125 L 7.863281 -9.226562 C 7.863281 -9.765625 7.71875 -10.160156 7.449219 -10.40625 C 7.160156 -10.632812 6.746094 -10.757812 6.1875 -10.757812 C 5.605469 -10.757812 5.191406 -10.632812 4.925781 -10.40625 C 4.632812 -10.160156 4.511719 -9.765625 4.511719 -9.226562 L 4.511719 -1.28125 C 4.511719 -0.722656 4.632812 -0.332031 4.925781 -0.101562 C 5.191406 0.125 5.605469 0.25 6.1875 0.25 Z M 6.1875 0.25 "/></g></g></g><g fill="#e1a3ff" fill-opacity="1"><g transform="translate(62.956157, 60.345022)"><g><path d="M 17.792969 3.25 L 14.027344 3.25 L 14.027344 -14.171875 L 17.792969 -14.171875 Z M 1.097656 -7.015625 L 7.71875 -7.015625 L 7.71875 -10.757812 L 1.097656 -10.757812 L 1.097656 -13.757812 L 11.484375 -13.757812 L 11.484375 -4.015625 L 4.863281 -4.015625 L 4.863281 0.25 L 11.484375 0.25 L 11.484375 3.25 L 1.097656 3.25 Z M 1.097656 -7.015625 "/></g></g></g><g fill="#e1a3ff" fill-opacity="1"><g transform="translate(82.608376, 60.345022)"><g><path d="M 0.890625 -10.71875 C 0.890625 -11.191406 0.972656 -11.628906 1.160156 -12.019531 C 1.324219 -12.394531 1.550781 -12.703125 1.863281 -12.972656 C 2.152344 -13.21875 2.484375 -13.40625 2.898438 -13.550781 C 3.269531 -13.675781 3.703125 -13.757812 4.160156 -13.757812 L 8.214844 -13.757812 C 8.667969 -13.757812 9.082031 -13.675781 9.496094 -13.550781 C 9.867188 -13.40625 10.21875 -13.21875 10.53125 -12.972656 C 10.820312 -12.703125 11.046875 -12.394531 11.234375 -12.019531 C 11.398438 -11.628906 11.484375 -11.191406 11.484375 -10.71875 L 11.484375 0.207031 C 11.484375 0.683594 11.398438 1.117188 11.234375 1.511719 C 11.046875 1.882812 10.820312 2.191406 10.53125 2.460938 C 10.21875 2.710938 9.867188 2.898438 9.496094 3.042969 C 9.082031 3.164062 8.667969 3.25 8.214844 3.25 L 4.160156 3.25 C 3.703125 3.25 3.269531 3.164062 2.898438 3.042969 C 2.484375 2.898438 2.152344 2.710938 1.863281 2.460938 C 1.550781 2.191406 1.324219 1.882812 1.160156 1.511719 C 0.972656 1.117188 0.890625 0.683594 0.890625 0.207031 Z M 17.070312 -7.386719 L 19.386719 -7.386719 L 19.386719 -4.386719 L 17.070312 -4.386719 L 17.070312 3.25 L 13.304688 3.25 L 13.304688 -14.171875 L 17.070312 -14.171875 Z M 6.1875 0.25 C 6.746094 0.25 7.160156 0.125 7.449219 -0.101562 C 7.71875 -0.332031 7.863281 -0.722656 7.863281 -1.28125 L 7.863281 -9.226562 C 7.863281 -9.765625 7.71875 -10.160156 7.449219 -10.40625 C 7.160156 -10.632812 6.746094 -10.757812 6.1875 -10.757812 C 5.605469 -10.757812 5.191406 -10.632812 4.925781 -10.40625 C 4.632812 -10.160156 4.511719 -9.765625 4.511719 -9.226562 L 4.511719 -1.28125 C 4.511719 -0.722656 4.632812 -0.332031 4.925781 -0.101562 C 5.191406 0.125 5.605469 0.25 6.1875 0.25 Z M 6.1875 0.25 "/></g></g></g><g fill="#1c4b89" fill-opacity="1"><g transform="translate(43.303939, 71.802656)"><g><path d="M 5.207031 -3.449219 C 4.261719 -3.601562 3.394531 -3.996094 3.140625 -4.523438 L 4.992188 -4.523438 L 4.992188 -4.890625 L 0.804688 -4.890625 L 0.804688 -4.523438 L 2.636719 -4.523438 C 2.421875 -4.003906 1.546875 -3.601562 0.601562 -3.449219 L 0.832031 -3.125 C 1.71875 -3.316406 2.550781 -3.664062 2.878906 -4.136719 C 3.261719 -3.660156 4.015625 -3.324219 4.964844 -3.125 Z M 5.65625 -2.707031 L 0.144531 -2.707031 L 0.144531 -2.328125 L 5.65625 -2.328125 Z M 5.042969 0.394531 L 1.382812 0.394531 L 1.382812 -0.3125 L 4.894531 -0.3125 L 4.894531 -1.699219 L 0.90625 -1.699219 L 0.90625 -1.339844 L 4.421875 -1.339844 L 4.421875 -0.660156 L 0.90625 -0.660156 L 0.90625 0.75 L 5.042969 0.75 Z M 5.042969 0.394531 "/></g></g></g><g fill="#1c4b89" fill-opacity="1"><g transform="translate(49.103608, 71.802656)"><g><path d="M 4.882812 -4.929688 L 4.433594 -4.929688 L 4.433594 -2.816406 L 2.835938 -2.816406 L 2.835938 -2.429688 L 4.433594 -2.429688 L 4.433594 0.597656 L 4.882812 0.597656 Z M 0.03125 -4.523438 L 0.03125 -4.136719 L 2.136719 -4.136719 C 2.117188 -2.824219 1.945312 -1.558594 1.71875 -0.324219 L 2.199219 -0.324219 C 2.433594 -1.628906 2.585938 -2.988281 2.605469 -4.523438 Z M 0.03125 -4.523438 "/></g></g></g><g fill="#1c4b89" fill-opacity="1"><g transform="translate(54.453252, 71.802656)"><g><path d="M 0.875 -3.761719 C 0.875 -3.082031 1.578125 -2.625 2.886719 -2.625 C 4.191406 -2.625 4.914062 -3.0625 4.914062 -3.761719 C 4.914062 -4.414062 4.167969 -4.871094 2.886719 -4.871094 C 1.574219 -4.871094 0.875 -4.414062 0.875 -3.761719 Z M 1.339844 -3.761719 C 1.339844 -4.238281 1.960938 -4.507812 2.886719 -4.507812 C 3.765625 -4.507812 4.441406 -4.238281 4.441406 -3.761719 C 4.441406 -3.234375 3.8125 -2.980469 2.886719 -2.980469 C 1.992188 -2.980469 1.339844 -3.261719 1.339844 -3.761719 Z M 5.65625 -2.082031 L 0.144531 -2.082031 L 0.144531 -1.699219 L 2.707031 -1.699219 L 2.707031 -0.4375 L 3.171875 -0.4375 L 3.171875 -1.699219 L 5.65625 -1.699219 Z M 5.113281 0.242188 L 1.351562 0.242188 L 1.351562 -1.078125 L 0.90625 -1.078125 L 0.90625 0.621094 L 5.113281 0.621094 Z M 5.113281 0.242188 "/></g></g></g><g fill="#1c4b89" fill-opacity="1"><g transform="translate(60.252921, 71.802656)"><g/></g></g><g fill="#1c4b89" fill-opacity="1"><g transform="translate(62.154451, 71.802656)"><g><path d="M 4.921875 -3.660156 C 4.921875 -4.421875 4.222656 -4.890625 2.890625 -4.890625 C 1.59375 -4.890625 0.875 -4.414062 0.875 -3.660156 C 0.875 -2.875 1.585938 -2.417969 2.890625 -2.417969 C 4.222656 -2.417969 4.921875 -2.875 4.921875 -3.660156 Z M 2.890625 -2.777344 C 1.964844 -2.777344 1.324219 -3.082031 1.324219 -3.660156 C 1.324219 -4.210938 1.941406 -4.527344 2.890625 -4.527344 C 3.824219 -4.527344 4.464844 -4.203125 4.464844 -3.664062 C 4.464844 -3.09375 3.824219 -2.777344 2.890625 -2.777344 Z M 5.65625 -1.660156 L 0.144531 -1.660156 L 0.144531 -1.273438 L 1.660156 -1.273438 L 1.660156 0.652344 L 2.125 0.652344 L 2.125 -1.273438 L 3.714844 -1.273438 L 3.714844 0.714844 L 4.167969 0.714844 L 4.167969 -1.273438 L 5.65625 -1.273438 Z M 5.65625 -1.660156 "/></g></g></g><g fill="#1c4b89" fill-opacity="1"><g transform="translate(67.954121, 71.802656)"><g><path d="M 4.34375 -4.929688 L 4.34375 0.597656 L 4.789062 0.597656 L 4.789062 -4.929688 Z M 1.070312 -4.769531 L 1.070312 -4.402344 L 2.886719 -4.402344 L 2.886719 -4.769531 Z M 3.632812 -3.3125 L 3.632812 -3.679688 L 0.273438 -3.679688 L 0.273438 -3.3125 L 1.75 -3.3125 C 1.71875 -2.265625 1.109375 -1.261719 0.242188 -0.609375 L 0.550781 -0.3125 C 1.261719 -0.851562 1.757812 -1.726562 1.992188 -2.410156 C 2.234375 -1.679688 2.890625 -0.816406 3.429688 -0.496094 L 3.699219 -0.8125 C 2.785156 -1.40625 2.238281 -2.351562 2.21875 -3.3125 Z M 3.632812 -3.3125 "/></g></g></g><g fill="#1c4b89" fill-opacity="1"><g transform="translate(73.265732, 71.802656)"><g><path d="M 2.246094 -4.960938 C 1.230469 -4.960938 0.714844 -4.464844 0.714844 -3.863281 C 0.714844 -3.242188 1.261719 -2.753906 2.246094 -2.753906 C 3.304688 -2.753906 3.816406 -3.242188 3.816406 -3.863281 C 3.816406 -4.464844 3.253906 -4.960938 2.246094 -4.960938 Z M 5.167969 -4.929688 L 4.726562 -4.929688 L 4.726562 -1.585938 L 3.449219 -1.585938 L 3.449219 -1.203125 L 4.726562 -1.203125 L 4.726562 -0.621094 L 5.167969 -0.621094 Z M 2.246094 -4.597656 C 3.101562 -4.597656 3.394531 -4.261719 3.394531 -3.863281 C 3.394531 -3.4375 3.089844 -3.113281 2.25 -3.113281 C 1.382812 -3.113281 1.148438 -3.496094 1.148438 -3.863281 C 1.148438 -4.242188 1.414062 -4.597656 2.246094 -4.597656 Z M 0.222656 -1.972656 C 0.691406 -1.972656 1.339844 -1.984375 1.863281 -1.984375 L 1.863281 -0.886719 L 2.316406 -0.886719 L 2.316406 -2.003906 C 3.691406 -2.054688 4.101562 -2.085938 4.382812 -2.132812 L 4.382812 -2.484375 C 3.425781 -2.402344 1.597656 -2.347656 0.222656 -2.347656 Z M 5.351562 0.242188 L 1.617188 0.242188 L 1.617188 -0.933594 L 1.171875 -0.933594 L 1.171875 0.621094 L 5.351562 0.621094 Z M 5.351562 0.242188 "/></g></g></g><g fill="#1c4b89" fill-opacity="1"><g transform="translate(78.970329, 71.802656)"><g><path d="M 5.046875 -4.929688 L 4.597656 -4.929688 L 4.597656 0.601562 L 5.046875 0.601562 Z M 2.214844 -1.882812 C 3.050781 -1.882812 3.753906 -2.453125 3.753906 -3.261719 C 3.753906 -4.050781 3.125 -4.675781 2.175781 -4.675781 C 1.300781 -4.675781 0.578125 -4.101562 0.578125 -3.277344 C 0.578125 -2.421875 1.292969 -1.882812 2.214844 -1.882812 Z M 3.296875 -3.273438 C 3.296875 -2.664062 2.890625 -2.265625 2.195312 -2.265625 C 1.441406 -2.265625 1.035156 -2.664062 1.035156 -3.273438 C 1.035156 -3.832031 1.402344 -4.300781 2.175781 -4.300781 C 2.910156 -4.300781 3.296875 -3.894531 3.296875 -3.273438 Z M 0.296875 -0.527344 C 1.609375 -0.527344 3.464844 -0.570312 4.3125 -0.699219 L 4.3125 -1.066406 C 3.328125 -0.984375 1.660156 -0.917969 0.296875 -0.917969 Z M 0.296875 -0.527344 "/></g></g></g><g fill="#1c4b89" fill-opacity="1"><g transform="translate(84.491108, 71.802656)"><g/></g></g><g fill="#1c4b89" fill-opacity="1"><g transform="translate(86.392639, 71.802656)"><g><path d="M 0.863281 -3.304688 C 0.863281 -2.449219 1.660156 -1.84375 2.890625 -1.84375 C 4.101562 -1.84375 4.941406 -2.449219 4.941406 -3.304688 C 4.941406 -4.152344 4.101562 -4.757812 2.890625 -4.757812 C 1.660156 -4.757812 0.863281 -4.152344 0.863281 -3.304688 Z M 1.324219 -3.304688 C 1.324219 -3.933594 1.941406 -4.390625 2.890625 -4.390625 C 3.875 -4.390625 4.464844 -3.933594 4.464844 -3.304688 C 4.464844 -2.675781 3.875 -2.214844 2.890625 -2.214844 C 1.941406 -2.214844 1.324219 -2.675781 1.324219 -3.304688 Z M 3.691406 -1.609375 L 3.691406 -0.394531 L 2.074219 -0.394531 L 2.074219 -1.605469 L 1.605469 -1.605469 L 1.605469 -0.394531 L 0.144531 -0.394531 L 0.144531 -0.0117188 L 5.65625 -0.0117188 L 5.65625 -0.394531 L 4.136719 -0.394531 L 4.136719 -1.609375 Z M 3.691406 -1.609375 "/></g></g></g><g fill="#1c4b89" fill-opacity="1"><g transform="translate(92.192308, 71.802656)"><g><path d="M 4.929688 -4.929688 L 4.492188 -4.929688 L 4.492188 -3.550781 L 3.144531 -3.550781 L 3.144531 -3.171875 L 4.492188 -3.171875 L 4.492188 -1.554688 L 4.929688 -1.554688 Z M 3.660156 -2.238281 C 2.929688 -2.511719 2.144531 -3.089844 2.144531 -3.976562 L 2.144531 -4.28125 L 3.398438 -4.28125 L 3.398438 -4.65625 L 0.40625 -4.65625 L 0.40625 -4.28125 L 1.660156 -4.28125 L 1.660156 -3.96875 C 1.660156 -3.050781 0.875 -2.296875 0.101562 -1.945312 L 0.378906 -1.625 C 0.953125 -1.910156 1.625 -2.53125 1.910156 -3.195312 C 2.195312 -2.636719 2.917969 -2.09375 3.449219 -1.894531 Z M 5.023438 -0.246094 C 5.023438 -0.933594 4.230469 -1.339844 3.042969 -1.339844 C 1.84375 -1.339844 0.996094 -0.9375 0.996094 -0.246094 C 0.996094 0.425781 1.84375 0.816406 3.042969 0.816406 C 4.230469 0.816406 5.023438 0.425781 5.023438 -0.246094 Z M 4.554688 -0.242188 C 4.554688 0.214844 3.855469 0.457031 3.042969 0.457031 C 2.195312 0.457031 1.476562 0.226562 1.476562 -0.242188 C 1.476562 -0.761719 2.207031 -0.976562 3.042969 -0.976562 C 3.855469 -0.976562 4.554688 -0.75 4.554688 -0.242188 Z M 4.554688 -0.242188 "/></g></g></g><g fill="#1c4b89" fill-opacity="1"><g transform="translate(97.618008, 71.802656)"><g><path d="M 4.972656 -3.125 L 4.972656 -3.5 L 1.371094 -3.5 L 1.371094 -4.503906 L 4.902344 -4.503906 L 4.902344 -4.878906 L 0.925781 -4.878906 L 0.925781 -3.125 Z M 0.144531 -2.523438 L 0.144531 -2.148438 L 5.65625 -2.148438 L 5.65625 -2.523438 Z M 5.042969 0.394531 L 1.371094 0.394531 L 1.371094 -0.261719 L 4.894531 -0.261719 L 4.894531 -1.597656 L 0.90625 -1.597656 L 0.90625 -1.242188 L 4.425781 -1.242188 L 4.425781 -0.609375 L 0.90625 -0.609375 L 0.90625 0.75 L 5.042969 0.75 Z M 5.042969 0.394531 "/></g></g></g></svg>