<svg xmlns="http://www.w3.org/2000/svg" xmlns:xlink="http://www.w3.org/1999/xlink" width="490" zoomAndPan="magnify" viewBox="0 0 367.5 653.249998" height="871" preserveAspectRatio="xMidYMid meet" version="1.0"><defs><clipPath id="62bf30f07b"><path d="M 340 5.570312 L 366.722656 5.570312 L 366.722656 26.625 L 340 26.625 Z M 340 5.570312 " clip-rule="nonzero"/></clipPath><clipPath id="75f63b8099"><path d="M 340 0.109375 L 366.722656 0.109375 L 366.722656 15.078125 L 340 15.078125 Z M 340 0.109375 " clip-rule="nonzero"/></clipPath><clipPath id="49a62c254d"><path d="M 350.652344 38.171875 L 366.722656 38.171875 L 366.722656 47 L 350.652344 47 Z M 350.652344 38.171875 " clip-rule="nonzero"/></clipPath><clipPath id="ae38f29286"><path d="M 340.464844 27 L 366.722656 27 L 366.722656 53 L 340.464844 53 Z M 340.464844 27 " clip-rule="nonzero"/></clipPath><clipPath id="690cd1ec17"><path d="M 287.332031 5 L 314 5 L 314 27 L 287.332031 27 Z M 287.332031 5 " clip-rule="nonzero"/></clipPath><clipPath id="815284de52"><path d="M 287.484375 0.109375 L 313.972656 0.109375 L 313.972656 11 L 287.484375 11 Z M 287.484375 0.109375 " clip-rule="nonzero"/></clipPath><clipPath id="68e436882f"><path d="M 340 53.117188 L 366.722656 53.117188 L 366.722656 66 L 340 66 Z M 340 53.117188 " clip-rule="nonzero"/></clipPath><clipPath id="700637d964"><path d="M 346 63 L 361 63 L 361 76.957031 L 346 76.957031 Z M 346 63 " clip-rule="nonzero"/></clipPath><clipPath id="2fa6539588"><path d="M 0.1875 626 L 27 626 L 27 646.949219 L 0.1875 646.949219 Z M 0.1875 626 " clip-rule="nonzero"/></clipPath><clipPath id="07a74ee08a"><path d="M 0.1875 637.484375 L 27 637.484375 L 27 652.285156 L 0.1875 652.285156 Z M 0.1875 637.484375 " clip-rule="nonzero"/></clipPath><clipPath id="fccc9b3a8e"><path d="M 0.1875 606 L 16.265625 606 L 16.265625 614.496094 L 0.1875 614.496094 Z M 0.1875 606 " clip-rule="nonzero"/></clipPath><clipPath id="1ecaaf9e5a"><path d="M 0.1875 599.621094 L 26.410156 599.621094 L 26.410156 625.988281 L 0.1875 625.988281 Z M 0.1875 599.621094 " clip-rule="nonzero"/></clipPath><clipPath id="f7f8afbbf1"><path d="M 53 626 L 79.296875 626 L 79.296875 648 L 53 648 Z M 53 626 " clip-rule="nonzero"/></clipPath><clipPath id="7b9010e281"><path d="M 53 641.539062 L 79.144531 641.539062 L 79.144531 652.285156 L 53 652.285156 Z M 53 641.539062 " clip-rule="nonzero"/></clipPath><clipPath id="390a33f549"><path d="M 0.1875 586.773438 L 27 586.773438 L 27 599.621094 L 0.1875 599.621094 Z M 0.1875 586.773438 " clip-rule="nonzero"/></clipPath><clipPath id="3ae5e66af0"><path d="M 6 575.890625 L 21 575.890625 L 21 589 L 6 589 Z M 6 575.890625 " clip-rule="nonzero"/></clipPath><clipPath id="cc2899b90a"><path d="M 274.492188 624 L 288 624 L 288 637 L 274.492188 637 Z M 274.492188 624 " clip-rule="nonzero"/></clipPath><clipPath id="396ab2eb10"><path d="M 312.648438 642.535156 L 323.222656 642.535156 L 323.222656 652.253906 L 312.648438 652.253906 Z M 312.648438 642.535156 " clip-rule="nonzero"/></clipPath><clipPath id="ab1d0db1aa"><path d="M 321 631 L 335 631 L 335 652.253906 L 321 652.253906 Z M 321 631 " clip-rule="nonzero"/></clipPath><clipPath id="a49e57baa2"><path d="M 335 574.550781 L 366.617188 574.550781 L 366.617188 600.988281 L 335 600.988281 Z M 335 574.550781 " clip-rule="nonzero"/></clipPath><clipPath id="0f194522ff"><path d="M 79 15 L 92.148438 15 L 92.148438 28 L 79 28 Z M 79 15 " clip-rule="nonzero"/></clipPath><clipPath id="ae0149e990"><path d="M 43.769531 0.246094 L 54.34375 0.246094 L 54.34375 9.964844 L 43.769531 9.964844 Z M 43.769531 0.246094 " clip-rule="nonzero"/></clipPath><clipPath id="3c28fee997"><path d="M 32 0.246094 L 46 0.246094 L 46 22 L 32 22 Z M 32 0.246094 " clip-rule="nonzero"/></clipPath><clipPath id="072b28e479"><path d="M 5 61 L 24 61 L 24 82.457031 L 5 82.457031 Z M 5 61 " clip-rule="nonzero"/></clipPath><clipPath id="a757f1f628"><path d="M 0.375 52 L 32 52 L 32 77.949219 L 0.375 77.949219 Z M 0.375 52 " clip-rule="nonzero"/></clipPath></defs><g clip-path="url(#62bf30f07b)"><path fill="#8c52ff" d="M 358.582031 13.066406 C 361.167969 13.941406 363.839844 14.773438 366.558594 15.402344 L 366.558594 25.734375 C 366.558594 26.074219 366.28125 26.351562 365.941406 26.351562 L 340.9375 26.351562 C 340.597656 26.351562 340.316406 26.074219 340.316406 25.734375 L 340.316406 5.808594 C 346.273438 8.535156 352.398438 10.972656 358.582031 13.066406 " fill-opacity="1" fill-rule="nonzero"/></g><g clip-path="url(#75f63b8099)"><path fill="#8c52ff" d="M 358.691406 12.746094 C 352.46875 10.636719 346.308594 8.183594 340.316406 5.4375 L 340.316406 0.730469 C 340.316406 0.386719 340.597656 0.109375 340.9375 0.109375 L 365.941406 0.109375 C 366.28125 0.109375 366.558594 0.386719 366.558594 0.730469 L 366.558594 15.054688 C 363.878906 14.433594 361.246094 13.609375 358.691406 12.746094 " fill-opacity="1" fill-rule="nonzero"/></g><path fill="#38b6ff" d="M 315.980469 41.671875 C 316.550781 41.28125 317.089844 40.917969 317.640625 40.597656 C 320.070312 39.175781 322.199219 38.746094 323.964844 39.3125 C 326.613281 40.167969 327.894531 42.496094 327.992188 46.632812 C 328.023438 48.007812 328.121094 49.433594 328.222656 50.941406 C 328.277344 51.71875 328.328125 52.496094 328.371094 53.273438 L 314.246094 53.273438 C 313.90625 53.273438 313.628906 52.996094 313.628906 52.65625 L 313.628906 43.136719 C 314.441406 42.714844 315.21875 42.191406 315.980469 41.671875 " fill-opacity="1" fill-rule="nonzero"/><path fill="#38b6ff" d="M 339.25 53.273438 L 328.710938 53.273438 C 328.667969 52.476562 328.613281 51.691406 328.5625 50.917969 C 328.460938 49.414062 328.363281 47.992188 328.332031 46.625 C 328.265625 43.917969 327.753906 40.183594 324.070312 38.992188 C 323.53125 38.816406 322.964844 38.734375 322.367188 38.734375 C 320.898438 38.734375 319.257812 39.257812 317.472656 40.300781 C 316.910156 40.628906 316.339844 41.019531 315.789062 41.390625 C 315.085938 41.871094 314.371094 42.351562 313.628906 42.75 L 313.628906 27.652344 C 313.628906 27.308594 313.90625 27.03125 314.246094 27.03125 L 339.25 27.03125 C 339.59375 27.03125 339.871094 27.308594 339.871094 27.652344 L 339.871094 52.65625 C 339.871094 52.996094 339.59375 53.273438 339.25 53.273438 " fill-opacity="1" fill-rule="nonzero"/><g clip-path="url(#49a62c254d)"><path fill="#fcd03e" d="M 360.269531 46.464844 C 359.761719 46.488281 359.253906 46.53125 358.753906 46.574219 C 356.671875 46.746094 354.703125 46.914062 352.765625 45.847656 C 351.828125 45.328125 351.15625 44.609375 350.871094 43.820312 C 350.628906 43.15625 350.65625 42.515625 350.953125 41.902344 C 351.546875 40.675781 353.140625 39.78125 354.433594 39.351562 C 358.394531 38.039062 362.25 38.359375 366.320312 39.21875 C 366.335938 39.464844 366.359375 39.703125 366.359375 39.949219 C 366.359375 42.398438 365.664062 44.683594 364.480469 46.632812 C 364.359375 46.625 364.242188 46.617188 364.121094 46.605469 C 362.855469 46.503906 361.546875 46.402344 360.269531 46.464844 " fill-opacity="1" fill-rule="nonzero"/></g><g clip-path="url(#ae38f29286)"><path fill="#fcd03e" d="M 360.09375 38.128906 C 358.171875 38.128906 356.261719 38.386719 354.324219 39.03125 C 353.664062 39.246094 351.453125 40.089844 350.644531 41.757812 C 350.308594 42.449219 350.277344 43.183594 350.546875 43.933594 C 350.863281 44.800781 351.59375 45.585938 352.605469 46.144531 C 354.625 47.261719 356.644531 47.089844 358.785156 46.910156 C 359.28125 46.871094 359.78125 46.828125 360.285156 46.800781 C 361.546875 46.742188 362.839844 46.84375 364.09375 46.945312 C 364.15625 46.949219 364.21875 46.953125 364.285156 46.957031 C 361.980469 50.511719 357.988281 52.871094 353.4375 52.871094 C 346.304688 52.871094 340.519531 47.089844 340.519531 39.949219 C 340.519531 32.816406 346.304688 27.03125 353.4375 27.03125 C 360.207031 27.03125 365.75 32.242188 366.304688 38.867188 C 364.195312 38.425781 362.136719 38.128906 360.09375 38.128906 " fill-opacity="1" fill-rule="nonzero"/></g><g clip-path="url(#690cd1ec17)"><path fill="#f35b56" d="M 293.671875 8.421875 C 294.484375 7.703125 295.257812 7.027344 296.007812 6.597656 C 298.457031 5.199219 301.332031 4.808594 303.519531 5.578125 C 304.617188 5.964844 305.503906 6.617188 306.15625 7.527344 C 304.195312 8.71875 303.023438 10.027344 302.574219 11.523438 C 302.125 13.011719 302.996094 15.3125 304.238281 15.917969 C 304.675781 16.128906 305.535156 16.304688 306.390625 15.085938 C 307.421875 13.625 307.84375 10.382812 307.214844 8.78125 C 307.050781 8.371094 306.859375 7.992188 306.636719 7.636719 C 308.78125 6.394531 311.21875 5.546875 313.726562 5.15625 L 313.726562 25.734375 C 313.726562 26.074219 313.449219 26.351562 313.105469 26.351562 L 288.101562 26.351562 C 287.761719 26.351562 287.484375 26.074219 287.484375 25.734375 L 287.484375 10.976562 C 289.773438 11.835938 291.839844 10.03125 293.671875 8.421875 " fill-opacity="1" fill-rule="nonzero"/></g><g clip-path="url(#815284de52)"><path fill="#f35b56" d="M 306.445312 7.355469 C 305.746094 6.378906 304.792969 5.667969 303.628906 5.257812 C 301.351562 4.457031 298.371094 4.855469 295.839844 6.304688 C 295.058594 6.75 294.277344 7.4375 293.445312 8.164062 C 291.566406 9.816406 289.625 11.515625 287.484375 10.613281 L 287.484375 0.730469 C 287.484375 0.386719 287.761719 0.109375 288.101562 0.109375 L 313.105469 0.109375 C 313.449219 0.109375 313.726562 0.386719 313.726562 0.730469 L 313.726562 4.8125 C 311.152344 5.207031 308.648438 6.078125 306.445312 7.355469 " fill-opacity="1" fill-rule="nonzero"/></g><path fill="#f35b56" d="M 306.113281 14.890625 C 305.824219 15.300781 305.394531 15.730469 304.867188 15.730469 C 304.71875 15.730469 304.558594 15.691406 304.390625 15.613281 C 303.292969 15.078125 302.5 12.953125 302.898438 11.621094 C 303.328125 10.207031 304.453125 8.960938 306.347656 7.808594 C 306.558594 8.144531 306.742188 8.511719 306.898438 8.90625 C 307.496094 10.421875 307.089844 13.5 306.113281 14.890625 " fill-opacity="1" fill-rule="nonzero"/><g clip-path="url(#68e436882f)"><path fill="#f35b56" d="M 361.097656 64.226562 C 359.597656 63.851562 358.015625 63.652344 356.386719 63.652344 C 355.582031 63.652344 354.765625 63.699219 353.945312 63.796875 C 351.578125 64.078125 349.15625 64.769531 346.707031 65.832031 L 346.535156 65.535156 L 340.152344 54.484375 C 339.917969 54.082031 340.210938 53.574219 340.679688 53.574219 L 366.195312 53.574219 C 366.664062 53.574219 366.957031 54.082031 366.722656 54.484375 L 361.097656 64.226562 " fill-opacity="1" fill-rule="nonzero"/></g><g clip-path="url(#700637d964)"><path fill="#f35b56" d="M 353.988281 64.136719 C 356.386719 63.851562 358.742188 64 360.917969 64.539062 L 360.34375 65.535156 L 353.964844 76.585938 C 353.730469 76.988281 353.144531 76.988281 352.914062 76.585938 L 346.875 66.128906 C 349.285156 65.085938 351.664062 64.410156 353.988281 64.136719 " fill-opacity="1" fill-rule="nonzero"/></g><g clip-path="url(#2fa6539588)"><path fill="#8c52ff" d="M 8.371094 639.488281 C 5.796875 638.617188 3.136719 637.789062 0.429688 637.160156 L 0.429688 626.878906 C 0.429688 626.539062 0.707031 626.261719 1.050781 626.261719 L 25.9375 626.261719 C 26.277344 626.261719 26.554688 626.539062 26.554688 626.878906 L 26.554688 646.714844 C 20.625 644 14.53125 641.570312 8.371094 639.488281 " fill-opacity="1" fill-rule="nonzero"/></g><g clip-path="url(#07a74ee08a)"><path fill="#8c52ff" d="M 8.265625 639.808594 C 14.457031 641.90625 20.589844 644.347656 26.554688 647.085938 L 26.554688 651.769531 C 26.554688 652.109375 26.277344 652.382812 25.9375 652.382812 L 1.050781 652.382812 C 0.707031 652.382812 0.429688 652.109375 0.429688 651.769531 L 0.429688 637.511719 C 3.097656 638.128906 5.722656 638.945312 8.265625 639.808594 " fill-opacity="1" fill-rule="nonzero"/></g><path fill="#38b6ff" d="M 50.78125 611.011719 C 50.214844 611.398438 49.675781 611.765625 49.128906 612.085938 C 46.707031 613.496094 44.589844 613.925781 42.832031 613.359375 C 40.195312 612.507812 38.921875 610.195312 38.824219 606.074219 C 38.789062 604.707031 38.695312 603.285156 38.59375 601.785156 C 38.539062 601.011719 38.488281 600.238281 38.445312 599.464844 L 52.503906 599.464844 C 52.847656 599.464844 53.121094 599.738281 53.121094 600.082031 L 53.121094 609.554688 C 52.3125 609.972656 51.539062 610.496094 50.78125 611.011719 " fill-opacity="1" fill-rule="nonzero"/><path fill="#38b6ff" d="M 27.617188 599.464844 L 38.105469 599.464844 C 38.152344 600.257812 38.203125 601.039062 38.253906 601.808594 C 38.355469 603.304688 38.453125 604.722656 38.488281 606.082031 C 38.550781 608.777344 39.058594 612.496094 42.726562 613.679688 C 43.265625 613.855469 43.828125 613.9375 44.421875 613.9375 C 45.882812 613.9375 47.515625 613.417969 49.296875 612.378906 C 49.855469 612.050781 50.421875 611.664062 50.972656 611.292969 C 51.671875 610.816406 52.382812 610.335938 53.121094 609.941406 L 53.121094 624.96875 C 53.121094 625.3125 52.847656 625.585938 52.503906 625.585938 L 27.617188 625.585938 C 27.273438 625.585938 27 625.3125 27 624.96875 L 27 600.082031 C 27 599.738281 27.273438 599.464844 27.617188 599.464844 " fill-opacity="1" fill-rule="nonzero"/><g clip-path="url(#fccc9b3a8e)"><path fill="#fcd03e" d="M 6.691406 606.242188 C 7.199219 606.21875 7.703125 606.175781 8.203125 606.132812 C 10.273438 605.960938 12.234375 605.796875 14.164062 606.859375 C 15.09375 607.371094 15.765625 608.089844 16.050781 608.875 C 16.289062 609.535156 16.261719 610.175781 15.96875 610.78125 C 15.378906 612.003906 13.789062 612.894531 12.503906 613.324219 C 8.558594 614.628906 4.722656 614.3125 0.667969 613.457031 C 0.65625 613.210938 0.632812 612.972656 0.632812 612.726562 C 0.632812 610.289062 1.324219 608.015625 2.5 606.074219 C 2.621094 606.082031 2.738281 606.089844 2.859375 606.101562 C 4.117188 606.203125 5.421875 606.304688 6.691406 606.242188 " fill-opacity="1" fill-rule="nonzero"/></g><g clip-path="url(#1ecaaf9e5a)"><path fill="#fcd03e" d="M 6.871094 614.539062 C 8.78125 614.539062 10.679688 614.28125 12.613281 613.644531 C 13.265625 613.425781 15.46875 612.589844 16.273438 610.925781 C 16.609375 610.238281 16.640625 609.507812 16.371094 608.761719 C 16.054688 607.898438 15.328125 607.117188 14.324219 606.5625 C 12.3125 605.449219 10.300781 605.617188 8.171875 605.796875 C 7.679688 605.839844 7.179688 605.878906 6.675781 605.90625 C 5.421875 605.96875 4.132812 605.863281 2.886719 605.765625 C 2.824219 605.757812 2.761719 605.757812 2.699219 605.75 C 4.988281 602.210938 8.964844 599.863281 13.492188 599.863281 C 20.597656 599.863281 26.355469 605.621094 26.355469 612.726562 C 26.355469 619.828125 20.597656 625.585938 13.492188 625.585938 C 6.753906 625.585938 1.238281 620.402344 0.6875 613.804688 C 2.789062 614.246094 4.832031 614.539062 6.871094 614.539062 " fill-opacity="1" fill-rule="nonzero"/></g><g clip-path="url(#f7f8afbbf1)"><path fill="#f35b56" d="M 72.988281 644.113281 C 72.175781 644.824219 71.40625 645.5 70.660156 645.925781 C 68.226562 647.320312 65.363281 647.710938 63.1875 646.945312 C 62.089844 646.558594 61.210938 645.90625 60.558594 645 C 62.511719 643.8125 63.675781 642.511719 64.125 641.023438 C 64.574219 639.542969 63.703125 637.25 62.46875 636.648438 C 62.03125 636.4375 61.179688 636.265625 60.324219 637.476562 C 59.300781 638.933594 58.878906 642.160156 59.507812 643.753906 C 59.667969 644.164062 59.859375 644.539062 60.082031 644.890625 C 57.945312 646.128906 55.519531 646.972656 53.023438 647.363281 L 53.023438 626.878906 C 53.023438 626.539062 53.300781 626.261719 53.640625 626.261719 L 78.53125 626.261719 C 78.871094 626.261719 79.144531 626.539062 79.144531 626.878906 L 79.144531 641.570312 C 76.871094 640.714844 74.8125 642.507812 72.988281 644.113281 " fill-opacity="1" fill-rule="nonzero"/></g><g clip-path="url(#7b9010e281)"><path fill="#f35b56" d="M 60.273438 645.171875 C 60.96875 646.144531 61.917969 646.855469 63.074219 647.261719 C 65.339844 648.058594 68.308594 647.660156 70.828125 646.21875 C 71.605469 645.773438 72.386719 645.089844 73.210938 644.367188 C 75.082031 642.722656 77.015625 641.03125 79.144531 641.929688 L 79.144531 651.769531 C 79.144531 652.109375 78.871094 652.382812 78.53125 652.382812 L 53.640625 652.382812 C 53.300781 652.382812 53.023438 652.109375 53.023438 651.769531 L 53.023438 647.703125 C 55.585938 647.3125 58.078125 646.445312 60.273438 645.171875 " fill-opacity="1" fill-rule="nonzero"/></g><path fill="#f35b56" d="M 60.601562 637.675781 C 60.890625 637.265625 61.320312 636.835938 61.839844 636.835938 C 61.992188 636.835938 62.152344 636.875 62.316406 636.953125 C 63.410156 637.488281 64.199219 639.601562 63.800781 640.925781 C 63.375 642.332031 62.253906 643.578125 60.371094 644.71875 C 60.160156 644.386719 59.976562 644.023438 59.820312 643.628906 C 59.226562 642.117188 59.628906 639.054688 60.601562 637.675781 " fill-opacity="1" fill-rule="nonzero"/><g clip-path="url(#390a33f549)"><path fill="#f35b56" d="M 5.871094 588.558594 C 7.363281 588.933594 8.9375 589.132812 10.558594 589.132812 C 11.359375 589.132812 12.171875 589.085938 12.988281 588.988281 C 15.34375 588.710938 17.753906 588.023438 20.195312 586.960938 L 20.367188 587.257812 L 26.71875 598.257812 C 26.949219 598.660156 26.660156 599.164062 26.195312 599.164062 L 0.792969 599.164062 C 0.328125 599.164062 0.0390625 598.660156 0.269531 598.257812 L 5.871094 588.558594 " fill-opacity="1" fill-rule="nonzero"/></g><g clip-path="url(#3ae5e66af0)"><path fill="#f35b56" d="M 12.949219 588.652344 C 10.558594 588.933594 8.214844 588.789062 6.046875 588.25 L 6.621094 587.257812 L 12.972656 576.257812 C 13.203125 575.855469 13.785156 575.855469 14.015625 576.257812 L 20.027344 586.667969 C 17.628906 587.703125 15.261719 588.378906 12.949219 588.652344 " fill-opacity="1" fill-rule="nonzero"/></g><path fill="#38b6ff" d="M 287.566406 624.5625 C 286.917969 627.558594 286.429688 630.730469 286.183594 633.953125 L 301.625 628.097656 C 302.269531 624.875 302.953125 621.621094 303.800781 618.40625 L 287.566406 624.5625 " fill-opacity="1" fill-rule="nonzero"/><path fill="#38b6ff" d="M 314.738281 619.753906 C 315.046875 617.777344 315.433594 615.796875 315.832031 613.84375 L 304.238281 618.242188 C 303.382812 621.453125 302.6875 624.710938 302.042969 627.9375 L 314.226562 623.320312 C 314.386719 622.132812 314.550781 620.949219 314.738281 619.753906 " fill-opacity="1" fill-rule="nonzero"/><g clip-path="url(#cc2899b90a)"><path fill="#38b6ff" d="M 287.148438 624.722656 L 275.847656 629.007812 C 275.070312 629.296875 274.679688 630.167969 274.976562 630.945312 L 276.847656 635.882812 C 277.140625 636.660156 278.011719 637.050781 278.789062 636.753906 L 285.796875 634.097656 C 286.035156 630.886719 286.511719 627.714844 287.148438 624.722656 " fill-opacity="1" fill-rule="nonzero"/></g><path fill="#38b6ff" d="M 340.269531 610.257812 C 338.773438 609.03125 337.183594 607.726562 335.667969 606.328125 L 316.253906 613.6875 C 315.832031 615.714844 315.433594 617.765625 315.109375 619.8125 C 314.933594 620.9375 314.78125 622.050781 314.628906 623.167969 L 342.957031 612.429688 C 342.648438 612.203125 342.351562 611.976562 342.09375 611.761719 C 341.511719 611.273438 340.898438 610.773438 340.269531 610.257812 " fill-opacity="1" fill-rule="nonzero"/><path fill="#38b6ff" d="M 352.679688 607.132812 L 350.804688 602.195312 C 350.511719 601.417969 349.644531 601.027344 348.867188 601.324219 L 336.0625 606.175781 C 337.53125 607.523438 339.066406 608.785156 340.511719 609.964844 C 341.140625 610.480469 341.753906 610.984375 342.335938 611.472656 C 342.640625 611.730469 342.996094 611.996094 343.382812 612.265625 L 351.804688 609.074219 C 352.582031 608.777344 352.972656 607.910156 352.679688 607.132812 " fill-opacity="1" fill-rule="nonzero"/><path fill="#38b6ff" d="M 313.613281 632.019531 C 315.144531 630.367188 317.328125 629.324219 319.761719 629.324219 C 323.816406 629.324219 327.203125 632.207031 327.980469 636.035156 C 329.402344 634.125 331.011719 632.394531 332.785156 630.875 C 330.324219 626.195312 325.417969 623 319.761719 623 C 317.90625 623 316.144531 623.355469 314.511719 623.976562 C 314.144531 626.703125 313.851562 629.378906 313.613281 632.019531 " fill-opacity="1" fill-rule="nonzero"/><path fill="#f35b56" d="M 313.613281 632.019531 C 315.144531 630.367188 317.328125 629.324219 319.761719 629.324219 C 323.816406 629.324219 327.203125 632.207031 327.980469 636.035156 C 329.402344 634.125 331.011719 632.394531 332.785156 630.875 C 330.324219 626.195312 325.417969 623 319.761719 623 C 317.90625 623 316.144531 623.355469 314.511719 623.976562 C 314.144531 626.703125 313.851562 629.378906 313.613281 632.019531 " fill-opacity="1" fill-rule="nonzero"/><g clip-path="url(#396ab2eb10)"><path fill="#38b6ff" d="M 319.761719 646.101562 C 316.988281 646.101562 314.542969 644.753906 313.015625 642.683594 C 312.984375 644.664062 312.984375 646.746094 313.035156 649.015625 C 313.046875 649.585938 313.019531 650.167969 312.984375 650.769531 C 315.011719 651.824219 317.316406 652.433594 319.761719 652.433594 C 320.347656 652.433594 320.921875 652.386719 321.488281 652.320312 C 321.808594 649.921875 322.34375 647.609375 323.089844 645.414062 C 322.066406 645.855469 320.945312 646.101562 319.761719 646.101562 " fill-opacity="1" fill-rule="nonzero"/><path fill="#f35b56" d="M 319.761719 646.101562 C 316.988281 646.101562 314.542969 644.753906 313.015625 642.683594 C 312.984375 644.664062 312.984375 646.746094 313.035156 649.015625 C 313.046875 649.585938 313.019531 650.167969 312.984375 650.769531 C 315.011719 651.824219 317.316406 652.433594 319.761719 652.433594 C 320.347656 652.433594 320.921875 652.386719 321.488281 652.320312 C 321.808594 649.921875 322.34375 647.609375 323.089844 645.414062 C 322.066406 645.855469 320.945312 646.101562 319.761719 646.101562 " fill-opacity="1" fill-rule="nonzero"/></g><path fill="#38b6ff" d="M 312.65625 649.019531 C 312.601562 646.546875 312.601562 644.277344 312.648438 642.144531 C 311.84375 640.855469 311.371094 639.34375 311.371094 637.714844 C 311.371094 635.746094 312.054688 633.9375 313.191406 632.503906 C 313.429688 629.757812 313.730469 626.96875 314.105469 624.125 C 308.789062 626.34375 305.046875 631.589844 305.046875 637.714844 C 305.046875 643.25 308.101562 648.0625 312.617188 650.574219 C 312.644531 650.042969 312.664062 649.523438 312.65625 649.019531 " fill-opacity="1" fill-rule="nonzero"/><path fill="#f35b56" d="M 312.65625 649.019531 C 312.601562 646.546875 312.601562 644.277344 312.648438 642.144531 C 311.84375 640.855469 311.371094 639.34375 311.371094 637.714844 C 311.371094 635.746094 312.054688 633.9375 313.191406 632.503906 C 313.429688 629.757812 313.730469 626.96875 314.105469 624.125 C 308.789062 626.34375 305.046875 631.589844 305.046875 637.714844 C 305.046875 643.25 308.101562 648.0625 312.617188 650.574219 C 312.644531 650.042969 312.664062 649.523438 312.65625 649.019531 " fill-opacity="1" fill-rule="nonzero"/><g clip-path="url(#ab1d0db1aa)"><path fill="#38b6ff" d="M 328.0625 636.5625 C 328.113281 636.941406 328.148438 637.320312 328.148438 637.714844 C 328.148438 640.972656 326.289062 643.792969 323.574219 645.179688 C 322.785156 647.425781 322.210938 649.796875 321.875 652.261719 C 329 651.234375 334.476562 645.121094 334.476562 637.714844 C 334.476562 635.386719 333.921875 633.191406 332.957031 631.230469 C 331.140625 632.792969 329.496094 634.582031 328.0625 636.5625 " fill-opacity="1" fill-rule="nonzero"/><path fill="#f35b56" d="M 328.0625 636.5625 C 328.113281 636.941406 328.148438 637.320312 328.148438 637.714844 C 328.148438 640.972656 326.289062 643.792969 323.574219 645.179688 C 322.785156 647.425781 322.210938 649.796875 321.875 652.261719 C 329 651.234375 334.476562 645.121094 334.476562 637.714844 C 334.476562 635.386719 333.921875 633.191406 332.957031 631.230469 C 331.140625 632.792969 329.496094 634.582031 328.0625 636.5625 " fill-opacity="1" fill-rule="nonzero"/></g><path fill="#fcd03e" d="M 344.347656 580.296875 L 344.402344 581.164062 C 344.515625 582.90625 345.007812 587.175781 347.152344 589.160156 C 348.449219 590.355469 350.257812 590.925781 352.003906 590.695312 C 353.917969 590.441406 355.769531 589.246094 357.21875 587.332031 C 359.460938 584.371094 360.644531 580.84375 361.789062 577.4375 C 361.816406 577.355469 361.84375 577.277344 361.871094 577.199219 L 352.773438 570.589844 C 351.730469 569.832031 350.3125 569.832031 349.269531 570.589844 L 343.984375 574.425781 C 344.101562 576.398438 344.222656 578.363281 344.347656 580.296875 " fill-opacity="1" fill-rule="nonzero"/><g clip-path="url(#a49e57baa2)"><path fill="#fcd03e" d="M 365.601562 579.910156 L 362.1875 577.429688 C 362.175781 577.472656 362.164062 577.511719 362.148438 577.554688 C 360.996094 580.996094 359.800781 584.546875 357.519531 587.5625 C 356.011719 589.558594 354.070312 590.804688 352.054688 591.070312 C 351.785156 591.105469 351.511719 591.125 351.238281 591.125 C 349.648438 591.125 348.074219 590.523438 346.894531 589.4375 C 344.648438 587.363281 344.140625 582.976562 344.023438 581.1875 L 343.972656 580.324219 C 343.851562 578.464844 343.734375 576.582031 343.625 574.691406 L 336.441406 579.910156 C 335.398438 580.671875 334.957031 582.015625 335.359375 583.246094 L 340.257812 598.324219 C 340.65625 599.554688 341.800781 600.386719 343.09375 600.386719 L 358.949219 600.386719 C 360.242188 600.386719 361.386719 599.554688 361.789062 598.324219 L 366.6875 583.246094 C 367.085938 582.015625 366.648438 580.671875 365.601562 579.910156 " fill-opacity="1" fill-rule="nonzero"/></g><path fill="#38b6ff" d="M 79.425781 27.9375 C 80.070312 24.941406 80.5625 21.769531 80.804688 18.546875 L 65.363281 24.402344 C 64.722656 27.625 64.035156 30.878906 63.191406 34.09375 L 79.425781 27.9375 " fill-opacity="1" fill-rule="nonzero"/><path fill="#38b6ff" d="M 52.25 32.746094 C 51.941406 34.722656 51.558594 36.703125 51.15625 38.65625 L 62.753906 34.257812 C 63.609375 31.046875 64.300781 27.789062 64.945312 24.5625 L 52.765625 29.179688 C 52.601562 30.367188 52.441406 31.550781 52.25 32.746094 " fill-opacity="1" fill-rule="nonzero"/><g clip-path="url(#0f194522ff)"><path fill="#38b6ff" d="M 79.84375 27.777344 L 91.140625 23.492188 C 91.917969 23.203125 92.3125 22.332031 92.015625 21.554688 L 90.140625 16.617188 C 89.851562 15.839844 88.980469 15.449219 88.203125 15.746094 L 81.195312 18.402344 C 80.957031 21.613281 80.476562 24.785156 79.84375 27.777344 " fill-opacity="1" fill-rule="nonzero"/></g><path fill="#38b6ff" d="M 26.71875 42.242188 C 28.214844 43.46875 29.804688 44.773438 31.324219 46.171875 L 50.738281 38.8125 C 51.15625 36.785156 51.554688 34.734375 51.878906 32.6875 C 52.058594 31.5625 52.207031 30.449219 52.359375 29.332031 L 24.035156 40.070312 C 24.34375 40.296875 24.640625 40.523438 24.894531 40.738281 C 25.476562 41.226562 26.089844 41.726562 26.71875 42.242188 " fill-opacity="1" fill-rule="nonzero"/><path fill="#38b6ff" d="M 14.3125 45.367188 L 16.183594 50.304688 C 16.476562 51.082031 17.347656 51.472656 18.125 51.175781 L 30.925781 46.324219 C 29.460938 44.976562 27.921875 43.714844 26.480469 42.535156 C 25.847656 42.019531 25.238281 41.515625 24.652344 41.027344 C 24.351562 40.769531 23.992188 40.503906 23.609375 40.234375 L 15.183594 43.425781 C 14.410156 43.722656 14.015625 44.589844 14.3125 45.367188 " fill-opacity="1" fill-rule="nonzero"/><path fill="#38b6ff" d="M 53.375 20.480469 C 51.84375 22.132812 49.660156 23.175781 47.230469 23.175781 C 43.171875 23.175781 39.789062 20.292969 39.007812 16.464844 C 37.589844 18.375 35.980469 20.101562 34.207031 21.625 C 36.667969 26.304688 41.574219 29.5 47.230469 29.5 C 49.082031 29.5 50.847656 29.144531 52.480469 28.523438 C 52.847656 25.796875 53.140625 23.117188 53.375 20.480469 " fill-opacity="1" fill-rule="nonzero"/><path fill="#f35b56" d="M 53.375 20.480469 C 51.84375 22.132812 49.660156 23.175781 47.230469 23.175781 C 43.171875 23.175781 39.789062 20.292969 39.007812 16.464844 C 37.589844 18.375 35.980469 20.101562 34.207031 21.625 C 36.667969 26.304688 41.574219 29.5 47.230469 29.5 C 49.082031 29.5 50.847656 29.144531 52.480469 28.523438 C 52.847656 25.796875 53.140625 23.117188 53.375 20.480469 " fill-opacity="1" fill-rule="nonzero"/><g clip-path="url(#ae0149e990)"><path fill="#38b6ff" d="M 47.230469 6.398438 C 50 6.398438 52.445312 7.746094 53.976562 9.8125 C 54.007812 7.835938 54.003906 5.753906 53.957031 3.484375 C 53.945312 2.914062 53.972656 2.332031 54.003906 1.730469 C 51.976562 0.675781 49.675781 0.0664062 47.230469 0.0664062 C 46.640625 0.0664062 46.066406 0.113281 45.5 0.179688 C 45.183594 2.578125 44.644531 4.890625 43.902344 7.085938 C 44.921875 6.644531 46.046875 6.398438 47.230469 6.398438 " fill-opacity="1" fill-rule="nonzero"/><path fill="#f35b56" d="M 47.230469 6.398438 C 50 6.398438 52.445312 7.746094 53.976562 9.8125 C 54.007812 7.835938 54.003906 5.753906 53.957031 3.484375 C 53.945312 2.914062 53.972656 2.332031 54.003906 1.730469 C 51.976562 0.675781 49.675781 0.0664062 47.230469 0.0664062 C 46.640625 0.0664062 46.066406 0.113281 45.5 0.179688 C 45.183594 2.578125 44.644531 4.890625 43.902344 7.085938 C 44.921875 6.644531 46.046875 6.398438 47.230469 6.398438 " fill-opacity="1" fill-rule="nonzero"/></g><path fill="#38b6ff" d="M 54.335938 3.480469 C 54.386719 5.953125 54.386719 8.222656 54.34375 10.355469 C 55.144531 11.644531 55.617188 13.15625 55.617188 14.785156 C 55.617188 16.753906 54.933594 18.5625 53.796875 19.996094 C 53.5625 22.742188 53.261719 25.53125 52.882812 28.375 C 58.203125 26.15625 61.945312 20.910156 61.945312 14.785156 C 61.945312 9.25 58.886719 4.4375 54.375 1.925781 C 54.347656 2.457031 54.328125 2.976562 54.335938 3.480469 " fill-opacity="1" fill-rule="nonzero"/><path fill="#f35b56" d="M 54.335938 3.480469 C 54.386719 5.953125 54.386719 8.222656 54.34375 10.355469 C 55.144531 11.644531 55.617188 13.15625 55.617188 14.785156 C 55.617188 16.753906 54.933594 18.5625 53.796875 19.996094 C 53.5625 22.742188 53.261719 25.53125 52.882812 28.375 C 58.203125 26.15625 61.945312 20.910156 61.945312 14.785156 C 61.945312 9.25 58.886719 4.4375 54.375 1.925781 C 54.347656 2.457031 54.328125 2.976562 54.335938 3.480469 " fill-opacity="1" fill-rule="nonzero"/><g clip-path="url(#3c28fee997)"><path fill="#38b6ff" d="M 38.929688 15.9375 C 38.875 15.558594 38.839844 15.179688 38.839844 14.785156 C 38.839844 11.527344 40.703125 8.707031 43.417969 7.320312 C 44.207031 5.074219 44.78125 2.703125 45.113281 0.238281 C 37.992188 1.265625 32.515625 7.378906 32.515625 14.785156 C 32.515625 17.113281 33.070312 19.308594 34.035156 21.269531 C 35.851562 19.707031 37.496094 17.917969 38.929688 15.9375 " fill-opacity="1" fill-rule="nonzero"/><path fill="#f35b56" d="M 38.929688 15.9375 C 38.875 15.558594 38.839844 15.179688 38.839844 14.785156 C 38.839844 11.527344 40.703125 8.707031 43.417969 7.320312 C 44.207031 5.074219 44.78125 2.703125 45.113281 0.238281 C 37.992188 1.265625 32.515625 7.378906 32.515625 14.785156 C 32.515625 17.113281 33.070312 19.308594 34.035156 21.269531 C 35.851562 19.707031 37.496094 17.917969 38.929688 15.9375 " fill-opacity="1" fill-rule="nonzero"/></g><g clip-path="url(#072b28e479)"><path fill="#fcd03e" d="M 22.644531 72.203125 L 22.589844 71.335938 C 22.476562 69.59375 21.984375 65.324219 19.839844 63.339844 C 18.542969 62.144531 16.730469 61.574219 14.988281 61.804688 C 13.070312 62.058594 11.222656 63.25 9.773438 65.167969 C 7.527344 68.128906 6.347656 71.65625 5.199219 75.0625 C 5.171875 75.144531 5.148438 75.222656 5.121094 75.300781 L 14.21875 81.910156 C 15.261719 82.667969 16.679688 82.667969 17.722656 81.910156 L 23.003906 78.074219 C 22.890625 76.101562 22.769531 74.136719 22.644531 72.203125 " fill-opacity="1" fill-rule="nonzero"/></g><g clip-path="url(#a757f1f628)"><path fill="#fcd03e" d="M 1.386719 72.589844 L 4.800781 75.070312 C 4.816406 75.027344 4.828125 74.988281 4.84375 74.945312 C 5.996094 71.503906 7.191406 67.953125 9.472656 64.9375 C 10.980469 62.941406 12.921875 61.695312 14.9375 61.429688 C 15.207031 61.394531 15.480469 61.375 15.75 61.375 C 17.34375 61.375 18.917969 61.976562 20.09375 63.0625 C 22.339844 65.136719 22.851562 69.523438 22.964844 71.3125 L 23.019531 72.175781 C 23.140625 74.035156 23.253906 75.917969 23.367188 77.808594 L 30.550781 72.589844 C 31.59375 71.828125 32.035156 70.484375 31.632812 69.253906 L 26.734375 54.175781 C 26.332031 52.945312 25.1875 52.113281 23.894531 52.113281 L 8.042969 52.113281 C 6.75 52.113281 5.605469 52.945312 5.203125 54.175781 L 0.304688 69.253906 C -0.09375 70.484375 0.34375 71.828125 1.386719 72.589844 " fill-opacity="1" fill-rule="nonzero"/></g></svg>