<svg xmlns="http://www.w3.org/2000/svg" xmlns:xlink="http://www.w3.org/1999/xlink" width="200" zoomAndPan="magnify" viewBox="0 0 150 74.999997" height="100" preserveAspectRatio="xMidYMid meet" version="1.0"><defs><filter x="0%" y="0%" width="100%" height="100%" id="5d36af510a"><feColorMatrix values="0 0 0 0 1 0 0 0 0 1 0 0 0 0 1 0 0 0 1 0" color-interpolation-filters="sRGB"/></filter><g/><mask id="733b658e23"><g filter="url(#5d36af510a)"><rect x="-15" width="180" fill="#000000" y="-7.5" height="89.999996" fill-opacity="0.23"/></g></mask><clipPath id="e78ed773f0"><path d="M 1 1 L 47.558594 1 L 47.558594 47 L 1 47 Z M 1 1 " clip-rule="nonzero"/></clipPath><clipPath id="cbaea6daa8"><path d="M 0.28125 0.679688 L 47.558594 0.679688 L 47.558594 48.441406 L 0.28125 48.441406 Z M 0.28125 0.679688 " clip-rule="nonzero"/></clipPath><clipPath id="1f909fa870"><rect x="0" width="48" y="0" height="49"/></clipPath></defs><rect x="-15" width="180" fill="#ffffff" y="-7.5" height="89.999996" fill-opacity="1"/><rect x="-15" width="180" fill="#ffffff" y="-7.5" height="89.999996" fill-opacity="1"/><g mask="url(#733b658e23)"><g transform="matrix(1, 0, 0, 1, 23, 13)"><g clip-path="url(#1f909fa870)"><g clip-path="url(#e78ed773f0)"><path fill="#8b73ff" d="M 28.117188 28.410156 L 19.933594 28.292969 L 21.113281 20.109375 L 29.292969 20.226562 Z M 45.609375 20.460938 C 46.507812 20.460938 47.242188 19.730469 47.242188 18.828125 L 47.242188 13.816406 C 47.242188 12.914062 46.507812 12.179688 45.609375 12.179688 L 38.75 12.082031 L 40.019531 3.269531 C 40.019531 2.363281 39.285156 1.632812 38.382812 1.632812 L 33.371094 1.632812 C 32.46875 1.632812 31.738281 2.363281 31.738281 3.269531 L 30.484375 11.960938 L 22.304688 11.847656 L 23.539062 3.269531 C 23.539062 2.363281 22.804688 1.632812 21.902344 1.632812 L 16.890625 1.632812 C 15.988281 1.632812 15.253906 2.363281 15.253906 3.269531 L 14.039062 11.726562 L 3.621094 11.574219 C 2.71875 11.574219 1.984375 12.308594 1.984375 13.210938 L 1.984375 18.222656 C 1.984375 19.125 2.71875 19.859375 3.621094 19.859375 L 12.847656 19.992188 L 11.667969 28.171875 L 3.621094 28.058594 C 2.71875 28.058594 1.984375 28.789062 1.984375 29.691406 L 1.984375 34.703125 C 1.984375 35.605469 2.71875 36.339844 3.621094 36.339844 L 10.476562 36.4375 L 9.210938 45.253906 C 9.210938 46.15625 9.941406 46.890625 10.84375 46.890625 L 15.855469 46.890625 C 16.757812 46.890625 17.492188 46.15625 17.492188 45.253906 L 18.742188 36.558594 L 26.925781 36.675781 L 25.691406 45.253906 C 25.691406 46.15625 26.421875 46.890625 27.324219 46.890625 L 32.339844 46.890625 C 33.238281 46.890625 33.972656 46.15625 33.972656 45.253906 L 35.191406 36.792969 L 45.609375 36.945312 C 46.507812 36.945312 47.242188 36.210938 47.242188 35.308594 L 47.242188 30.296875 C 47.242188 29.394531 46.507812 28.664062 45.609375 28.664062 L 36.378906 28.527344 L 37.558594 20.347656 L 45.609375 20.460938 " fill-opacity="1" fill-rule="nonzero"/></g><path fill="#8b73ff" d="M 34.449219 3.171875 C 36.453125 4.519531 37.535156 6.46875 37.4375 8.933594 C 37.402344 9.898438 37.339844 10.867188 37.265625 11.832031 C 37.195312 12.273438 37.144531 12.71875 37.101562 13.164062 C 39.855469 14.234375 43.226562 14.152344 46.441406 13.960938 C 46.175781 13.410156 45.621094 13.027344 44.972656 13.027344 L 38.113281 12.929688 L 39.382812 4.113281 C 39.382812 3.210938 38.652344 2.480469 37.75 2.480469 L 32.738281 2.480469 C 32.734375 2.480469 32.734375 2.480469 32.730469 2.480469 C 33.289062 2.5625 33.867188 2.777344 34.449219 3.171875 " fill-opacity="1" fill-rule="nonzero"/><g clip-path="url(#cbaea6daa8)"><path fill="#8b73ff" d="M 45.609375 20.460938 L 37.558594 20.375 L 37.589844 20.351562 L 36.4375 28.539062 L 36.382812 28.46875 L 43.828125 28.507812 L 45.695312 28.519531 C 46.378906 28.535156 47.023438 28.988281 47.28125 29.628906 C 47.347656 29.78125 47.382812 29.953125 47.40625 30.132812 C 47.417969 30.285156 47.417969 30.457031 47.417969 30.605469 L 47.429688 31.535156 L 47.46875 35.261719 C 47.5 35.957031 47.089844 36.679688 46.445312 37 C 46.132812 37.171875 45.742188 37.226562 45.425781 37.214844 L 44.496094 37.214844 L 42.632812 37.222656 L 35.183594 37.246094 L 35.640625 36.859375 L 34.574219 45.339844 L 34.578125 45.253906 C 34.589844 45.832031 34.359375 46.417969 33.953125 46.835938 C 33.558594 47.261719 32.949219 47.527344 32.402344 47.539062 L 29.832031 47.585938 L 27.28125 47.628906 C 26.667969 47.628906 26.050781 47.371094 25.613281 46.933594 C 25.171875 46.5 24.910156 45.878906 24.902344 45.253906 L 24.902344 45.207031 L 24.910156 45.140625 L 25.992188 36.539062 L 26.914062 37.617188 L 18.726562 37.644531 L 19.820312 36.714844 L 18.722656 45.429688 L 18.734375 45.253906 C 18.746094 45.996094 18.449219 46.75 17.925781 47.285156 C 17.667969 47.554688 17.355469 47.777344 17.007812 47.929688 C 16.835938 48 16.65625 48.0625 16.46875 48.101562 C 16.371094 48.125 16.246094 48.144531 16.136719 48.15625 L 15.953125 48.167969 L 13.351562 48.199219 L 10.789062 48.222656 C 10.019531 48.21875 9.25 47.894531 8.710938 47.34375 C 8.167969 46.800781 7.84375 46.027344 7.84375 45.253906 L 7.84375 45.164062 L 7.855469 45.058594 L 9.042969 36.230469 L 10.457031 37.890625 L 4.195312 37.820312 L 3.800781 37.820312 L 3.605469 37.816406 C 3.539062 37.8125 3.375 37.808594 3.265625 37.796875 C 2.773438 37.738281 2.289062 37.5625 1.875 37.285156 C 1.464844 37.007812 1.121094 36.628906 0.882812 36.191406 C 0.765625 35.972656 0.667969 35.742188 0.605469 35.5 C 0.574219 35.390625 0.546875 35.246094 0.527344 35.085938 C 0.503906 34.890625 0.511719 34.894531 0.503906 34.808594 L 0.488281 31.601562 L 0.484375 30.035156 L 0.484375 29.605469 C 0.492188 29.355469 0.527344 29.105469 0.59375 28.863281 C 0.722656 28.375 0.976562 27.925781 1.316406 27.558594 C 1.652344 27.1875 2.082031 26.902344 2.558594 26.734375 C 2.675781 26.6875 2.796875 26.65625 2.917969 26.625 C 3.039062 26.59375 3.21875 26.574219 3.367188 26.558594 L 3.46875 26.550781 L 3.664062 26.546875 L 3.863281 26.550781 L 5.425781 26.578125 L 11.691406 26.691406 L 10.203125 27.960938 L 11.410156 19.785156 L 12.824219 21.441406 L 5.378906 21.265625 L 3.46875 21.214844 C 2.324219 21.164062 1.265625 20.390625 0.859375 19.332031 C 0.753906 19.074219 0.6875 18.792969 0.660156 18.449219 L 0.65625 18.332031 L 0.652344 18.148438 L 0.65625 17.914062 L 0.664062 16.984375 L 0.683594 15.121094 L 0.703125 13.261719 C 0.695312 12.789062 0.835938 12.167969 1.132812 11.71875 C 1.417969 11.246094 1.839844 10.867188 2.335938 10.628906 C 2.585938 10.5 2.832031 10.425781 3.132812 10.375 L 3.378906 10.34375 L 3.503906 10.339844 L 3.640625 10.335938 L 3.699219 10.335938 L 3.816406 10.339844 L 4.746094 10.371094 L 6.605469 10.429688 L 14.054688 10.671875 L 12.992188 11.574219 L 14.359375 3.136719 L 14.351562 3.269531 C 14.355469 2.613281 14.632812 1.960938 15.09375 1.503906 C 15.539062 1.042969 16.226562 0.773438 16.816406 0.777344 L 19.394531 0.816406 L 21.945312 0.863281 C 22.566406 0.878906 23.179688 1.152344 23.601562 1.597656 C 24.03125 2.039062 24.273438 2.660156 24.261719 3.269531 L 24.261719 3.332031 L 24.257812 3.371094 L 22.867188 11.925781 L 22.308594 11.273438 L 30.492188 11.539062 L 30.0625 11.902344 L 31.46875 3.226562 L 31.464844 3.269531 C 31.472656 2.773438 31.679688 2.289062 32.027344 1.949219 C 32.371094 1.605469 32.863281 1.40625 33.328125 1.402344 L 35.878906 1.429688 L 38.417969 1.457031 C 39.375 1.460938 40.199219 2.328125 40.167969 3.269531 L 40.167969 3.289062 L 38.808594 12.089844 L 38.75 12.019531 L 45.125 12.136719 C 45.472656 12.152344 45.847656 12.113281 46.1875 12.25 C 46.527344 12.375 46.820312 12.621094 47.011719 12.925781 C 47.210938 13.226562 47.285156 13.601562 47.265625 13.957031 L 47.265625 15.015625 L 47.257812 17.144531 L 47.253906 18.207031 C 47.238281 18.558594 47.289062 18.921875 47.1875 19.265625 C 47.007812 19.964844 46.320312 20.476562 45.609375 20.460938 Z M 45.609375 20.460938 C 46.320312 20.46875 47 19.953125 47.175781 19.261719 C 47.269531 18.921875 47.21875 18.558594 47.230469 18.207031 L 47.226562 17.144531 L 47.21875 15.015625 L 47.214844 13.957031 C 47.226562 13.601562 47.15625 13.25 46.960938 12.957031 C 46.773438 12.667969 46.492188 12.433594 46.164062 12.316406 C 45.839844 12.183594 45.480469 12.226562 45.125 12.210938 L 43 12.191406 L 38.746094 12.144531 L 38.679688 12.144531 L 38.6875 12.074219 L 39.871094 3.246094 L 39.871094 3.269531 C 39.878906 2.484375 39.179688 1.792969 38.410156 1.808594 L 35.878906 1.835938 L 33.351562 1.863281 C 32.59375 1.863281 31.976562 2.550781 32.007812 3.269531 L 32.007812 3.28125 L 32.003906 3.304688 L 30.90625 12.023438 L 30.859375 12.386719 L 30.476562 12.390625 L 22.292969 12.417969 L 21.652344 12.417969 L 21.738281 11.761719 L 22.820312 3.164062 L 22.8125 3.269531 C 22.808594 2.789062 22.375 2.378906 21.917969 2.402344 L 19.394531 2.445312 L 16.902344 2.492188 C 16.4375 2.503906 16.144531 2.882812 16.160156 3.269531 L 16.160156 3.308594 L 16.152344 3.394531 L 15.082031 11.878906 L 14.96875 12.777344 L 14.023438 12.78125 L 6.574219 12.808594 L 4.710938 12.8125 L 3.78125 12.816406 L 3.605469 12.816406 C 3.585938 12.816406 3.753906 12.8125 3.679688 12.816406 L 3.65625 12.816406 L 3.628906 12.820312 L 3.515625 12.828125 C 3.523438 12.832031 3.53125 12.832031 3.535156 12.832031 C 3.53125 12.835938 3.472656 12.847656 3.453125 12.871094 C 3.390625 12.90625 3.335938 12.960938 3.308594 13.027344 C 3.292969 13.054688 3.28125 13.085938 3.277344 13.121094 C 3.265625 13.167969 3.269531 13.148438 3.269531 13.261719 L 3.289062 15.121094 L 3.308594 16.984375 L 3.316406 17.914062 L 3.320312 18.148438 L 3.320312 18.21875 C 3.320312 18.238281 3.316406 18.097656 3.320312 18.160156 L 3.320312 18.195312 L 3.328125 18.3125 C 3.339844 18.328125 3.324219 18.261719 3.335938 18.292969 C 3.335938 18.308594 3.34375 18.320312 3.347656 18.332031 C 3.394531 18.433594 3.503906 18.5 3.605469 18.492188 L 5.417969 18.503906 L 12.867188 18.539062 L 14.515625 18.546875 L 14.28125 20.199219 L 13.132812 28.382812 L 12.953125 29.667969 L 11.648438 29.652344 L 5.382812 29.585938 L 3.816406 29.570312 L 3.625 29.566406 L 3.605469 29.566406 C 3.644531 29.566406 3.503906 29.570312 3.695312 29.566406 L 3.671875 29.566406 L 3.625 29.570312 L 3.53125 29.574219 C 3.550781 29.582031 3.601562 29.570312 3.59375 29.574219 C 3.589844 29.578125 3.582031 29.574219 3.578125 29.578125 C 3.5625 29.582031 3.542969 29.589844 3.527344 29.609375 C 3.515625 29.621094 3.5 29.636719 3.496094 29.65625 C 3.492188 29.667969 3.492188 29.675781 3.492188 29.6875 L 3.488281 30.035156 L 3.484375 31.601562 L 3.472656 34.660156 C 3.472656 34.707031 3.476562 34.839844 3.480469 34.773438 C 3.476562 34.742188 3.472656 34.730469 3.476562 34.742188 C 3.476562 34.753906 3.484375 34.765625 3.484375 34.777344 C 3.496094 34.796875 3.515625 34.816406 3.535156 34.835938 C 3.558594 34.847656 3.578125 34.855469 3.601562 34.859375 L 3.648438 34.863281 L 4.234375 34.875 L 10.496094 34.984375 L 12.167969 35.019531 L 11.914062 36.644531 L 10.558594 45.449219 L 10.574219 45.253906 C 10.558594 45.394531 10.683594 45.542969 10.839844 45.546875 L 13.351562 45.578125 L 15.820312 45.605469 C 15.863281 45.601562 15.953125 45.601562 15.957031 45.597656 C 15.945312 45.59375 15.929688 45.597656 15.933594 45.597656 C 15.953125 45.597656 15.972656 45.589844 15.996094 45.582031 C 16.039062 45.566406 16.082031 45.542969 16.121094 45.511719 C 16.191406 45.445312 16.238281 45.359375 16.246094 45.253906 L 16.265625 45.042969 L 16.261719 45.074219 L 17.667969 36.402344 L 17.824219 35.441406 L 18.757812 35.46875 L 26.9375 35.734375 L 28.023438 35.769531 L 27.859375 36.808594 L 26.46875 45.363281 L 26.476562 45.253906 C 26.449219 45.695312 26.835938 46.132812 27.308594 46.144531 L 29.832031 46.191406 L 32.335938 46.234375 C 32.894531 46.257812 33.355469 45.796875 33.367188 45.253906 L 33.367188 45.199219 L 33.371094 45.167969 L 34.742188 36.730469 L 34.808594 36.328125 L 35.195312 36.339844 L 42.640625 36.582031 L 44.503906 36.640625 L 45.433594 36.667969 C 45.734375 36.6875 45.980469 36.660156 46.21875 36.542969 C 46.703125 36.320312 47.027344 35.8125 47.011719 35.261719 L 47.035156 33.398438 L 47.054688 31.535156 L 47.0625 30.605469 C 47.066406 30.441406 47.070312 30.308594 47.0625 30.148438 C 47.046875 30.019531 47.019531 29.882812 46.96875 29.753906 C 46.773438 29.230469 46.25 28.839844 45.683594 28.8125 L 43.824219 28.765625 L 36.378906 28.589844 L 36.3125 28.585938 L 36.324219 28.519531 L 37.53125 20.34375 L 37.535156 20.316406 L 37.5625 20.316406 L 45.609375 20.460938 " fill-opacity="1" fill-rule="nonzero"/></g><path fill="#8b73ff" d="M 28.117188 28.410156 C 28.046875 27.703125 28.015625 27.003906 27.992188 26.304688 C 27.964844 25.605469 27.964844 24.910156 27.96875 24.210938 C 27.976562 22.824219 28.03125 21.4375 28.113281 20.058594 L 29.277344 21.421875 C 27.910156 21.515625 26.546875 21.566406 25.183594 21.605469 C 23.820312 21.636719 22.453125 21.636719 21.089844 21.621094 L 22.609375 20.324219 C 22.40625 21.6875 22.1875 23.050781 21.9375 24.40625 C 21.6875 25.761719 21.414062 27.113281 21.101562 28.460938 L 19.949219 27.109375 C 21.3125 27.25 22.671875 27.40625 24.035156 27.617188 C 24.714844 27.734375 25.398438 27.832031 26.078125 27.964844 C 26.757812 28.097656 27.4375 28.234375 28.117188 28.410156 Z M 28.117188 28.410156 C 27.429688 28.566406 26.75 28.683594 26.0625 28.796875 C 25.378906 28.910156 24.695312 28.988281 24.015625 29.085938 C 22.648438 29.257812 21.28125 29.378906 19.917969 29.472656 L 18.675781 29.5625 L 18.765625 28.121094 C 18.847656 26.742188 18.964844 25.367188 19.105469 23.996094 C 19.25 22.625 19.425781 21.257812 19.617188 19.894531 L 19.800781 18.578125 L 21.132812 18.601562 C 22.496094 18.621094 23.859375 18.660156 25.222656 18.734375 C 26.585938 18.808594 27.949219 18.902344 29.3125 19.035156 L 30.753906 19.179688 L 30.472656 20.398438 C 30.164062 21.746094 29.828125 23.089844 29.445312 24.425781 C 29.246094 25.09375 29.050781 25.761719 28.828125 26.425781 C 28.605469 27.089844 28.382812 27.753906 28.117188 28.410156 " fill-opacity="1" fill-rule="nonzero"/></g></g></g><g fill="#e1a3ff" fill-opacity="1"><g transform="translate(50.471048, 54.939346)"><g><path d="M 1 -6.386719 L 6.839844 -6.386719 L 6.839844 -9.796875 L 1 -9.796875 L 1 -12.527344 L 10.265625 -12.527344 L 10.265625 -3.65625 L 4.425781 -3.65625 L 4.425781 0.226562 L 10.265625 0.226562 L 10.265625 2.957031 L 1 2.957031 Z M 15.542969 -6.726562 L 17.652344 -6.726562 L 17.652344 -3.992188 L 15.542969 -3.992188 L 15.542969 2.957031 L 12.113281 2.957031 L 12.113281 -12.90625 L 15.542969 -12.90625 Z M 15.542969 -6.726562 "/></g></g></g><g fill="#e1a3ff" fill-opacity="1"><g transform="translate(68.365448, 54.939346)"><g><path d="M 1.394531 -9.4375 C 1.394531 -9.816406 1.433594 -10.210938 1.542969 -10.585938 C 1.621094 -10.964844 1.769531 -11.285156 1.976562 -11.585938 C 2.167969 -11.851562 2.410156 -12.074219 2.730469 -12.265625 C 3.03125 -12.433594 3.429688 -12.527344 3.878906 -12.527344 L 14.015625 -12.527344 C 14.46875 -12.527344 14.84375 -12.433594 15.164062 -12.265625 C 15.464844 -12.074219 15.730469 -11.851562 15.9375 -11.585938 C 16.125 -11.285156 16.257812 -10.964844 16.371094 -10.585938 C 16.445312 -10.210938 16.503906 -9.816406 16.503906 -9.4375 C 16.503906 -9.023438 16.445312 -8.648438 16.371094 -8.289062 C 16.257812 -7.914062 16.125 -7.574219 15.9375 -7.308594 C 15.730469 -7.007812 15.464844 -6.78125 15.164062 -6.613281 C 14.84375 -6.425781 14.46875 -6.347656 14.015625 -6.347656 L 10.664062 -6.347656 L 10.664062 -5.3125 L 16.691406 -5.3125 L 16.691406 -2.582031 L 1.207031 -2.582031 L 1.207031 -5.3125 L 7.234375 -5.3125 L 7.234375 -6.347656 L 3.878906 -6.347656 C 3.429688 -6.347656 3.03125 -6.425781 2.730469 -6.613281 C 2.410156 -6.78125 2.167969 -7.007812 1.976562 -7.308594 C 1.769531 -7.574219 1.621094 -7.914062 1.542969 -8.289062 C 1.433594 -8.648438 1.394531 -9.023438 1.394531 -9.4375 Z M 1.582031 -1.695312 L 5.011719 -1.695312 L 5.011719 0.320312 L 16.316406 0.320312 L 16.316406 3.050781 L 1.582031 3.050781 Z M 4.824219 -9.4375 C 4.824219 -9.230469 4.878906 -9.082031 4.992188 -8.96875 C 5.105469 -8.855469 5.21875 -8.796875 5.332031 -8.796875 L 12.566406 -8.796875 C 12.679688 -8.796875 12.792969 -8.855469 12.90625 -8.96875 C 13.019531 -9.082031 13.074219 -9.230469 13.074219 -9.4375 C 13.074219 -9.625 13.019531 -9.796875 12.90625 -9.910156 C 12.792969 -10.023438 12.679688 -10.078125 12.566406 -10.078125 L 5.332031 -10.078125 C 5.21875 -10.078125 5.105469 -10.023438 4.992188 -9.910156 C 4.878906 -9.796875 4.824219 -9.625 4.824219 -9.4375 Z M 4.824219 -9.4375 "/></g></g></g><g fill="#e1a3ff" fill-opacity="1"><g transform="translate(86.259848, 54.939346)"><g><path d="M 0.808594 -9.757812 C 0.808594 -10.191406 0.886719 -10.585938 1.054688 -10.945312 C 1.207031 -11.285156 1.414062 -11.566406 1.695312 -11.8125 C 1.960938 -12.039062 2.261719 -12.207031 2.636719 -12.339844 C 2.976562 -12.453125 3.371094 -12.527344 3.785156 -12.527344 L 7.480469 -12.527344 C 7.894531 -12.527344 8.269531 -12.453125 8.648438 -12.339844 C 8.984375 -12.207031 9.304688 -12.039062 9.589844 -11.8125 C 9.851562 -11.566406 10.058594 -11.285156 10.230469 -10.945312 C 10.378906 -10.585938 10.457031 -10.191406 10.457031 -9.757812 L 10.457031 0.1875 C 10.457031 0.621094 10.378906 1.015625 10.230469 1.375 C 10.058594 1.714844 9.851562 1.996094 9.589844 2.242188 C 9.304688 2.46875 8.984375 2.636719 8.648438 2.769531 C 8.269531 2.882812 7.894531 2.957031 7.480469 2.957031 L 3.785156 2.957031 C 3.371094 2.957031 2.976562 2.882812 2.636719 2.769531 C 2.261719 2.636719 1.960938 2.46875 1.695312 2.242188 C 1.414062 1.996094 1.207031 1.714844 1.054688 1.375 C 0.886719 1.015625 0.808594 0.621094 0.808594 0.1875 Z M 15.542969 -6.726562 L 17.652344 -6.726562 L 17.652344 -3.992188 L 15.542969 -3.992188 L 15.542969 2.957031 L 12.113281 2.957031 L 12.113281 -12.90625 L 15.542969 -12.90625 Z M 5.632812 0.226562 C 6.140625 0.226562 6.519531 0.113281 6.78125 -0.09375 C 7.027344 -0.300781 7.160156 -0.660156 7.160156 -1.167969 L 7.160156 -8.402344 C 7.160156 -8.890625 7.027344 -9.25 6.78125 -9.476562 C 6.519531 -9.683594 6.140625 -9.796875 5.632812 -9.796875 C 5.105469 -9.796875 4.730469 -9.683594 4.484375 -9.476562 C 4.21875 -9.25 4.105469 -8.890625 4.105469 -8.402344 L 4.105469 -1.167969 C 4.105469 -0.660156 4.21875 -0.300781 4.484375 -0.09375 C 4.730469 0.113281 5.105469 0.226562 5.632812 0.226562 Z M 5.632812 0.226562 "/></g></g></g><g fill="#e1a3ff" fill-opacity="1"><g transform="translate(104.154248, 54.939346)"><g><path d="M 16.203125 2.957031 L 12.773438 2.957031 L 12.773438 -12.90625 L 16.203125 -12.90625 Z M 1 -6.386719 L 7.027344 -6.386719 L 7.027344 -9.796875 L 1 -9.796875 L 1 -12.527344 L 10.457031 -12.527344 L 10.457031 -3.65625 L 4.425781 -3.65625 L 4.425781 0.226562 L 10.457031 0.226562 L 10.457031 2.957031 L 1 2.957031 Z M 1 -6.386719 "/></g></g></g><g fill="#e1a3ff" fill-opacity="1"><g transform="translate(122.048647, 54.939346)"><g><path d="M 0.808594 -9.757812 C 0.808594 -10.191406 0.886719 -10.585938 1.054688 -10.945312 C 1.207031 -11.285156 1.414062 -11.566406 1.695312 -11.8125 C 1.960938 -12.039062 2.261719 -12.207031 2.636719 -12.339844 C 2.976562 -12.453125 3.371094 -12.527344 3.785156 -12.527344 L 7.480469 -12.527344 C 7.894531 -12.527344 8.269531 -12.453125 8.648438 -12.339844 C 8.984375 -12.207031 9.304688 -12.039062 9.589844 -11.8125 C 9.851562 -11.566406 10.058594 -11.285156 10.230469 -10.945312 C 10.378906 -10.585938 10.457031 -10.191406 10.457031 -9.757812 L 10.457031 0.1875 C 10.457031 0.621094 10.378906 1.015625 10.230469 1.375 C 10.058594 1.714844 9.851562 1.996094 9.589844 2.242188 C 9.304688 2.46875 8.984375 2.636719 8.648438 2.769531 C 8.269531 2.882812 7.894531 2.957031 7.480469 2.957031 L 3.785156 2.957031 C 3.371094 2.957031 2.976562 2.882812 2.636719 2.769531 C 2.261719 2.636719 1.960938 2.46875 1.695312 2.242188 C 1.414062 1.996094 1.207031 1.714844 1.054688 1.375 C 0.886719 1.015625 0.808594 0.621094 0.808594 0.1875 Z M 15.542969 -6.726562 L 17.652344 -6.726562 L 17.652344 -3.992188 L 15.542969 -3.992188 L 15.542969 2.957031 L 12.113281 2.957031 L 12.113281 -12.90625 L 15.542969 -12.90625 Z M 5.632812 0.226562 C 6.140625 0.226562 6.519531 0.113281 6.78125 -0.09375 C 7.027344 -0.300781 7.160156 -0.660156 7.160156 -1.167969 L 7.160156 -8.402344 C 7.160156 -8.890625 7.027344 -9.25 6.78125 -9.476562 C 6.519531 -9.683594 6.140625 -9.796875 5.632812 -9.796875 C 5.105469 -9.796875 4.730469 -9.683594 4.484375 -9.476562 C 4.21875 -9.25 4.105469 -8.890625 4.105469 -8.402344 L 4.105469 -1.167969 C 4.105469 -0.660156 4.21875 -0.300781 4.484375 -0.09375 C 4.730469 0.113281 5.105469 0.226562 5.632812 0.226562 Z M 5.632812 0.226562 "/></g></g></g><g fill="#1c4b89" fill-opacity="1"><g transform="translate(92.69232, 39.167841)"><g><path d="M 4.105469 -2.71875 C 3.359375 -2.839844 2.675781 -3.148438 2.476562 -3.566406 L 3.933594 -3.566406 L 3.933594 -3.855469 L 0.636719 -3.855469 L 0.636719 -3.566406 L 2.078125 -3.566406 C 1.910156 -3.15625 1.21875 -2.839844 0.476562 -2.71875 L 0.65625 -2.464844 C 1.355469 -2.613281 2.011719 -2.890625 2.269531 -3.261719 C 2.570312 -2.886719 3.164062 -2.621094 3.914062 -2.464844 Z M 4.460938 -2.136719 L 0.113281 -2.136719 L 0.113281 -1.835938 L 4.460938 -1.835938 Z M 3.976562 0.308594 L 1.089844 0.308594 L 1.089844 -0.246094 L 3.859375 -0.246094 L 3.859375 -1.339844 L 0.714844 -1.339844 L 0.714844 -1.054688 L 3.484375 -1.054688 L 3.484375 -0.519531 L 0.714844 -0.519531 L 0.714844 0.589844 L 3.976562 0.589844 Z M 3.976562 0.308594 "/></g></g></g><g fill="#1c4b89" fill-opacity="1"><g transform="translate(97.267338, 39.167841)"><g><path d="M 3.851562 -3.886719 L 3.496094 -3.886719 L 3.496094 -2.21875 L 2.234375 -2.21875 L 2.234375 -1.914062 L 3.496094 -1.914062 L 3.496094 0.46875 L 3.851562 0.46875 Z M 0.0234375 -3.566406 L 0.0234375 -3.261719 L 1.683594 -3.261719 C 1.671875 -2.226562 1.535156 -1.230469 1.355469 -0.253906 L 1.734375 -0.253906 C 1.921875 -1.285156 2.039062 -2.355469 2.054688 -3.566406 Z M 0.0234375 -3.566406 "/></g></g></g><g fill="#1c4b89" fill-opacity="1"><g transform="translate(101.487356, 39.167841)"><g><path d="M 0.691406 -2.964844 C 0.691406 -2.429688 1.246094 -2.070312 2.273438 -2.070312 C 3.304688 -2.070312 3.875 -2.414062 3.875 -2.964844 C 3.875 -3.480469 3.285156 -3.839844 2.273438 -3.839844 C 1.238281 -3.839844 0.691406 -3.480469 0.691406 -2.964844 Z M 1.054688 -2.964844 C 1.054688 -3.339844 1.546875 -3.554688 2.273438 -3.554688 C 2.96875 -3.554688 3.5 -3.339844 3.5 -2.964844 C 3.5 -2.550781 3.003906 -2.351562 2.273438 -2.351562 C 1.570312 -2.351562 1.054688 -2.570312 1.054688 -2.964844 Z M 4.460938 -1.640625 L 0.113281 -1.640625 L 0.113281 -1.339844 L 2.136719 -1.339844 L 2.136719 -0.34375 L 2.5 -0.34375 L 2.5 -1.339844 L 4.460938 -1.339844 Z M 4.03125 0.191406 L 1.066406 0.191406 L 1.066406 -0.851562 L 0.714844 -0.851562 L 0.714844 0.488281 L 4.03125 0.488281 Z M 4.03125 0.191406 "/></g></g></g><g fill="#1c4b89" fill-opacity="1"><g transform="translate(106.062374, 39.167841)"><g/></g></g><g fill="#1c4b89" fill-opacity="1"><g transform="translate(107.562379, 39.167841)"><g><path d="M 3.878906 -2.886719 C 3.878906 -3.484375 3.328125 -3.855469 2.28125 -3.855469 C 1.253906 -3.855469 0.691406 -3.480469 0.691406 -2.886719 C 0.691406 -2.265625 1.25 -1.90625 2.28125 -1.90625 C 3.328125 -1.90625 3.878906 -2.265625 3.878906 -2.886719 Z M 2.28125 -2.191406 C 1.550781 -2.191406 1.046875 -2.429688 1.046875 -2.886719 C 1.046875 -3.320312 1.53125 -3.570312 2.28125 -3.570312 C 3.015625 -3.570312 3.519531 -3.316406 3.519531 -2.890625 C 3.519531 -2.441406 3.015625 -2.191406 2.28125 -2.191406 Z M 4.460938 -1.308594 L 0.113281 -1.308594 L 0.113281 -1.003906 L 1.308594 -1.003906 L 1.308594 0.515625 L 1.675781 0.515625 L 1.675781 -1.003906 L 2.929688 -1.003906 L 2.929688 0.566406 L 3.285156 0.566406 L 3.285156 -1.003906 L 4.460938 -1.003906 Z M 4.460938 -1.308594 "/></g></g></g><g fill="#1c4b89" fill-opacity="1"><g transform="translate(112.137397, 39.167841)"><g><path d="M 3.425781 -3.886719 L 3.425781 0.46875 L 3.773438 0.46875 L 3.773438 -3.886719 Z M 0.84375 -3.761719 L 0.84375 -3.46875 L 2.273438 -3.46875 L 2.273438 -3.761719 Z M 2.863281 -2.609375 L 2.863281 -2.898438 L 0.214844 -2.898438 L 0.214844 -2.609375 L 1.378906 -2.609375 C 1.355469 -1.785156 0.875 -0.996094 0.191406 -0.480469 L 0.433594 -0.246094 C 0.996094 -0.671875 1.386719 -1.359375 1.570312 -1.898438 C 1.761719 -1.324219 2.28125 -0.644531 2.703125 -0.390625 L 2.914062 -0.640625 C 2.195312 -1.109375 1.765625 -1.855469 1.75 -2.609375 Z M 2.863281 -2.609375 "/></g></g></g><g fill="#1c4b89" fill-opacity="1"><g transform="translate(116.327418, 39.167841)"><g><path d="M 1.769531 -3.910156 C 0.96875 -3.910156 0.566406 -3.519531 0.566406 -3.046875 C 0.566406 -2.554688 0.996094 -2.171875 1.769531 -2.171875 C 2.605469 -2.171875 3.011719 -2.554688 3.011719 -3.046875 C 3.011719 -3.519531 2.566406 -3.910156 1.769531 -3.910156 Z M 4.074219 -3.886719 L 3.726562 -3.886719 L 3.726562 -1.25 L 2.71875 -1.25 L 2.71875 -0.949219 L 3.726562 -0.949219 L 3.726562 -0.488281 L 4.074219 -0.488281 Z M 1.769531 -3.625 C 2.445312 -3.625 2.675781 -3.359375 2.675781 -3.046875 C 2.675781 -2.710938 2.433594 -2.453125 1.773438 -2.453125 C 1.089844 -2.453125 0.90625 -2.753906 0.90625 -3.046875 C 0.90625 -3.34375 1.113281 -3.625 1.769531 -3.625 Z M 0.175781 -1.554688 C 0.546875 -1.554688 1.054688 -1.566406 1.46875 -1.566406 L 1.46875 -0.699219 L 1.824219 -0.699219 L 1.824219 -1.578125 C 2.910156 -1.621094 3.234375 -1.644531 3.453125 -1.679688 L 3.453125 -1.960938 C 2.699219 -1.894531 1.261719 -1.851562 0.175781 -1.851562 Z M 4.21875 0.191406 L 1.273438 0.191406 L 1.273438 -0.734375 L 0.925781 -0.734375 L 0.925781 0.488281 L 4.21875 0.488281 Z M 4.21875 0.191406 "/></g></g></g><g fill="#1c4b89" fill-opacity="1"><g transform="translate(120.82744, 39.167841)"><g><path d="M 3.980469 -3.886719 L 3.625 -3.886719 L 3.625 0.476562 L 3.980469 0.476562 Z M 1.746094 -1.484375 C 2.40625 -1.484375 2.960938 -1.933594 2.960938 -2.570312 C 2.960938 -3.195312 2.464844 -3.683594 1.714844 -3.683594 C 1.023438 -3.683594 0.453125 -3.234375 0.453125 -2.585938 C 0.453125 -1.910156 1.019531 -1.484375 1.746094 -1.484375 Z M 2.601562 -2.578125 C 2.601562 -2.101562 2.28125 -1.785156 1.730469 -1.785156 C 1.136719 -1.785156 0.816406 -2.101562 0.816406 -2.578125 C 0.816406 -3.019531 1.105469 -3.390625 1.714844 -3.390625 C 2.296875 -3.390625 2.601562 -3.070312 2.601562 -2.578125 Z M 0.234375 -0.414062 C 1.269531 -0.414062 2.730469 -0.449219 3.398438 -0.550781 L 3.398438 -0.839844 C 2.625 -0.773438 1.308594 -0.726562 0.234375 -0.726562 Z M 0.234375 -0.414062 "/></g></g></g><g fill="#1c4b89" fill-opacity="1"><g transform="translate(125.182458, 39.167841)"><g/></g></g><g fill="#1c4b89" fill-opacity="1"><g transform="translate(126.682464, 39.167841)"><g><path d="M 0.679688 -2.605469 C 0.679688 -1.929688 1.308594 -1.453125 2.28125 -1.453125 C 3.234375 -1.453125 3.894531 -1.929688 3.894531 -2.605469 C 3.894531 -3.273438 3.234375 -3.75 2.28125 -3.75 C 1.308594 -3.75 0.679688 -3.273438 0.679688 -2.605469 Z M 1.046875 -2.605469 C 1.046875 -3.101562 1.53125 -3.460938 2.28125 -3.460938 C 3.054688 -3.460938 3.519531 -3.101562 3.519531 -2.605469 C 3.519531 -2.109375 3.054688 -1.746094 2.28125 -1.746094 C 1.53125 -1.746094 1.046875 -2.109375 1.046875 -2.605469 Z M 2.910156 -1.269531 L 2.910156 -0.308594 L 1.636719 -0.308594 L 1.636719 -1.265625 L 1.265625 -1.265625 L 1.265625 -0.308594 L 0.113281 -0.308594 L 0.113281 -0.0117188 L 4.460938 -0.0117188 L 4.460938 -0.308594 L 3.261719 -0.308594 L 3.261719 -1.269531 Z M 2.910156 -1.269531 "/></g></g></g><g fill="#1c4b89" fill-opacity="1"><g transform="translate(131.257482, 39.167841)"><g><path d="M 3.886719 -3.886719 L 3.539062 -3.886719 L 3.539062 -2.800781 L 2.480469 -2.800781 L 2.480469 -2.5 L 3.539062 -2.5 L 3.539062 -1.226562 L 3.886719 -1.226562 Z M 2.886719 -1.765625 C 2.308594 -1.980469 1.691406 -2.433594 1.691406 -3.136719 L 1.691406 -3.375 L 2.679688 -3.375 L 2.679688 -3.671875 L 0.320312 -3.671875 L 0.320312 -3.375 L 1.308594 -3.375 L 1.308594 -3.128906 C 1.308594 -2.40625 0.691406 -1.808594 0.078125 -1.535156 L 0.300781 -1.28125 C 0.75 -1.503906 1.28125 -1.996094 1.503906 -2.519531 C 1.730469 -2.078125 2.300781 -1.648438 2.71875 -1.496094 Z M 3.960938 -0.195312 C 3.960938 -0.734375 3.335938 -1.054688 2.398438 -1.054688 C 1.453125 -1.054688 0.785156 -0.738281 0.785156 -0.195312 C 0.785156 0.335938 1.453125 0.644531 2.398438 0.644531 C 3.335938 0.644531 3.960938 0.335938 3.960938 -0.195312 Z M 3.589844 -0.191406 C 3.589844 0.171875 3.039062 0.359375 2.398438 0.359375 C 1.730469 0.359375 1.164062 0.179688 1.164062 -0.191406 C 1.164062 -0.601562 1.738281 -0.769531 2.398438 -0.769531 C 3.039062 -0.769531 3.589844 -0.589844 3.589844 -0.191406 Z M 3.589844 -0.191406 "/></g></g></g><g fill="#1c4b89" fill-opacity="1"><g transform="translate(135.537504, 39.167841)"><g><path d="M 3.921875 -2.464844 L 3.921875 -2.761719 L 1.078125 -2.761719 L 1.078125 -3.550781 L 3.863281 -3.550781 L 3.863281 -3.84375 L 0.730469 -3.84375 L 0.730469 -2.464844 Z M 0.113281 -1.988281 L 0.113281 -1.695312 L 4.460938 -1.695312 L 4.460938 -1.988281 Z M 3.976562 0.308594 L 1.078125 0.308594 L 1.078125 -0.203125 L 3.859375 -0.203125 L 3.859375 -1.261719 L 0.714844 -1.261719 L 0.714844 -0.980469 L 3.488281 -0.980469 L 3.488281 -0.480469 L 0.714844 -0.480469 L 0.714844 0.589844 L 3.976562 0.589844 Z M 3.976562 0.308594 "/></g></g></g></svg>