<svg xmlns="http://www.w3.org/2000/svg" xmlns:xlink="http://www.w3.org/1999/xlink" width="500" zoomAndPan="magnify" viewBox="0 0 375 374.999991" height="500" preserveAspectRatio="xMidYMid meet" version="1.0"><defs><filter x="0%" y="0%" width="100%" height="100%" id="0b256fabd4"><feColorMatrix values="0 0 0 0 1 0 0 0 0 1 0 0 0 0 1 0 0 0 1 0" color-interpolation-filters="sRGB"/></filter><g/><mask id="d5a90556fc"><g filter="url(#0b256fabd4)"><rect x="-37.5" width="450" fill="#000000" y="-37.499999" height="449.999989" fill-opacity="0.23"/></g></mask><clipPath id="1e3ab8e7d4"><path d="M 3 2 L 94.761719 2 L 94.761719 94 L 3 94 Z M 3 2 " clip-rule="nonzero"/></clipPath><clipPath id="599b27fbdd"><path d="M 0.199219 1 L 94.761719 1 L 94.761719 96 L 0.199219 96 Z M 0.199219 1 " clip-rule="nonzero"/></clipPath><clipPath id="7e6e0e75d6"><rect x="0" width="95" y="0" height="97"/></clipPath></defs><g mask="url(#d5a90556fc)"><g transform="matrix(1, 0, 0, 1, 109, 139)"><g clip-path="url(#7e6e0e75d6)"><g clip-path="url(#1e3ab8e7d4)"><path fill="#8b73ff" d="M 55.78125 56.320312 L 39.417969 56.085938 L 41.777344 39.71875 L 58.136719 39.957031 Z M 90.765625 40.425781 C 92.566406 40.425781 94.03125 38.960938 94.03125 37.160156 L 94.03125 27.132812 C 94.03125 25.328125 92.566406 23.863281 90.765625 23.863281 L 77.050781 23.664062 L 79.589844 6.035156 C 79.589844 4.226562 78.121094 2.765625 76.316406 2.765625 L 66.292969 2.765625 C 64.488281 2.765625 63.023438 4.226562 63.023438 6.035156 L 60.519531 23.425781 L 44.15625 23.191406 L 46.625 6.035156 C 46.625 4.226562 45.160156 2.765625 43.355469 2.765625 L 33.332031 2.765625 C 31.523438 2.765625 30.058594 4.226562 30.058594 6.035156 L 27.625 22.953125 L 6.792969 22.652344 C 4.984375 22.652344 3.523438 24.117188 3.523438 25.921875 L 3.523438 35.949219 C 3.523438 37.75 4.984375 39.21875 6.792969 39.21875 L 25.246094 39.484375 L 22.886719 55.84375 L 6.792969 55.617188 C 4.984375 55.617188 3.523438 57.078125 3.523438 58.886719 L 3.523438 68.90625 C 3.523438 70.714844 4.984375 72.183594 6.792969 72.183594 L 20.507812 72.375 L 17.96875 90.007812 C 17.96875 91.8125 19.433594 93.277344 21.238281 93.277344 L 31.261719 93.277344 C 33.070312 93.277344 34.53125 91.8125 34.53125 90.007812 L 37.039062 72.617188 L 53.398438 72.847656 L 50.929688 90.007812 C 50.929688 91.8125 52.394531 93.277344 54.199219 93.277344 L 64.226562 93.277344 C 66.027344 93.277344 67.496094 91.8125 67.496094 90.007812 L 69.929688 73.089844 L 90.765625 73.386719 C 92.566406 73.386719 94.03125 71.925781 94.03125 70.117188 L 94.03125 60.09375 C 94.03125 58.289062 92.566406 56.824219 90.765625 56.824219 L 72.3125 56.558594 L 74.667969 40.195312 L 90.765625 40.425781 " fill-opacity="1" fill-rule="nonzero"/></g><path fill="#8b73ff" d="M 68.453125 5.84375 C 72.453125 8.539062 74.621094 12.4375 74.429688 17.363281 C 74.355469 19.296875 74.230469 21.230469 74.082031 23.164062 C 73.941406 24.050781 73.835938 24.933594 73.75 25.828125 C 79.261719 27.964844 86.003906 27.800781 92.433594 27.417969 C 91.90625 26.316406 90.792969 25.554688 89.492188 25.554688 L 75.78125 25.359375 L 78.320312 7.726562 C 78.320312 5.921875 76.855469 4.457031 75.050781 4.457031 L 65.023438 4.457031 C 65.019531 4.457031 65.015625 4.457031 65.011719 4.457031 C 66.128906 4.621094 67.285156 5.054688 68.453125 5.84375 " fill-opacity="1" fill-rule="nonzero"/><g clip-path="url(#599b27fbdd)"><path fill="#8b73ff" d="M 90.765625 40.425781 L 74.667969 40.253906 L 74.726562 40.203125 L 72.429688 56.574219 L 72.316406 56.441406 L 87.210938 56.515625 L 90.941406 56.535156 C 92.308594 56.570312 93.597656 57.476562 94.109375 58.753906 C 94.242188 59.066406 94.316406 59.402344 94.363281 59.765625 C 94.386719 60.066406 94.386719 60.417969 94.386719 60.710938 L 94.410156 62.570312 L 94.449219 66.296875 L 94.492188 70.023438 C 94.546875 71.414062 93.730469 72.855469 92.445312 73.496094 C 91.816406 73.847656 91.035156 73.953125 90.402344 73.929688 L 88.542969 73.929688 L 84.8125 73.945312 L 69.917969 73.996094 L 70.828125 73.214844 L 68.695312 90.179688 L 68.707031 90.007812 C 68.726562 91.164062 68.265625 92.335938 67.453125 93.175781 C 66.671875 94.027344 65.449219 94.550781 64.351562 94.574219 L 59.214844 94.671875 L 54.113281 94.757812 C 52.882812 94.757812 51.648438 94.246094 50.777344 93.371094 C 49.894531 92.5 49.367188 91.257812 49.355469 90.007812 L 49.355469 89.914062 L 49.371094 89.78125 L 51.535156 72.582031 L 53.375 74.730469 L 37.007812 74.789062 L 39.191406 72.925781 L 36.992188 90.359375 L 37.019531 90.007812 C 37.042969 91.488281 36.445312 93 35.40625 94.070312 C 34.882812 94.609375 34.257812 95.050781 33.566406 95.355469 C 33.21875 95.503906 32.859375 95.625 32.492188 95.703125 C 32.292969 95.75 32.042969 95.785156 31.820312 95.8125 L 31.453125 95.839844 L 26.25 95.898438 L 21.128906 95.949219 C 19.59375 95.941406 18.050781 95.289062 16.976562 94.1875 C 15.886719 93.105469 15.238281 91.550781 15.238281 90.007812 L 15.238281 89.828125 L 15.265625 89.621094 L 17.636719 71.964844 L 20.464844 75.277344 L 7.941406 75.140625 L 7.15625 75.136719 L 6.761719 75.132812 C 6.628906 75.125 6.300781 75.117188 6.082031 75.09375 C 5.09375 74.980469 4.128906 74.621094 3.300781 74.070312 C 2.480469 73.511719 1.796875 72.761719 1.3125 71.886719 C 1.082031 71.449219 0.886719 70.984375 0.761719 70.5 C 0.699219 70.28125 0.640625 69.992188 0.605469 69.671875 C 0.554688 69.28125 0.570312 69.285156 0.558594 69.121094 L 0.527344 62.707031 L 0.515625 59.574219 L 0.519531 58.710938 C 0.535156 58.207031 0.601562 57.710938 0.738281 57.222656 C 0.996094 56.25 1.503906 55.351562 2.183594 54.617188 C 2.855469 53.875 3.71875 53.308594 4.664062 52.964844 C 4.902344 52.875 5.144531 52.8125 5.390625 52.75 C 5.625 52.691406 5.984375 52.644531 6.28125 52.617188 L 6.492188 52.601562 L 6.882812 52.597656 L 7.273438 52.601562 L 10.402344 52.660156 L 22.929688 52.886719 L 19.957031 55.425781 L 22.371094 39.070312 L 25.203125 42.382812 L 10.3125 42.03125 L 6.488281 41.929688 C 4.199219 41.824219 2.078125 40.285156 1.269531 38.160156 C 1.058594 37.644531 0.925781 37.085938 0.867188 36.394531 L 0.859375 36.164062 L 0.851562 35.796875 L 0.859375 35.332031 L 0.917969 29.742188 L 0.957031 26.019531 C 0.9375 25.074219 1.222656 23.835938 1.8125 22.9375 C 2.386719 21.992188 3.230469 21.230469 4.21875 20.753906 C 4.726562 20.503906 5.210938 20.351562 5.8125 20.25 L 6.308594 20.191406 L 6.554688 20.179688 L 6.832031 20.171875 L 6.949219 20.175781 L 7.179688 20.183594 L 9.042969 20.242188 L 12.761719 20.363281 L 27.65625 20.84375 L 25.535156 22.648438 L 28.269531 5.777344 L 28.25 6.035156 C 28.261719 4.722656 28.816406 3.417969 29.738281 2.507812 C 30.632812 1.589844 32.003906 1.046875 33.183594 1.050781 L 38.34375 1.136719 L 43.445312 1.230469 C 44.6875 1.257812 45.910156 1.804688 46.753906 2.699219 C 47.609375 3.582031 48.097656 4.816406 48.074219 6.035156 L 48.074219 6.164062 L 48.0625 6.242188 L 45.285156 23.355469 L 44.171875 22.050781 L 60.53125 22.574219 L 59.675781 23.304688 L 62.488281 5.957031 L 62.480469 6.035156 C 62.492188 5.046875 62.910156 4.078125 63.605469 3.394531 C 64.289062 2.710938 65.273438 2.308594 66.207031 2.308594 L 71.304688 2.359375 L 76.386719 2.414062 C 78.296875 2.417969 79.949219 4.15625 79.886719 6.035156 L 79.886719 6.078125 L 77.167969 23.683594 L 77.054688 23.542969 L 85.550781 23.695312 L 89.800781 23.769531 C 90.496094 23.800781 91.242188 23.722656 91.925781 24.003906 C 92.605469 24.253906 93.191406 24.742188 93.578125 25.351562 C 93.976562 25.953125 94.117188 26.707031 94.085938 27.410156 L 94.0625 33.785156 L 94.058594 35.914062 C 94.027344 36.617188 94.128906 37.339844 93.925781 38.03125 C 93.566406 39.425781 92.191406 40.449219 90.765625 40.425781 Z M 90.765625 40.425781 C 92.195312 40.4375 93.546875 39.40625 93.898438 38.023438 C 94.09375 37.339844 93.984375 36.617188 94.011719 35.914062 L 94.003906 33.785156 L 93.984375 29.535156 L 93.980469 27.410156 C 94.003906 26.707031 93.859375 26.003906 93.472656 25.414062 C 93.097656 24.832031 92.53125 24.371094 91.875 24.132812 C 91.226562 23.871094 90.507812 23.949219 89.796875 23.925781 L 85.550781 23.878906 L 77.046875 23.789062 L 76.910156 23.789062 L 76.925781 23.648438 L 79.292969 5.992188 L 79.289062 6.035156 C 79.308594 4.46875 77.910156 3.085938 76.371094 3.121094 L 71.304688 3.171875 L 66.253906 3.226562 C 64.738281 3.226562 63.503906 4.601562 63.5625 6.035156 L 63.566406 6.058594 L 63.558594 6.109375 L 61.363281 23.546875 L 61.269531 24.273438 L 60.503906 24.277344 L 44.136719 24.335938 L 42.859375 24.339844 L 43.023438 23.027344 L 45.191406 5.828125 L 45.175781 6.035156 C 45.167969 5.078125 44.296875 4.261719 43.386719 4.304688 L 38.34375 4.394531 L 33.359375 4.484375 C 32.425781 4.507812 31.839844 5.269531 31.871094 6.035156 L 31.875 6.121094 L 31.851562 6.292969 L 29.71875 23.253906 L 29.488281 25.058594 L 27.59375 25.0625 L 12.695312 25.113281 L 8.972656 25.125 L 7.109375 25.132812 L 6.761719 25.132812 C 6.71875 25.132812 7.058594 25.128906 6.910156 25.132812 L 6.863281 25.132812 L 6.804688 25.140625 L 6.585938 25.152344 C 6.59375 25.164062 6.609375 25.164062 6.621094 25.164062 C 6.613281 25.175781 6.5 25.199219 6.457031 25.242188 C 6.332031 25.3125 6.226562 25.425781 6.167969 25.550781 C 6.136719 25.613281 6.113281 25.675781 6.101562 25.742188 C 6.082031 25.835938 6.089844 25.800781 6.085938 26.019531 L 6.125 29.742188 L 6.183594 35.332031 L 6.1875 35.796875 L 6.191406 35.914062 L 6.191406 35.941406 C 6.191406 35.972656 6.183594 35.695312 6.1875 35.820312 L 6.1875 35.835938 L 6.191406 35.890625 L 6.207031 36.125 C 6.234375 36.15625 6.195312 36.023438 6.21875 36.085938 C 6.226562 36.113281 6.238281 36.140625 6.246094 36.164062 C 6.34375 36.363281 6.558594 36.503906 6.761719 36.488281 L 10.390625 36.507812 L 25.285156 36.578125 L 28.578125 36.597656 L 28.117188 39.894531 L 25.820312 56.269531 L 25.460938 58.835938 L 22.84375 58.808594 L 10.320312 58.675781 L 7.1875 58.640625 L 6.796875 58.636719 L 6.757812 58.636719 C 6.84375 58.632812 6.554688 58.640625 6.941406 58.632812 L 6.894531 58.632812 L 6.796875 58.640625 L 6.613281 58.648438 C 6.652344 58.667969 6.75 58.640625 6.734375 58.644531 C 6.726562 58.652344 6.714844 58.644531 6.707031 58.65625 C 6.675781 58.664062 6.636719 58.679688 6.609375 58.714844 C 6.578125 58.746094 6.550781 58.777344 6.542969 58.816406 C 6.535156 58.832031 6.535156 58.855469 6.535156 58.878906 L 6.527344 59.574219 L 6.515625 62.707031 L 6.492188 68.820312 C 6.496094 68.914062 6.507812 69.179688 6.511719 69.050781 C 6.507812 68.984375 6.492188 68.957031 6.503906 68.984375 C 6.5 69.011719 6.519531 69.027344 6.523438 69.050781 C 6.546875 69.09375 6.582031 69.132812 6.621094 69.167969 C 6.664062 69.195312 6.703125 69.210938 6.753906 69.222656 L 6.847656 69.230469 L 8.023438 69.246094 L 20.546875 69.472656 L 23.882812 69.535156 L 23.378906 72.792969 L 20.667969 90.394531 L 20.695312 90.007812 C 20.667969 90.285156 20.914062 90.589844 21.226562 90.597656 L 26.25 90.65625 L 31.191406 90.710938 C 31.277344 90.703125 31.457031 90.703125 31.460938 90.695312 C 31.441406 90.6875 31.40625 90.699219 31.414062 90.699219 C 31.457031 90.691406 31.5 90.679688 31.546875 90.664062 C 31.628906 90.632812 31.714844 90.585938 31.789062 90.523438 C 31.9375 90.386719 32.023438 90.21875 32.042969 90.007812 L 32.082031 89.585938 L 32.070312 89.652344 L 34.886719 72.304688 L 35.195312 70.378906 L 37.070312 70.4375 L 53.425781 70.96875 L 55.601562 71.035156 L 55.265625 73.121094 L 52.488281 90.230469 L 52.503906 90.007812 C 52.445312 90.894531 53.222656 91.769531 54.164062 91.789062 L 59.214844 91.882812 L 64.21875 91.972656 C 65.335938 92.015625 66.257812 91.09375 66.28125 90.007812 L 66.285156 89.894531 L 66.292969 89.835938 L 69.03125 72.957031 L 69.164062 72.15625 L 69.945312 72.183594 L 84.835938 72.660156 L 88.558594 72.78125 L 90.417969 72.839844 C 91.019531 72.875 91.511719 72.820312 91.988281 72.585938 C 92.953125 72.144531 93.605469 71.125 93.578125 70.023438 L 93.621094 66.296875 L 93.65625 62.570312 L 93.675781 60.710938 C 93.679688 60.386719 93.691406 60.113281 93.671875 59.796875 C 93.640625 59.539062 93.589844 59.261719 93.484375 59.003906 C 93.09375 57.957031 92.050781 57.183594 90.914062 57.128906 L 87.203125 57.03125 L 72.308594 56.675781 L 72.175781 56.671875 L 72.195312 56.539062 L 74.613281 40.183594 L 74.617188 40.136719 L 74.671875 40.136719 L 90.765625 40.425781 " fill-opacity="1" fill-rule="nonzero"/></g><path fill="#8b73ff" d="M 55.78125 56.320312 C 55.644531 54.910156 55.582031 53.507812 55.539062 52.109375 C 55.480469 50.707031 55.480469 49.320312 55.484375 47.925781 C 55.5 45.144531 55.613281 42.375 55.777344 39.617188 L 58.101562 42.339844 C 55.371094 42.53125 52.644531 42.632812 49.914062 42.707031 C 47.1875 42.773438 44.457031 42.773438 41.730469 42.742188 L 44.765625 40.148438 C 44.359375 42.875 43.925781 45.601562 43.425781 48.308594 C 42.925781 51.023438 42.375 53.722656 41.753906 56.417969 L 39.449219 53.722656 C 42.175781 53.996094 44.898438 54.3125 47.621094 54.734375 C 48.984375 54.964844 50.34375 55.160156 51.703125 55.433594 C 53.0625 55.691406 54.421875 55.96875 55.78125 56.320312 Z M 55.78125 56.320312 C 54.410156 56.636719 53.046875 56.867188 51.679688 57.089844 C 50.308594 57.324219 48.945312 57.472656 47.578125 57.671875 C 44.84375 58.015625 42.113281 58.253906 39.382812 58.449219 L 36.902344 58.621094 L 37.078125 55.746094 C 37.246094 52.988281 37.480469 50.234375 37.765625 47.496094 C 38.050781 44.753906 38.402344 42.019531 38.785156 39.289062 L 39.152344 36.652344 L 41.816406 36.699219 C 44.542969 36.746094 47.273438 36.824219 49.996094 36.96875 C 52.722656 37.121094 55.449219 37.304688 58.171875 37.570312 L 61.058594 37.859375 L 60.496094 40.296875 C 59.878906 42.988281 59.207031 45.679688 58.4375 48.351562 C 58.046875 49.683594 57.648438 51.023438 57.207031 52.347656 C 56.765625 53.679688 56.3125 55.003906 55.78125 56.320312 " fill-opacity="1" fill-rule="nonzero"/></g></g></g><g fill="#e1a3ff" fill-opacity="1"><g transform="translate(161.687293, 169.429179)"><g><path d="M 2.320312 -14.851562 L 15.902344 -14.851562 L 15.902344 -22.78125 L 2.320312 -22.78125 L 2.320312 -29.132812 L 23.875 -29.132812 L 23.875 -8.5 L 10.292969 -8.5 L 10.292969 0.527344 L 23.875 0.527344 L 23.875 6.878906 L 2.320312 6.878906 Z M 36.140625 -15.640625 L 41.046875 -15.640625 L 41.046875 -9.289062 L 36.140625 -9.289062 L 36.140625 6.878906 L 28.167969 6.878906 L 28.167969 -30.007812 L 36.140625 -30.007812 Z M 36.140625 -15.640625 "/></g></g></g><g fill="#e1a3ff" fill-opacity="1"><g transform="translate(203.301819, 169.429179)"><g><path d="M 3.242188 -21.949219 C 3.242188 -22.824219 3.328125 -23.742188 3.59375 -24.621094 C 3.765625 -25.496094 4.117188 -26.242188 4.601562 -26.941406 C 5.039062 -27.554688 5.605469 -28.082031 6.351562 -28.519531 C 7.054688 -28.914062 7.972656 -29.132812 9.023438 -29.132812 L 32.59375 -29.132812 C 33.644531 -29.132812 34.519531 -28.914062 35.265625 -28.519531 C 35.964844 -28.082031 36.578125 -27.554688 37.0625 -26.941406 C 37.5 -26.242188 37.804688 -25.496094 38.070312 -24.621094 C 38.242188 -23.742188 38.375 -22.824219 38.375 -21.949219 C 38.375 -20.984375 38.242188 -20.109375 38.070312 -19.273438 C 37.804688 -18.398438 37.5 -17.609375 37.0625 -16.996094 C 36.578125 -16.296875 35.964844 -15.769531 35.265625 -15.375 C 34.519531 -14.9375 33.644531 -14.761719 32.59375 -14.761719 L 24.796875 -14.761719 L 24.796875 -12.355469 L 38.8125 -12.355469 L 38.8125 -6 L 2.804688 -6 L 2.804688 -12.355469 L 16.820312 -12.355469 L 16.820312 -14.761719 L 9.023438 -14.761719 C 7.972656 -14.761719 7.054688 -14.9375 6.351562 -15.375 C 5.605469 -15.769531 5.039062 -16.296875 4.601562 -16.996094 C 4.117188 -17.609375 3.765625 -18.398438 3.59375 -19.273438 C 3.328125 -20.109375 3.242188 -20.984375 3.242188 -21.949219 Z M 3.679688 -3.941406 L 11.652344 -3.941406 L 11.652344 0.746094 L 37.9375 0.746094 L 37.9375 7.097656 L 3.679688 7.097656 Z M 11.214844 -21.949219 C 11.214844 -21.464844 11.347656 -21.113281 11.609375 -20.851562 C 11.871094 -20.589844 12.132812 -20.457031 12.398438 -20.457031 L 29.21875 -20.457031 C 29.484375 -20.457031 29.746094 -20.589844 30.007812 -20.851562 C 30.269531 -21.113281 30.402344 -21.464844 30.402344 -21.949219 C 30.402344 -22.386719 30.269531 -22.78125 30.007812 -23.042969 C 29.746094 -23.304688 29.484375 -23.4375 29.21875 -23.4375 L 12.398438 -23.4375 C 12.132812 -23.4375 11.871094 -23.304688 11.609375 -23.042969 C 11.347656 -22.78125 11.214844 -22.386719 11.214844 -21.949219 Z M 11.214844 -21.949219 "/></g></g></g><g fill="#e1a3ff" fill-opacity="1"><g transform="translate(161.687293, 214.429176)"><g><path d="M 1.882812 -22.691406 C 1.882812 -23.699219 2.058594 -24.621094 2.453125 -25.453125 C 2.804688 -26.242188 3.285156 -26.898438 3.941406 -27.46875 C 4.554688 -27.992188 5.257812 -28.386719 6.132812 -28.695312 C 6.921875 -28.957031 7.839844 -29.132812 8.804688 -29.132812 L 17.390625 -29.132812 C 18.355469 -29.132812 19.230469 -28.957031 20.109375 -28.695312 C 20.894531 -28.386719 21.640625 -27.992188 22.296875 -27.46875 C 22.910156 -26.898438 23.394531 -26.242188 23.789062 -25.453125 C 24.136719 -24.621094 24.3125 -23.699219 24.3125 -22.691406 L 24.3125 0.4375 C 24.3125 1.445312 24.136719 2.367188 23.789062 3.199219 C 23.394531 3.988281 22.910156 4.644531 22.296875 5.214844 C 21.640625 5.738281 20.894531 6.132812 20.109375 6.441406 C 19.230469 6.703125 18.355469 6.878906 17.390625 6.878906 L 8.804688 6.878906 C 7.839844 6.878906 6.921875 6.703125 6.132812 6.441406 C 5.257812 6.132812 4.554688 5.738281 3.941406 5.214844 C 3.285156 4.644531 2.804688 3.988281 2.453125 3.199219 C 2.058594 2.367188 1.882812 1.445312 1.882812 0.4375 Z M 36.140625 -15.640625 L 41.046875 -15.640625 L 41.046875 -9.289062 L 36.140625 -9.289062 L 36.140625 6.878906 L 28.167969 6.878906 L 28.167969 -30.007812 L 36.140625 -30.007812 Z M 13.097656 0.527344 C 14.28125 0.527344 15.15625 0.261719 15.769531 -0.21875 C 16.339844 -0.699219 16.648438 -1.535156 16.648438 -2.714844 L 16.648438 -19.539062 C 16.648438 -20.675781 16.339844 -21.507812 15.769531 -22.035156 C 15.15625 -22.515625 14.28125 -22.78125 13.097656 -22.78125 C 11.871094 -22.78125 10.996094 -22.515625 10.425781 -22.035156 C 9.8125 -21.507812 9.550781 -20.675781 9.550781 -19.539062 L 9.550781 -2.714844 C 9.550781 -1.535156 9.8125 -0.699219 10.425781 -0.21875 C 10.996094 0.261719 11.871094 0.527344 13.097656 0.527344 Z M 13.097656 0.527344 "/></g></g></g><g fill="#e1a3ff" fill-opacity="1"><g transform="translate(203.301819, 214.429176)"><g><path d="M 37.675781 6.878906 L 29.703125 6.878906 L 29.703125 -30.007812 L 37.675781 -30.007812 Z M 2.320312 -14.851562 L 16.339844 -14.851562 L 16.339844 -22.78125 L 2.320312 -22.78125 L 2.320312 -29.132812 L 24.3125 -29.132812 L 24.3125 -8.5 L 10.292969 -8.5 L 10.292969 0.527344 L 24.3125 0.527344 L 24.3125 6.878906 L 2.320312 6.878906 Z M 2.320312 -14.851562 "/></g></g></g><g fill="#e1a3ff" fill-opacity="1"><g transform="translate(244.916345, 214.429176)"><g><path d="M 1.882812 -22.691406 C 1.882812 -23.699219 2.058594 -24.621094 2.453125 -25.453125 C 2.804688 -26.242188 3.285156 -26.898438 3.941406 -27.46875 C 4.554688 -27.992188 5.257812 -28.386719 6.132812 -28.695312 C 6.921875 -28.957031 7.839844 -29.132812 8.804688 -29.132812 L 17.390625 -29.132812 C 18.355469 -29.132812 19.230469 -28.957031 20.109375 -28.695312 C 20.894531 -28.386719 21.640625 -27.992188 22.296875 -27.46875 C 22.910156 -26.898438 23.394531 -26.242188 23.789062 -25.453125 C 24.136719 -24.621094 24.3125 -23.699219 24.3125 -22.691406 L 24.3125 0.4375 C 24.3125 1.445312 24.136719 2.367188 23.789062 3.199219 C 23.394531 3.988281 22.910156 4.644531 22.296875 5.214844 C 21.640625 5.738281 20.894531 6.132812 20.109375 6.441406 C 19.230469 6.703125 18.355469 6.878906 17.390625 6.878906 L 8.804688 6.878906 C 7.839844 6.878906 6.921875 6.703125 6.132812 6.441406 C 5.257812 6.132812 4.554688 5.738281 3.941406 5.214844 C 3.285156 4.644531 2.804688 3.988281 2.453125 3.199219 C 2.058594 2.367188 1.882812 1.445312 1.882812 0.4375 Z M 36.140625 -15.640625 L 41.046875 -15.640625 L 41.046875 -9.289062 L 36.140625 -9.289062 L 36.140625 6.878906 L 28.167969 6.878906 L 28.167969 -30.007812 L 36.140625 -30.007812 Z M 13.097656 0.527344 C 14.28125 0.527344 15.15625 0.261719 15.769531 -0.21875 C 16.339844 -0.699219 16.648438 -1.535156 16.648438 -2.714844 L 16.648438 -19.539062 C 16.648438 -20.675781 16.339844 -21.507812 15.769531 -22.035156 C 15.15625 -22.515625 14.28125 -22.78125 13.097656 -22.78125 C 11.871094 -22.78125 10.996094 -22.515625 10.425781 -22.035156 C 9.8125 -21.507812 9.550781 -20.675781 9.550781 -19.539062 L 9.550781 -2.714844 C 9.550781 -1.535156 9.8125 -0.699219 10.425781 -0.21875 C 10.996094 0.261719 11.871094 0.527344 13.097656 0.527344 Z M 13.097656 0.527344 "/></g></g></g><g fill="#1c4b89" fill-opacity="1"><g transform="translate(166.160384, 243.26036)"><g><path d="M 9.484375 -6.28125 C 7.761719 -6.558594 6.179688 -7.277344 5.71875 -8.234375 L 9.089844 -8.234375 L 9.089844 -8.90625 L 1.46875 -8.90625 L 1.46875 -8.234375 L 4.804688 -8.234375 C 4.410156 -7.289062 2.816406 -6.558594 1.097656 -6.28125 L 1.511719 -5.695312 C 3.128906 -6.039062 4.644531 -6.675781 5.242188 -7.53125 C 5.9375 -6.664062 7.3125 -6.050781 9.042969 -5.695312 Z M 10.300781 -4.933594 L 0.265625 -4.933594 L 0.265625 -4.238281 L 10.300781 -4.238281 Z M 9.183594 0.714844 L 2.519531 0.714844 L 2.519531 -0.566406 L 8.917969 -0.566406 L 8.917969 -3.09375 L 1.652344 -3.09375 L 1.652344 -2.4375 L 8.050781 -2.4375 L 8.050781 -1.203125 L 1.652344 -1.203125 L 1.652344 1.363281 L 9.183594 1.363281 Z M 9.183594 0.714844 "/></g></g></g><g fill="#1c4b89" fill-opacity="1"><g transform="translate(176.722204, 243.26036)"><g><path d="M 8.894531 -8.972656 L 8.074219 -8.972656 L 8.074219 -5.128906 L 5.164062 -5.128906 L 5.164062 -4.421875 L 8.074219 -4.421875 L 8.074219 1.085938 L 8.894531 1.085938 Z M 0.0585938 -8.234375 L 0.0585938 -7.53125 L 3.890625 -7.53125 C 3.859375 -5.140625 3.546875 -2.839844 3.128906 -0.589844 L 4.007812 -0.589844 C 4.433594 -2.96875 4.710938 -5.441406 4.746094 -8.234375 Z M 0.0585938 -8.234375 "/></g></g></g><g fill="#1c4b89" fill-opacity="1"><g transform="translate(186.464479, 243.26036)"><g><path d="M 1.59375 -6.847656 C 1.59375 -5.613281 2.875 -4.78125 5.253906 -4.78125 C 7.632812 -4.78125 8.953125 -5.578125 8.953125 -6.847656 C 8.953125 -8.039062 7.589844 -8.871094 5.253906 -8.871094 C 2.863281 -8.871094 1.59375 -8.039062 1.59375 -6.847656 Z M 2.4375 -6.847656 C 2.4375 -7.714844 3.570312 -8.210938 5.253906 -8.210938 C 6.859375 -8.210938 8.085938 -7.714844 8.085938 -6.847656 C 8.085938 -5.890625 6.941406 -5.429688 5.253906 -5.429688 C 3.625 -5.429688 2.4375 -5.9375 2.4375 -6.847656 Z M 10.300781 -3.789062 L 0.265625 -3.789062 L 0.265625 -3.09375 L 4.933594 -3.09375 L 4.933594 -0.796875 L 5.773438 -0.796875 L 5.773438 -3.09375 L 10.300781 -3.09375 Z M 9.308594 0.4375 L 2.460938 0.4375 L 2.460938 -1.964844 L 1.652344 -1.964844 L 1.652344 1.132812 L 9.308594 1.132812 Z M 9.308594 0.4375 "/></g></g></g><g fill="#1c4b89" fill-opacity="1"><g transform="translate(197.026299, 243.26036)"><g/></g></g><g fill="#1c4b89" fill-opacity="1"><g transform="translate(200.48919, 243.26036)"><g><path d="M 8.960938 -6.664062 C 8.960938 -8.050781 7.691406 -8.90625 5.265625 -8.90625 C 2.898438 -8.90625 1.59375 -8.039062 1.59375 -6.664062 C 1.59375 -5.230469 2.886719 -4.402344 5.265625 -4.402344 C 7.691406 -4.402344 8.960938 -5.230469 8.960938 -6.664062 Z M 5.265625 -5.058594 C 3.582031 -5.058594 2.414062 -5.613281 2.414062 -6.664062 C 2.414062 -7.667969 3.535156 -8.246094 5.265625 -8.246094 C 6.964844 -8.246094 8.132812 -7.65625 8.132812 -6.675781 C 8.132812 -5.636719 6.964844 -5.058594 5.265625 -5.058594 Z M 10.300781 -3.027344 L 0.265625 -3.027344 L 0.265625 -2.320312 L 3.027344 -2.320312 L 3.027344 1.191406 L 3.871094 1.191406 L 3.871094 -2.320312 L 6.769531 -2.320312 L 6.769531 1.304688 L 7.589844 1.304688 L 7.589844 -2.320312 L 10.300781 -2.320312 Z M 10.300781 -3.027344 "/></g></g></g><g fill="#1c4b89" fill-opacity="1"><g transform="translate(211.05101, 243.26036)"><g><path d="M 7.910156 -8.972656 L 7.910156 1.085938 L 8.71875 1.085938 L 8.71875 -8.972656 Z M 1.953125 -8.6875 L 1.953125 -8.015625 L 5.253906 -8.015625 L 5.253906 -8.6875 Z M 6.617188 -6.027344 L 6.617188 -6.699219 L 0.496094 -6.699219 L 0.496094 -6.027344 L 3.1875 -6.027344 C 3.128906 -4.125 2.019531 -2.296875 0.4375 -1.109375 L 1.003906 -0.566406 C 2.296875 -1.546875 3.199219 -3.140625 3.625 -4.390625 C 4.066406 -3.0625 5.265625 -1.488281 6.25 -0.902344 L 6.734375 -1.476562 C 5.070312 -2.5625 4.078125 -4.285156 4.042969 -6.027344 Z M 6.617188 -6.027344 "/></g></g></g><g fill="#1c4b89" fill-opacity="1"><g transform="translate(220.724025, 243.26036)"><g><path d="M 4.089844 -9.03125 C 2.242188 -9.03125 1.304688 -8.132812 1.304688 -7.035156 C 1.304688 -5.902344 2.296875 -5.011719 4.089844 -5.011719 C 6.015625 -5.011719 6.953125 -5.902344 6.953125 -7.035156 C 6.953125 -8.132812 5.925781 -9.03125 4.089844 -9.03125 Z M 9.414062 -8.972656 L 8.605469 -8.972656 L 8.605469 -2.886719 L 6.28125 -2.886719 L 6.28125 -2.195312 L 8.605469 -2.195312 L 8.605469 -1.132812 L 9.414062 -1.132812 Z M 4.089844 -8.375 C 5.648438 -8.375 6.179688 -7.761719 6.179688 -7.035156 C 6.179688 -6.261719 5.625 -5.671875 4.101562 -5.671875 C 2.519531 -5.671875 2.089844 -6.363281 2.089844 -7.035156 C 2.089844 -7.726562 2.574219 -8.375 4.089844 -8.375 Z M 0.402344 -3.59375 C 1.257812 -3.59375 2.4375 -3.613281 3.394531 -3.613281 L 3.394531 -1.617188 L 4.214844 -1.617188 L 4.214844 -3.648438 C 6.722656 -3.742188 7.472656 -3.800781 7.980469 -3.878906 L 7.980469 -4.527344 C 6.238281 -4.378906 2.910156 -4.273438 0.402344 -4.273438 Z M 9.75 0.4375 L 2.945312 0.4375 L 2.945312 -1.699219 L 2.136719 -1.699219 L 2.136719 1.132812 L 9.75 1.132812 Z M 9.75 0.4375 "/></g></g></g><g fill="#1c4b89" fill-opacity="1"><g transform="translate(231.112707, 243.26036)"><g><path d="M 9.195312 -8.972656 L 8.375 -8.972656 L 8.375 1.097656 L 9.195312 1.097656 Z M 4.03125 -3.429688 C 5.554688 -3.429688 6.835938 -4.46875 6.835938 -5.9375 C 6.835938 -7.378906 5.695312 -8.511719 3.960938 -8.511719 C 2.367188 -8.511719 1.050781 -7.472656 1.050781 -5.972656 C 1.050781 -4.410156 2.355469 -3.429688 4.03125 -3.429688 Z M 6.007812 -5.960938 C 6.007812 -4.851562 5.265625 -4.125 3.996094 -4.125 C 2.621094 -4.125 1.882812 -4.851562 1.882812 -5.960938 C 1.882812 -6.976562 2.550781 -7.832031 3.960938 -7.832031 C 5.300781 -7.832031 6.007812 -7.089844 6.007812 -5.960938 Z M 0.542969 -0.957031 C 2.933594 -0.957031 6.304688 -1.039062 7.855469 -1.269531 L 7.855469 -1.941406 C 6.0625 -1.789062 3.027344 -1.675781 0.542969 -1.675781 Z M 0.542969 -0.957031 "/></g></g></g><g fill="#1c4b89" fill-opacity="1"><g transform="translate(241.166639, 243.26036)"><g/></g></g><g fill="#1c4b89" fill-opacity="1"><g transform="translate(244.629529, 243.26036)"><g><path d="M 1.570312 -6.015625 C 1.570312 -4.457031 3.027344 -3.359375 5.265625 -3.359375 C 7.472656 -3.359375 8.996094 -4.457031 8.996094 -6.015625 C 8.996094 -7.566406 7.472656 -8.664062 5.265625 -8.664062 C 3.027344 -8.664062 1.570312 -7.566406 1.570312 -6.015625 Z M 2.414062 -6.015625 C 2.414062 -7.160156 3.535156 -7.992188 5.265625 -7.992188 C 7.058594 -7.992188 8.132812 -7.160156 8.132812 -6.015625 C 8.132812 -4.875 7.058594 -4.03125 5.265625 -4.03125 C 3.535156 -4.03125 2.414062 -4.875 2.414062 -6.015625 Z M 6.722656 -2.933594 L 6.722656 -0.714844 L 3.777344 -0.714844 L 3.777344 -2.921875 L 2.921875 -2.921875 L 2.921875 -0.714844 L 0.265625 -0.714844 L 0.265625 -0.0234375 L 10.300781 -0.0234375 L 10.300781 -0.714844 L 7.53125 -0.714844 L 7.53125 -2.933594 Z M 6.722656 -2.933594 "/></g></g></g><g fill="#1c4b89" fill-opacity="1"><g transform="translate(255.19135, 243.26036)"><g><path d="M 8.972656 -8.972656 L 8.175781 -8.972656 L 8.175781 -6.46875 L 5.730469 -6.46875 L 5.730469 -5.773438 L 8.175781 -5.773438 L 8.175781 -2.828125 L 8.972656 -2.828125 Z M 6.664062 -4.078125 C 5.335938 -4.574219 3.902344 -5.625 3.902344 -7.242188 L 3.902344 -7.796875 L 6.191406 -7.796875 L 6.191406 -8.476562 L 0.738281 -8.476562 L 0.738281 -7.796875 L 3.027344 -7.796875 L 3.027344 -7.230469 C 3.027344 -5.554688 1.59375 -4.179688 0.183594 -3.546875 L 0.691406 -2.957031 C 1.734375 -3.476562 2.957031 -4.609375 3.476562 -5.820312 C 3.996094 -4.804688 5.3125 -3.8125 6.28125 -3.453125 Z M 9.148438 -0.449219 C 9.148438 -1.699219 7.703125 -2.4375 5.542969 -2.4375 C 3.359375 -2.4375 1.8125 -1.710938 1.8125 -0.449219 C 1.8125 0.773438 3.359375 1.488281 5.542969 1.488281 C 7.703125 1.488281 9.148438 0.773438 9.148438 -0.449219 Z M 8.292969 -0.4375 C 8.292969 0.394531 7.023438 0.832031 5.542969 0.832031 C 3.996094 0.832031 2.691406 0.414062 2.691406 -0.4375 C 2.691406 -1.386719 4.019531 -1.777344 5.542969 -1.777344 C 7.023438 -1.777344 8.292969 -1.363281 8.292969 -0.4375 Z M 8.292969 -0.4375 "/></g></g></g><g fill="#1c4b89" fill-opacity="1"><g transform="translate(265.072132, 243.26036)"><g><path d="M 9.054688 -5.695312 L 9.054688 -6.375 L 2.496094 -6.375 L 2.496094 -8.199219 L 8.929688 -8.199219 L 8.929688 -8.882812 L 1.6875 -8.882812 L 1.6875 -5.695312 Z M 0.265625 -4.597656 L 0.265625 -3.914062 L 10.300781 -3.914062 L 10.300781 -4.597656 Z M 9.183594 0.714844 L 2.496094 0.714844 L 2.496094 -0.472656 L 8.917969 -0.472656 L 8.917969 -2.910156 L 1.652344 -2.910156 L 1.652344 -2.265625 L 8.0625 -2.265625 L 8.0625 -1.109375 L 1.652344 -1.109375 L 1.652344 1.363281 L 9.183594 1.363281 Z M 9.183594 0.714844 "/></g></g></g></svg>