<svg xmlns="http://www.w3.org/2000/svg" xmlns:xlink="http://www.w3.org/1999/xlink" width="500" zoomAndPan="magnify" viewBox="0 0 375 374.999991" height="500" preserveAspectRatio="xMidYMid meet" version="1.0"><defs><filter x="0%" y="0%" width="100%" height="100%" id="918398a422"><feColorMatrix values="0 0 0 0 1 0 0 0 0 1 0 0 0 0 1 0 0 0 1 0" color-interpolation-filters="sRGB"/></filter><g/><mask id="dfdfd74f87"><g filter="url(#918398a422)"><rect x="-37.5" width="450" fill="#000000" y="-37.499999" height="449.999989" fill-opacity="0.23"/></g></mask><clipPath id="c77c34f41b"><path d="M 0.121094 1 L 94.679688 1 L 94.679688 96 L 0.121094 96 Z M 0.121094 1 " clip-rule="nonzero"/></clipPath><clipPath id="f80ffc2654"><rect x="0" width="95" y="0" height="97"/></clipPath></defs><g mask="url(#dfdfd74f87)"><g transform="matrix(1, 0, 0, 1, 69, 139)"><g clip-path="url(#f80ffc2654)"><path fill="#8b73ff" d="M 55.6875 56.320312 L 39.328125 56.085938 L 41.683594 39.71875 L 58.046875 39.957031 Z M 90.675781 40.425781 C 92.476562 40.425781 93.941406 38.960938 93.941406 37.160156 L 93.941406 27.132812 C 93.941406 25.328125 92.476562 23.863281 90.675781 23.863281 L 76.957031 23.664062 L 79.496094 6.035156 C 79.496094 4.226562 78.03125 2.765625 76.222656 2.765625 L 66.203125 2.765625 C 64.394531 2.765625 62.933594 4.226562 62.933594 6.035156 L 60.425781 23.425781 L 44.066406 23.191406 L 46.535156 6.035156 C 46.535156 4.226562 45.070312 2.765625 43.265625 2.765625 L 33.242188 2.765625 C 31.433594 2.765625 29.96875 4.226562 29.96875 6.035156 L 27.535156 22.953125 L 6.699219 22.652344 C 4.894531 22.652344 3.429688 24.117188 3.429688 25.921875 L 3.429688 35.949219 C 3.429688 37.75 4.894531 39.21875 6.699219 39.21875 L 25.152344 39.484375 L 22.796875 55.84375 L 6.699219 55.617188 C 4.894531 55.617188 3.429688 57.078125 3.429688 58.886719 L 3.429688 68.90625 C 3.429688 70.714844 4.894531 72.183594 6.699219 72.183594 L 20.414062 72.375 L 17.878906 90.007812 C 17.878906 91.8125 19.34375 93.277344 21.144531 93.277344 L 31.171875 93.277344 C 32.976562 93.277344 34.441406 91.8125 34.441406 90.007812 L 36.945312 72.617188 L 53.308594 72.847656 L 50.839844 90.007812 C 50.839844 91.8125 52.300781 93.277344 54.109375 93.277344 L 64.132812 93.277344 C 65.9375 93.277344 67.40625 91.8125 67.40625 90.007812 L 69.839844 73.089844 L 90.675781 73.386719 C 92.476562 73.386719 93.941406 71.925781 93.941406 70.117188 L 93.941406 60.09375 C 93.941406 58.289062 92.476562 56.824219 90.675781 56.824219 L 72.21875 56.558594 L 74.578125 40.195312 L 90.675781 40.425781 " fill-opacity="1" fill-rule="nonzero"/><path fill="#8b73ff" d="M 68.359375 5.84375 C 72.363281 8.539062 74.53125 12.4375 74.335938 17.363281 C 74.261719 19.296875 74.140625 21.230469 73.992188 23.164062 C 73.851562 24.050781 73.746094 24.933594 73.660156 25.828125 C 79.171875 27.964844 85.910156 27.800781 92.34375 27.417969 C 91.8125 26.316406 90.703125 25.554688 89.402344 25.554688 L 75.6875 25.359375 L 78.226562 7.726562 C 78.226562 5.921875 76.765625 4.457031 74.957031 4.457031 L 64.933594 4.457031 C 64.929688 4.457031 64.925781 4.457031 64.921875 4.457031 C 66.035156 4.621094 67.191406 5.054688 68.359375 5.84375 " fill-opacity="1" fill-rule="nonzero"/><g clip-path="url(#c77c34f41b)"><path fill="#8b73ff" d="M 90.675781 40.425781 L 74.578125 40.253906 L 74.636719 40.203125 L 72.335938 56.574219 L 72.222656 56.441406 L 87.117188 56.515625 L 90.851562 56.535156 C 92.214844 56.570312 93.507812 57.476562 94.019531 58.753906 C 94.152344 59.066406 94.226562 59.402344 94.273438 59.765625 C 94.296875 60.066406 94.292969 60.417969 94.296875 60.710938 L 94.316406 62.570312 L 94.355469 66.296875 L 94.398438 70.023438 C 94.457031 71.414062 93.640625 72.855469 92.351562 73.496094 C 91.726562 73.847656 90.945312 73.953125 90.3125 73.929688 L 88.453125 73.929688 L 84.722656 73.945312 L 69.828125 73.996094 L 70.738281 73.214844 L 68.605469 90.179688 L 68.613281 90.007812 C 68.636719 91.164062 68.175781 92.335938 67.363281 93.175781 C 66.578125 94.027344 65.359375 94.550781 64.261719 94.574219 L 59.121094 94.671875 L 54.019531 94.757812 C 52.792969 94.757812 51.558594 94.246094 50.6875 93.371094 C 49.800781 92.5 49.277344 91.257812 49.265625 90.007812 L 49.265625 89.914062 L 49.28125 89.78125 L 51.445312 72.582031 L 53.285156 74.730469 L 36.914062 74.789062 L 39.097656 72.925781 L 36.902344 90.359375 L 36.929688 90.007812 C 36.953125 91.488281 36.355469 93 35.3125 94.070312 C 34.789062 94.609375 34.167969 95.050781 33.476562 95.355469 C 33.128906 95.503906 32.769531 95.625 32.398438 95.703125 C 32.203125 95.75 31.949219 95.785156 31.730469 95.8125 L 31.363281 95.839844 L 26.160156 95.898438 L 21.035156 95.949219 C 19.5 95.941406 17.960938 95.289062 16.882812 94.1875 C 15.792969 93.105469 15.148438 91.550781 15.148438 90.007812 L 15.148438 89.828125 L 15.171875 89.621094 L 17.542969 71.964844 L 20.371094 75.277344 L 7.847656 75.140625 L 7.0625 75.136719 L 6.671875 75.132812 C 6.535156 75.125 6.210938 75.117188 5.988281 75.09375 C 5.003906 74.980469 4.039062 74.621094 3.210938 74.070312 C 2.390625 73.511719 1.703125 72.761719 1.222656 71.886719 C 0.992188 71.449219 0.796875 70.984375 0.671875 70.5 C 0.609375 70.28125 0.550781 69.992188 0.511719 69.671875 C 0.464844 69.28125 0.480469 69.285156 0.46875 69.121094 L 0.4375 62.707031 L 0.425781 59.574219 L 0.425781 58.710938 C 0.441406 58.207031 0.511719 57.710938 0.644531 57.222656 C 0.90625 56.25 1.414062 55.351562 2.089844 54.617188 C 2.765625 53.875 3.625 53.308594 4.574219 52.964844 C 4.808594 52.875 5.054688 52.8125 5.296875 52.75 C 5.535156 52.691406 5.894531 52.644531 6.191406 52.617188 L 6.398438 52.601562 L 6.789062 52.597656 L 7.183594 52.601562 L 10.3125 52.660156 L 22.839844 52.886719 L 19.863281 55.425781 L 22.28125 39.070312 L 25.109375 42.382812 L 10.21875 42.03125 L 6.398438 41.929688 C 4.105469 41.824219 1.988281 40.285156 1.175781 38.160156 C 0.96875 37.644531 0.835938 37.085938 0.777344 36.394531 L 0.765625 36.164062 L 0.761719 35.796875 L 0.765625 35.332031 L 0.785156 33.46875 L 0.828125 29.742188 L 0.867188 26.019531 C 0.847656 25.074219 1.132812 23.835938 1.722656 22.9375 C 2.292969 21.992188 3.140625 21.230469 4.125 20.753906 C 4.632812 20.503906 5.121094 20.351562 5.722656 20.25 L 6.21875 20.191406 L 6.464844 20.179688 L 6.738281 20.171875 L 7.089844 20.183594 L 8.949219 20.242188 L 12.671875 20.363281 L 27.566406 20.84375 L 25.441406 22.648438 L 28.179688 5.777344 L 28.160156 6.035156 C 28.167969 4.722656 28.722656 3.417969 29.648438 2.507812 C 30.539062 1.589844 31.914062 1.046875 33.089844 1.050781 L 38.25 1.136719 L 43.351562 1.230469 C 44.59375 1.257812 45.820312 1.804688 46.660156 2.699219 C 47.519531 3.582031 48.003906 4.816406 47.980469 6.035156 L 47.980469 6.164062 L 47.96875 6.242188 L 45.195312 23.355469 L 44.078125 22.050781 L 60.441406 22.574219 L 59.582031 23.304688 L 62.394531 5.957031 L 62.386719 6.035156 C 62.402344 5.046875 62.820312 4.078125 63.515625 3.394531 C 64.199219 2.710938 65.183594 2.308594 66.117188 2.308594 L 71.214844 2.359375 L 76.292969 2.414062 C 78.207031 2.417969 79.859375 4.15625 79.792969 6.035156 L 79.792969 6.078125 L 77.078125 23.683594 L 76.960938 23.542969 L 85.460938 23.695312 L 89.710938 23.769531 C 90.40625 23.800781 91.148438 23.722656 91.835938 24.003906 C 92.515625 24.253906 93.101562 24.742188 93.484375 25.351562 C 93.882812 25.953125 94.023438 26.707031 93.992188 27.410156 L 93.988281 29.535156 L 93.972656 33.785156 L 93.964844 35.914062 C 93.9375 36.617188 94.039062 37.339844 93.835938 38.03125 C 93.476562 39.425781 92.097656 40.449219 90.675781 40.425781 Z M 90.675781 40.425781 C 92.101562 40.4375 93.457031 39.40625 93.804688 38.023438 C 94 37.339844 93.894531 36.617188 93.917969 35.914062 L 93.914062 33.785156 L 93.894531 29.535156 L 93.886719 27.410156 C 93.914062 26.707031 93.769531 26.003906 93.378906 25.414062 C 93.003906 24.832031 92.441406 24.371094 91.785156 24.132812 C 91.136719 23.871094 90.417969 23.949219 89.707031 23.925781 L 85.460938 23.878906 L 76.953125 23.789062 L 76.816406 23.789062 L 76.835938 23.648438 L 79.203125 5.992188 L 79.199219 6.035156 C 79.214844 4.46875 77.820312 3.085938 76.28125 3.121094 L 71.214844 3.171875 L 66.164062 3.226562 C 64.644531 3.226562 63.410156 4.601562 63.472656 6.035156 L 63.476562 6.058594 L 63.46875 6.109375 L 61.269531 23.546875 L 61.179688 24.273438 L 60.414062 24.277344 L 44.042969 24.335938 L 42.765625 24.339844 L 42.933594 23.027344 L 45.097656 5.828125 L 45.085938 6.035156 C 45.078125 5.078125 44.207031 4.261719 43.296875 4.304688 L 38.25 4.394531 L 33.265625 4.484375 C 32.335938 4.507812 31.75 5.269531 31.777344 6.035156 L 31.78125 6.121094 L 31.761719 6.292969 L 29.625 23.253906 L 29.398438 25.058594 L 27.503906 25.0625 L 12.605469 25.113281 L 8.878906 25.125 L 7.019531 25.132812 L 6.667969 25.132812 C 6.628906 25.132812 6.964844 25.128906 6.816406 25.132812 L 6.773438 25.132812 L 6.714844 25.140625 L 6.492188 25.152344 C 6.503906 25.164062 6.519531 25.164062 6.53125 25.164062 C 6.523438 25.175781 6.40625 25.199219 6.363281 25.242188 C 6.242188 25.3125 6.132812 25.425781 6.078125 25.550781 C 6.042969 25.613281 6.023438 25.675781 6.011719 25.742188 C 5.992188 25.835938 6 25.800781 5.996094 26.019531 L 6.03125 29.742188 L 6.074219 33.46875 L 6.09375 35.332031 L 6.097656 35.796875 L 6.101562 35.914062 L 6.101562 35.941406 C 6.101562 35.972656 6.09375 35.695312 6.097656 35.820312 L 6.097656 35.835938 L 6.101562 35.890625 L 6.117188 36.125 C 6.140625 36.15625 6.105469 36.023438 6.128906 36.085938 C 6.132812 36.113281 6.144531 36.140625 6.15625 36.164062 C 6.25 36.363281 6.46875 36.503906 6.671875 36.488281 L 10.296875 36.507812 L 25.195312 36.578125 L 28.488281 36.597656 L 28.023438 39.894531 L 25.726562 56.269531 L 25.367188 58.835938 L 22.753906 58.808594 L 10.226562 58.675781 L 7.09375 58.640625 L 6.707031 58.636719 L 6.667969 58.636719 C 6.75 58.632812 6.464844 58.640625 6.851562 58.632812 L 6.800781 58.632812 L 6.707031 58.640625 L 6.523438 58.648438 C 6.5625 58.667969 6.660156 58.640625 6.644531 58.644531 C 6.636719 58.652344 6.625 58.644531 6.617188 58.65625 C 6.585938 58.664062 6.542969 58.679688 6.515625 58.714844 C 6.488281 58.746094 6.457031 58.777344 6.453125 58.816406 C 6.445312 58.832031 6.445312 58.855469 6.441406 58.878906 L 6.433594 59.574219 L 6.425781 62.707031 L 6.402344 68.820312 C 6.40625 68.914062 6.414062 69.179688 6.417969 69.050781 C 6.414062 68.984375 6.402344 68.957031 6.410156 68.984375 C 6.410156 69.011719 6.429688 69.027344 6.429688 69.050781 C 6.453125 69.09375 6.492188 69.132812 6.527344 69.167969 C 6.574219 69.195312 6.613281 69.210938 6.660156 69.222656 L 6.757812 69.230469 L 7.929688 69.246094 L 20.453125 69.472656 L 23.792969 69.535156 L 23.285156 72.792969 L 20.578125 90.394531 L 20.605469 90.007812 C 20.578125 90.285156 20.824219 90.589844 21.136719 90.597656 L 26.160156 90.65625 L 31.101562 90.710938 C 31.183594 90.703125 31.367188 90.703125 31.367188 90.695312 C 31.351562 90.6875 31.316406 90.699219 31.324219 90.699219 C 31.367188 90.691406 31.40625 90.679688 31.453125 90.664062 C 31.539062 90.632812 31.621094 90.585938 31.695312 90.523438 C 31.84375 90.386719 31.933594 90.21875 31.949219 90.007812 L 31.988281 89.585938 L 31.980469 89.652344 L 34.792969 72.304688 L 35.105469 70.378906 L 36.976562 70.4375 L 53.335938 70.96875 L 55.507812 71.035156 L 55.175781 73.121094 L 52.398438 90.230469 L 52.410156 90.007812 C 52.355469 90.894531 53.132812 91.769531 54.074219 91.789062 L 59.121094 91.882812 L 64.128906 91.972656 C 65.246094 92.015625 66.167969 91.09375 66.191406 90.007812 L 66.195312 89.894531 L 66.203125 89.835938 L 68.941406 72.957031 L 69.074219 72.15625 L 69.851562 72.183594 L 84.742188 72.660156 L 88.464844 72.78125 L 90.328125 72.839844 C 90.929688 72.875 91.421875 72.820312 91.898438 72.585938 C 92.859375 72.144531 93.515625 71.125 93.484375 70.023438 L 93.527344 66.296875 L 93.566406 62.570312 L 93.585938 60.710938 C 93.585938 60.386719 93.597656 60.113281 93.582031 59.796875 C 93.550781 59.539062 93.5 59.261719 93.394531 59.003906 C 93.003906 57.957031 91.957031 57.183594 90.820312 57.128906 L 87.109375 57.03125 L 72.214844 56.675781 L 72.082031 56.671875 L 72.105469 56.539062 L 74.519531 40.183594 L 74.527344 40.136719 L 74.582031 40.136719 L 90.675781 40.425781 " fill-opacity="1" fill-rule="nonzero"/></g><path fill="#8b73ff" d="M 55.6875 56.320312 C 55.550781 54.910156 55.492188 53.507812 55.445312 52.109375 C 55.390625 50.707031 55.390625 49.320312 55.394531 47.925781 C 55.410156 45.144531 55.523438 42.375 55.6875 39.617188 L 58.011719 42.339844 C 55.28125 42.53125 52.554688 42.632812 49.824219 42.707031 C 47.09375 42.773438 44.363281 42.773438 41.636719 42.742188 L 44.675781 40.148438 C 44.269531 42.875 43.835938 45.601562 43.335938 48.308594 C 42.835938 51.023438 42.285156 53.722656 41.664062 56.417969 L 39.359375 53.722656 C 42.085938 53.996094 44.804688 54.3125 47.53125 54.734375 C 48.890625 54.964844 50.253906 55.160156 51.609375 55.433594 C 52.972656 55.691406 54.332031 55.96875 55.6875 56.320312 Z M 55.6875 56.320312 C 54.320312 56.636719 52.957031 56.867188 51.585938 57.089844 C 50.21875 57.324219 48.851562 57.472656 47.488281 57.671875 C 44.753906 58.015625 42.023438 58.253906 39.292969 58.449219 L 36.8125 58.621094 L 36.988281 55.746094 C 37.15625 52.988281 37.386719 50.234375 37.671875 47.496094 C 37.957031 44.753906 38.3125 42.019531 38.691406 39.289062 L 39.058594 36.652344 L 41.726562 36.699219 C 44.453125 36.746094 47.179688 36.824219 49.902344 36.96875 C 52.628906 37.121094 55.359375 37.304688 58.082031 37.570312 L 60.964844 37.859375 L 60.40625 40.296875 C 59.789062 42.988281 59.113281 45.679688 58.34375 48.351562 C 57.953125 49.683594 57.558594 51.023438 57.113281 52.347656 C 56.671875 53.679688 56.222656 55.003906 55.6875 56.320312 " fill-opacity="1" fill-rule="nonzero"/></g></g></g><g fill="#e1a3ff" fill-opacity="1"><g transform="translate(124.239431, 221.005166)"><g><path d="M 2.320312 -14.851562 L 15.902344 -14.851562 L 15.902344 -22.78125 L 2.320312 -22.78125 L 2.320312 -29.132812 L 23.875 -29.132812 L 23.875 -8.5 L 10.292969 -8.5 L 10.292969 0.527344 L 23.875 0.527344 L 23.875 6.878906 L 2.320312 6.878906 Z M 36.140625 -15.640625 L 41.046875 -15.640625 L 41.046875 -9.289062 L 36.140625 -9.289062 L 36.140625 6.878906 L 28.167969 6.878906 L 28.167969 -30.007812 L 36.140625 -30.007812 Z M 36.140625 -15.640625 "/></g></g></g><g fill="#e1a3ff" fill-opacity="1"><g transform="translate(165.853957, 221.005166)"><g><path d="M 3.242188 -21.949219 C 3.242188 -22.824219 3.328125 -23.742188 3.59375 -24.621094 C 3.765625 -25.496094 4.117188 -26.242188 4.601562 -26.941406 C 5.039062 -27.554688 5.605469 -28.082031 6.351562 -28.519531 C 7.054688 -28.914062 7.972656 -29.132812 9.023438 -29.132812 L 32.59375 -29.132812 C 33.644531 -29.132812 34.519531 -28.914062 35.265625 -28.519531 C 35.964844 -28.082031 36.578125 -27.554688 37.0625 -26.941406 C 37.5 -26.242188 37.804688 -25.496094 38.070312 -24.621094 C 38.242188 -23.742188 38.375 -22.824219 38.375 -21.949219 C 38.375 -20.984375 38.242188 -20.109375 38.070312 -19.273438 C 37.804688 -18.398438 37.5 -17.609375 37.0625 -16.996094 C 36.578125 -16.296875 35.964844 -15.769531 35.265625 -15.375 C 34.519531 -14.9375 33.644531 -14.761719 32.59375 -14.761719 L 24.796875 -14.761719 L 24.796875 -12.355469 L 38.8125 -12.355469 L 38.8125 -6 L 2.804688 -6 L 2.804688 -12.355469 L 16.820312 -12.355469 L 16.820312 -14.761719 L 9.023438 -14.761719 C 7.972656 -14.761719 7.054688 -14.9375 6.351562 -15.375 C 5.605469 -15.769531 5.039062 -16.296875 4.601562 -16.996094 C 4.117188 -17.609375 3.765625 -18.398438 3.59375 -19.273438 C 3.328125 -20.109375 3.242188 -20.984375 3.242188 -21.949219 Z M 3.679688 -3.941406 L 11.652344 -3.941406 L 11.652344 0.746094 L 37.9375 0.746094 L 37.9375 7.097656 L 3.679688 7.097656 Z M 11.214844 -21.949219 C 11.214844 -21.464844 11.347656 -21.113281 11.609375 -20.851562 C 11.871094 -20.589844 12.132812 -20.457031 12.398438 -20.457031 L 29.21875 -20.457031 C 29.484375 -20.457031 29.746094 -20.589844 30.007812 -20.851562 C 30.269531 -21.113281 30.402344 -21.464844 30.402344 -21.949219 C 30.402344 -22.386719 30.269531 -22.78125 30.007812 -23.042969 C 29.746094 -23.304688 29.484375 -23.4375 29.21875 -23.4375 L 12.398438 -23.4375 C 12.132812 -23.4375 11.871094 -23.304688 11.609375 -23.042969 C 11.347656 -22.78125 11.214844 -22.386719 11.214844 -21.949219 Z M 11.214844 -21.949219 "/></g></g></g><g fill="#e1a3ff" fill-opacity="1"><g transform="translate(207.468482, 221.005166)"><g><path d="M 1.882812 -22.691406 C 1.882812 -23.699219 2.058594 -24.621094 2.453125 -25.453125 C 2.804688 -26.242188 3.285156 -26.898438 3.941406 -27.46875 C 4.554688 -27.992188 5.257812 -28.386719 6.132812 -28.695312 C 6.921875 -28.957031 7.839844 -29.132812 8.804688 -29.132812 L 17.390625 -29.132812 C 18.355469 -29.132812 19.230469 -28.957031 20.109375 -28.695312 C 20.894531 -28.386719 21.640625 -27.992188 22.296875 -27.46875 C 22.910156 -26.898438 23.394531 -26.242188 23.789062 -25.453125 C 24.136719 -24.621094 24.3125 -23.699219 24.3125 -22.691406 L 24.3125 0.4375 C 24.3125 1.445312 24.136719 2.367188 23.789062 3.199219 C 23.394531 3.988281 22.910156 4.644531 22.296875 5.214844 C 21.640625 5.738281 20.894531 6.132812 20.109375 6.441406 C 19.230469 6.703125 18.355469 6.878906 17.390625 6.878906 L 8.804688 6.878906 C 7.839844 6.878906 6.921875 6.703125 6.132812 6.441406 C 5.257812 6.132812 4.554688 5.738281 3.941406 5.214844 C 3.285156 4.644531 2.804688 3.988281 2.453125 3.199219 C 2.058594 2.367188 1.882812 1.445312 1.882812 0.4375 Z M 36.140625 -15.640625 L 41.046875 -15.640625 L 41.046875 -9.289062 L 36.140625 -9.289062 L 36.140625 6.878906 L 28.167969 6.878906 L 28.167969 -30.007812 L 36.140625 -30.007812 Z M 13.097656 0.527344 C 14.28125 0.527344 15.15625 0.261719 15.769531 -0.21875 C 16.339844 -0.699219 16.648438 -1.535156 16.648438 -2.714844 L 16.648438 -19.539062 C 16.648438 -20.675781 16.339844 -21.507812 15.769531 -22.035156 C 15.15625 -22.515625 14.28125 -22.78125 13.097656 -22.78125 C 11.871094 -22.78125 10.996094 -22.515625 10.425781 -22.035156 C 9.8125 -21.507812 9.550781 -20.675781 9.550781 -19.539062 L 9.550781 -2.714844 C 9.550781 -1.535156 9.8125 -0.699219 10.425781 -0.21875 C 10.996094 0.261719 11.871094 0.527344 13.097656 0.527344 Z M 13.097656 0.527344 "/></g></g></g><g fill="#e1a3ff" fill-opacity="1"><g transform="translate(249.083008, 221.005166)"><g><path d="M 37.675781 6.878906 L 29.703125 6.878906 L 29.703125 -30.007812 L 37.675781 -30.007812 Z M 2.320312 -14.851562 L 16.339844 -14.851562 L 16.339844 -22.78125 L 2.320312 -22.78125 L 2.320312 -29.132812 L 24.3125 -29.132812 L 24.3125 -8.5 L 10.292969 -8.5 L 10.292969 0.527344 L 24.3125 0.527344 L 24.3125 6.878906 L 2.320312 6.878906 Z M 2.320312 -14.851562 "/></g></g></g><g fill="#e1a3ff" fill-opacity="1"><g transform="translate(290.697534, 221.005166)"><g><path d="M 1.882812 -22.691406 C 1.882812 -23.699219 2.058594 -24.621094 2.453125 -25.453125 C 2.804688 -26.242188 3.285156 -26.898438 3.941406 -27.46875 C 4.554688 -27.992188 5.257812 -28.386719 6.132812 -28.695312 C 6.921875 -28.957031 7.839844 -29.132812 8.804688 -29.132812 L 17.390625 -29.132812 C 18.355469 -29.132812 19.230469 -28.957031 20.109375 -28.695312 C 20.894531 -28.386719 21.640625 -27.992188 22.296875 -27.46875 C 22.910156 -26.898438 23.394531 -26.242188 23.789062 -25.453125 C 24.136719 -24.621094 24.3125 -23.699219 24.3125 -22.691406 L 24.3125 0.4375 C 24.3125 1.445312 24.136719 2.367188 23.789062 3.199219 C 23.394531 3.988281 22.910156 4.644531 22.296875 5.214844 C 21.640625 5.738281 20.894531 6.132812 20.109375 6.441406 C 19.230469 6.703125 18.355469 6.878906 17.390625 6.878906 L 8.804688 6.878906 C 7.839844 6.878906 6.921875 6.703125 6.132812 6.441406 C 5.257812 6.132812 4.554688 5.738281 3.941406 5.214844 C 3.285156 4.644531 2.804688 3.988281 2.453125 3.199219 C 2.058594 2.367188 1.882812 1.445312 1.882812 0.4375 Z M 36.140625 -15.640625 L 41.046875 -15.640625 L 41.046875 -9.289062 L 36.140625 -9.289062 L 36.140625 6.878906 L 28.167969 6.878906 L 28.167969 -30.007812 L 36.140625 -30.007812 Z M 13.097656 0.527344 C 14.28125 0.527344 15.15625 0.261719 15.769531 -0.21875 C 16.339844 -0.699219 16.648438 -1.535156 16.648438 -2.714844 L 16.648438 -19.539062 C 16.648438 -20.675781 16.339844 -21.507812 15.769531 -22.035156 C 15.15625 -22.515625 14.28125 -22.78125 13.097656 -22.78125 C 11.871094 -22.78125 10.996094 -22.515625 10.425781 -22.035156 C 9.8125 -21.507812 9.550781 -20.675781 9.550781 -19.539062 L 9.550781 -2.714844 C 9.550781 -1.535156 9.8125 -0.699219 10.425781 -0.21875 C 10.996094 0.261719 11.871094 0.527344 13.097656 0.527344 Z M 13.097656 0.527344 "/></g></g></g><g fill="#1c4b89" fill-opacity="1"><g transform="translate(220.525903, 184.673983)"><g><path d="M 9.484375 -6.28125 C 7.761719 -6.558594 6.179688 -7.277344 5.71875 -8.234375 L 9.089844 -8.234375 L 9.089844 -8.90625 L 1.46875 -8.90625 L 1.46875 -8.234375 L 4.804688 -8.234375 C 4.410156 -7.289062 2.816406 -6.558594 1.097656 -6.28125 L 1.511719 -5.695312 C 3.128906 -6.039062 4.644531 -6.675781 5.242188 -7.53125 C 5.9375 -6.664062 7.3125 -6.050781 9.042969 -5.695312 Z M 10.300781 -4.933594 L 0.265625 -4.933594 L 0.265625 -4.238281 L 10.300781 -4.238281 Z M 9.183594 0.714844 L 2.519531 0.714844 L 2.519531 -0.566406 L 8.917969 -0.566406 L 8.917969 -3.09375 L 1.652344 -3.09375 L 1.652344 -2.4375 L 8.050781 -2.4375 L 8.050781 -1.203125 L 1.652344 -1.203125 L 1.652344 1.363281 L 9.183594 1.363281 Z M 9.183594 0.714844 "/></g></g></g><g fill="#1c4b89" fill-opacity="1"><g transform="translate(231.087723, 184.673983)"><g><path d="M 8.894531 -8.972656 L 8.074219 -8.972656 L 8.074219 -5.128906 L 5.164062 -5.128906 L 5.164062 -4.421875 L 8.074219 -4.421875 L 8.074219 1.085938 L 8.894531 1.085938 Z M 0.0585938 -8.234375 L 0.0585938 -7.53125 L 3.890625 -7.53125 C 3.859375 -5.140625 3.546875 -2.839844 3.128906 -0.589844 L 4.007812 -0.589844 C 4.433594 -2.96875 4.710938 -5.441406 4.746094 -8.234375 Z M 0.0585938 -8.234375 "/></g></g></g><g fill="#1c4b89" fill-opacity="1"><g transform="translate(240.829998, 184.673983)"><g><path d="M 1.59375 -6.847656 C 1.59375 -5.613281 2.875 -4.78125 5.253906 -4.78125 C 7.632812 -4.78125 8.953125 -5.578125 8.953125 -6.847656 C 8.953125 -8.039062 7.589844 -8.871094 5.253906 -8.871094 C 2.863281 -8.871094 1.59375 -8.039062 1.59375 -6.847656 Z M 2.4375 -6.847656 C 2.4375 -7.714844 3.570312 -8.210938 5.253906 -8.210938 C 6.859375 -8.210938 8.085938 -7.714844 8.085938 -6.847656 C 8.085938 -5.890625 6.941406 -5.429688 5.253906 -5.429688 C 3.625 -5.429688 2.4375 -5.9375 2.4375 -6.847656 Z M 10.300781 -3.789062 L 0.265625 -3.789062 L 0.265625 -3.09375 L 4.933594 -3.09375 L 4.933594 -0.796875 L 5.773438 -0.796875 L 5.773438 -3.09375 L 10.300781 -3.09375 Z M 9.308594 0.4375 L 2.460938 0.4375 L 2.460938 -1.964844 L 1.652344 -1.964844 L 1.652344 1.132812 L 9.308594 1.132812 Z M 9.308594 0.4375 "/></g></g></g><g fill="#1c4b89" fill-opacity="1"><g transform="translate(251.391818, 184.673983)"><g/></g></g><g fill="#1c4b89" fill-opacity="1"><g transform="translate(254.854708, 184.673983)"><g><path d="M 8.960938 -6.664062 C 8.960938 -8.050781 7.691406 -8.90625 5.265625 -8.90625 C 2.898438 -8.90625 1.59375 -8.039062 1.59375 -6.664062 C 1.59375 -5.230469 2.886719 -4.402344 5.265625 -4.402344 C 7.691406 -4.402344 8.960938 -5.230469 8.960938 -6.664062 Z M 5.265625 -5.058594 C 3.582031 -5.058594 2.414062 -5.613281 2.414062 -6.664062 C 2.414062 -7.667969 3.535156 -8.246094 5.265625 -8.246094 C 6.964844 -8.246094 8.132812 -7.65625 8.132812 -6.675781 C 8.132812 -5.636719 6.964844 -5.058594 5.265625 -5.058594 Z M 10.300781 -3.027344 L 0.265625 -3.027344 L 0.265625 -2.320312 L 3.027344 -2.320312 L 3.027344 1.191406 L 3.871094 1.191406 L 3.871094 -2.320312 L 6.769531 -2.320312 L 6.769531 1.304688 L 7.589844 1.304688 L 7.589844 -2.320312 L 10.300781 -2.320312 Z M 10.300781 -3.027344 "/></g></g></g><g fill="#1c4b89" fill-opacity="1"><g transform="translate(265.416529, 184.673983)"><g><path d="M 7.910156 -8.972656 L 7.910156 1.085938 L 8.71875 1.085938 L 8.71875 -8.972656 Z M 1.953125 -8.6875 L 1.953125 -8.015625 L 5.253906 -8.015625 L 5.253906 -8.6875 Z M 6.617188 -6.027344 L 6.617188 -6.699219 L 0.496094 -6.699219 L 0.496094 -6.027344 L 3.1875 -6.027344 C 3.128906 -4.125 2.019531 -2.296875 0.4375 -1.109375 L 1.003906 -0.566406 C 2.296875 -1.546875 3.199219 -3.140625 3.625 -4.390625 C 4.066406 -3.0625 5.265625 -1.488281 6.25 -0.902344 L 6.734375 -1.476562 C 5.070312 -2.5625 4.078125 -4.285156 4.042969 -6.027344 Z M 6.617188 -6.027344 "/></g></g></g><g fill="#1c4b89" fill-opacity="1"><g transform="translate(275.089544, 184.673983)"><g><path d="M 4.089844 -9.03125 C 2.242188 -9.03125 1.304688 -8.132812 1.304688 -7.035156 C 1.304688 -5.902344 2.296875 -5.011719 4.089844 -5.011719 C 6.015625 -5.011719 6.953125 -5.902344 6.953125 -7.035156 C 6.953125 -8.132812 5.925781 -9.03125 4.089844 -9.03125 Z M 9.414062 -8.972656 L 8.605469 -8.972656 L 8.605469 -2.886719 L 6.28125 -2.886719 L 6.28125 -2.195312 L 8.605469 -2.195312 L 8.605469 -1.132812 L 9.414062 -1.132812 Z M 4.089844 -8.375 C 5.648438 -8.375 6.179688 -7.761719 6.179688 -7.035156 C 6.179688 -6.261719 5.625 -5.671875 4.101562 -5.671875 C 2.519531 -5.671875 2.089844 -6.363281 2.089844 -7.035156 C 2.089844 -7.726562 2.574219 -8.375 4.089844 -8.375 Z M 0.402344 -3.59375 C 1.257812 -3.59375 2.4375 -3.613281 3.394531 -3.613281 L 3.394531 -1.617188 L 4.214844 -1.617188 L 4.214844 -3.648438 C 6.722656 -3.742188 7.472656 -3.800781 7.980469 -3.878906 L 7.980469 -4.527344 C 6.238281 -4.378906 2.910156 -4.273438 0.402344 -4.273438 Z M 9.75 0.4375 L 2.945312 0.4375 L 2.945312 -1.699219 L 2.136719 -1.699219 L 2.136719 1.132812 L 9.75 1.132812 Z M 9.75 0.4375 "/></g></g></g><g fill="#1c4b89" fill-opacity="1"><g transform="translate(285.478226, 184.673983)"><g><path d="M 9.195312 -8.972656 L 8.375 -8.972656 L 8.375 1.097656 L 9.195312 1.097656 Z M 4.03125 -3.429688 C 5.554688 -3.429688 6.835938 -4.46875 6.835938 -5.9375 C 6.835938 -7.378906 5.695312 -8.511719 3.960938 -8.511719 C 2.367188 -8.511719 1.050781 -7.472656 1.050781 -5.972656 C 1.050781 -4.410156 2.355469 -3.429688 4.03125 -3.429688 Z M 6.007812 -5.960938 C 6.007812 -4.851562 5.265625 -4.125 3.996094 -4.125 C 2.621094 -4.125 1.882812 -4.851562 1.882812 -5.960938 C 1.882812 -6.976562 2.550781 -7.832031 3.960938 -7.832031 C 5.300781 -7.832031 6.007812 -7.089844 6.007812 -5.960938 Z M 0.542969 -0.957031 C 2.933594 -0.957031 6.304688 -1.039062 7.855469 -1.269531 L 7.855469 -1.941406 C 6.0625 -1.789062 3.027344 -1.675781 0.542969 -1.675781 Z M 0.542969 -0.957031 "/></g></g></g><g fill="#1c4b89" fill-opacity="1"><g transform="translate(295.532158, 184.673983)"><g/></g></g><g fill="#1c4b89" fill-opacity="1"><g transform="translate(298.995048, 184.673983)"><g><path d="M 1.570312 -6.015625 C 1.570312 -4.457031 3.027344 -3.359375 5.265625 -3.359375 C 7.472656 -3.359375 8.996094 -4.457031 8.996094 -6.015625 C 8.996094 -7.566406 7.472656 -8.664062 5.265625 -8.664062 C 3.027344 -8.664062 1.570312 -7.566406 1.570312 -6.015625 Z M 2.414062 -6.015625 C 2.414062 -7.160156 3.535156 -7.992188 5.265625 -7.992188 C 7.058594 -7.992188 8.132812 -7.160156 8.132812 -6.015625 C 8.132812 -4.875 7.058594 -4.03125 5.265625 -4.03125 C 3.535156 -4.03125 2.414062 -4.875 2.414062 -6.015625 Z M 6.722656 -2.933594 L 6.722656 -0.714844 L 3.777344 -0.714844 L 3.777344 -2.921875 L 2.921875 -2.921875 L 2.921875 -0.714844 L 0.265625 -0.714844 L 0.265625 -0.0234375 L 10.300781 -0.0234375 L 10.300781 -0.714844 L 7.53125 -0.714844 L 7.53125 -2.933594 Z M 6.722656 -2.933594 "/></g></g></g><g fill="#1c4b89" fill-opacity="1"><g transform="translate(309.556869, 184.673983)"><g><path d="M 8.972656 -8.972656 L 8.175781 -8.972656 L 8.175781 -6.46875 L 5.730469 -6.46875 L 5.730469 -5.773438 L 8.175781 -5.773438 L 8.175781 -2.828125 L 8.972656 -2.828125 Z M 6.664062 -4.078125 C 5.335938 -4.574219 3.902344 -5.625 3.902344 -7.242188 L 3.902344 -7.796875 L 6.191406 -7.796875 L 6.191406 -8.476562 L 0.738281 -8.476562 L 0.738281 -7.796875 L 3.027344 -7.796875 L 3.027344 -7.230469 C 3.027344 -5.554688 1.59375 -4.179688 0.183594 -3.546875 L 0.691406 -2.957031 C 1.734375 -3.476562 2.957031 -4.609375 3.476562 -5.820312 C 3.996094 -4.804688 5.3125 -3.8125 6.28125 -3.453125 Z M 9.148438 -0.449219 C 9.148438 -1.699219 7.703125 -2.4375 5.542969 -2.4375 C 3.359375 -2.4375 1.8125 -1.710938 1.8125 -0.449219 C 1.8125 0.773438 3.359375 1.488281 5.542969 1.488281 C 7.703125 1.488281 9.148438 0.773438 9.148438 -0.449219 Z M 8.292969 -0.4375 C 8.292969 0.394531 7.023438 0.832031 5.542969 0.832031 C 3.996094 0.832031 2.691406 0.414062 2.691406 -0.4375 C 2.691406 -1.386719 4.019531 -1.777344 5.542969 -1.777344 C 7.023438 -1.777344 8.292969 -1.363281 8.292969 -0.4375 Z M 8.292969 -0.4375 "/></g></g></g><g fill="#1c4b89" fill-opacity="1"><g transform="translate(319.437651, 184.673983)"><g><path d="M 9.054688 -5.695312 L 9.054688 -6.375 L 2.496094 -6.375 L 2.496094 -8.199219 L 8.929688 -8.199219 L 8.929688 -8.882812 L 1.6875 -8.882812 L 1.6875 -5.695312 Z M 0.265625 -4.597656 L 0.265625 -3.914062 L 10.300781 -3.914062 L 10.300781 -4.597656 Z M 9.183594 0.714844 L 2.496094 0.714844 L 2.496094 -0.472656 L 8.917969 -0.472656 L 8.917969 -2.910156 L 1.652344 -2.910156 L 1.652344 -2.265625 L 8.0625 -2.265625 L 8.0625 -1.109375 L 1.652344 -1.109375 L 1.652344 1.363281 L 9.183594 1.363281 Z M 9.183594 0.714844 "/></g></g></g></svg>